<svg width="375" height="220" viewBox="0 0 375 220" fill="none" xmlns="http://www.w3.org/2000/svg">
<rect width="375" height="220" fill="#F2F6FF"/>
<path d="M309.237 113.781C311.088 113.781 312.624 112.246 312.624 110.394C312.624 108.542 311.088 107.007 309.237 107.007H162.054V71.8137C162.054 64.6779 165.08 61.652 172.215 61.652H254.122C255.974 61.652 257.509 60.1164 257.509 58.2647C257.509 56.413 255.974 54.8774 254.122 54.8774H172.215C161.286 54.8774 155.279 60.8842 155.279 71.8137V107.007H131.568C129.717 107.007 128.181 108.542 128.181 110.394C128.181 112.246 129.717 113.781 131.568 113.781H155.279V148.974C155.279 159.904 161.286 165.911 172.215 165.911H254.122C255.974 165.911 257.509 164.375 257.509 162.523C257.509 160.672 255.974 159.136 254.122 159.136H172.215C165.08 159.136 162.054 156.11 162.054 148.974V113.781H309.237Z" fill="#D2E7FA"/>
<path d="M108.757 74.0527H81.6591C69.194 74.0527 59.0774 84.1693 59.0774 96.6344V123.732C59.0774 136.198 69.194 146.314 81.6591 146.314H108.757C121.222 146.314 131.339 136.198 131.339 123.732V96.6344C131.339 84.1693 121.222 74.0527 108.757 74.0527ZM118.964 120.39C118.964 127.888 112.912 133.939 105.415 133.939H85.0012C77.5041 133.939 71.4522 127.888 71.4522 120.39V99.9765C71.4522 92.4794 77.5041 86.4275 85.0012 86.4275H105.37C112.867 86.4275 118.919 92.4794 118.919 99.9765V120.39H118.964Z" fill="#D2E7FA"/>
<path d="M81.9304 68.4073V74.0527H81.6594C79.4012 74.0527 77.2334 74.3688 75.1559 75.0011V68.4073C75.1559 66.5556 76.6463 65.02 78.5431 65.02C80.3948 65.02 81.9304 66.5556 81.9304 68.4073Z" fill="#004CFE"/>
<path d="M98.5954 68.4073V74.0527H91.8209V68.4073C91.8209 66.5556 93.3565 65.02 95.2082 65.02C97.0599 65.02 98.5954 66.5556 98.5954 68.4073Z" fill="#004CFE"/>
<path d="M115.306 68.4073V75.0011C113.228 74.3688 111.015 74.0527 108.757 74.0527H108.531V68.4073C108.531 66.5556 110.067 65.02 111.918 65.02C113.77 65.02 115.306 66.5556 115.306 68.4073Z" fill="#004CFE"/>
<path d="M140.372 93.4732C140.372 95.3701 138.881 96.8604 136.984 96.8604H131.339V96.6346C131.339 94.3765 131.023 92.1635 130.391 90.0859H136.984C138.881 90.0859 140.372 91.6215 140.372 93.4732Z" fill="#004CFE"/>
<path d="M140.372 110.183C140.372 112.035 138.881 113.571 136.984 113.571H131.339V106.796H136.984C138.881 106.796 140.372 108.287 140.372 110.183Z" fill="#004CFE"/>
<path d="M140.372 126.894C140.372 128.745 138.881 130.281 136.984 130.281H130.391C131.023 128.203 131.339 125.99 131.339 123.732V123.506H136.984C138.881 123.506 140.372 124.997 140.372 126.894Z" fill="#004CFE"/>
<path d="M115.306 145.366V151.96C115.306 153.812 113.77 155.347 111.918 155.347C110.067 155.347 108.531 153.812 108.531 151.96V146.314H108.757C111.015 146.314 113.228 145.998 115.306 145.366Z" fill="#004CFE"/>
<path d="M98.6407 146.314V151.96C98.6407 153.811 97.1052 155.347 95.2535 155.347C93.3566 155.347 91.8662 153.811 91.8662 151.96V146.314H98.6407Z" fill="#004CFE"/>
<path d="M81.9304 146.314V151.96C81.9304 153.812 80.3948 155.347 78.5431 155.347C76.6463 155.347 75.1559 153.812 75.1559 151.96V145.366C77.2334 145.998 79.4012 146.314 81.6594 146.314H81.9304Z" fill="#004CFE"/>
<path d="M60.0259 90.0859C59.3936 92.1635 59.0775 94.3765 59.0775 96.6346V96.8604H53.4321C51.5804 96.8604 50.0448 95.3701 50.0448 93.4732C50.0448 91.6215 51.5804 90.0859 53.4321 90.0859H60.0259V90.0859Z" fill="#004CFE"/>
<path d="M59.0775 106.796V113.571H53.4321C51.5804 113.571 50.0448 112.035 50.0448 110.183C50.0448 108.287 51.5804 106.796 53.4321 106.796H59.0775Z" fill="#004CFE"/>
<path d="M60.0259 130.281H53.4321C51.5804 130.281 50.0448 128.745 50.0448 126.894C50.0448 124.997 51.5804 123.506 53.4321 123.506H59.0775V123.732C59.0775 125.99 59.3936 128.203 60.0259 130.281Z" fill="#004CFE"/>
<path d="M105.415 86.4275H85.0012C77.504 86.4275 71.4521 92.4794 71.4521 99.9765V120.345C71.4521 127.842 77.504 133.894 85.0012 133.894H105.37C112.867 133.894 118.919 127.842 118.919 120.345V99.9765C118.964 92.5245 112.867 86.4275 105.415 86.4275ZM102.389 114.88L98.1437 122.287C97.5114 123.371 96.3823 124.003 95.2081 124.003C94.621 124.003 94.0338 123.868 93.5371 123.552C91.9112 122.603 91.3692 120.526 92.2725 118.945L95.3436 113.616H92.6789C90.5111 113.616 88.7497 112.667 87.8013 111.042C86.8529 109.416 86.9432 107.383 87.982 105.532L92.2273 98.1248C93.1757 96.4989 95.2533 95.957 96.834 96.8602C98.4599 97.8087 99.0018 99.8862 98.0986 101.467L95.0274 106.796H97.6921C99.8599 106.796 101.621 107.745 102.57 109.37C103.563 110.996 103.473 112.984 102.389 114.88Z" fill="#004CFE"/>
<rect x="236.669" y="22" width="40.9872" height="74.6877" rx="5.80191" fill="#004CFE"/>
<rect x="293.621" y="72.522" width="40.9872" height="74.6877" rx="5.80191" fill="#004CFE"/>
<rect x="236.669" y="123.043" width="40.9872" height="74.6877" rx="5.80191" fill="#004CFE"/>
</svg>
