<svg width="375" height="220" viewBox="0 0 375 220" fill="none" xmlns="http://www.w3.org/2000/svg">
<g clip-path="url(#clip0_114_26)">
<rect width="375" height="220" fill="#F2F6FF"/>
<rect x="181" y="139" width="76" height="160" rx="15" fill="url(#paint0_linear_114_26)"/>
<rect x="94" y="28" width="255" height="158" rx="15" fill="white"/>
<path d="M94 43C94 34.7157 100.716 28 109 28H334C342.284 28 349 34.7157 349 43V60H94V43Z" fill="#DAE3FF"/>
<g filter="url(#filter0_d_114_26)">
<rect x="104" y="37" width="236" height="11" rx="5.5" fill="white"/>
</g>
<g filter="url(#filter1_d_114_26)">
<rect x="173" y="55" width="98" height="11" rx="5.5" fill="white"/>
</g>
<rect x="191" y="78" width="11" height="8" rx="4" fill="#004CFE"/>
<rect x="315" y="39" width="21" height="7" rx="3.5" fill="#004CFE"/>
<rect x="307" y="40" width="5" height="5" rx="2.5" fill="black" fill-opacity="0.1"/>
<rect x="120" y="41" width="8" height="3" rx="1.5" fill="black" fill-opacity="0.1"/>
<rect x="110" y="40" width="5" height="5" rx="1" fill="black" fill-opacity="0.1"/>
<rect x="207" y="80" width="11" height="4" rx="2" fill="black" fill-opacity="0.1"/>
<rect x="223" y="80" width="11" height="4" rx="2" fill="black" fill-opacity="0.1"/>
<rect x="239" y="80" width="14" height="4" rx="2" fill="black" fill-opacity="0.1"/>
<rect x="104" y="95" width="44.6203" height="81.308" rx="3.96624" fill="black" fill-opacity="0.1"/>
<rect x="151.595" y="95" width="44.6203" height="81.308" rx="3.96624" fill="black" fill-opacity="0.1"/>
<rect x="199.19" y="95" width="44.6203" height="81.308" rx="3.96624" fill="black" fill-opacity="0.1"/>
<rect x="246.785" y="95" width="44.6203" height="81.308" rx="3.96624" fill="black" fill-opacity="0.1"/>
<rect x="294.38" y="95" width="44.6203" height="81.308" rx="3.96624" fill="black" fill-opacity="0.1"/>
</g>
<defs>
<filter id="filter0_d_114_26" x="101" y="35" width="242" height="17" filterUnits="userSpaceOnUse" color-interpolation-filters="sRGB">
<feFlood flood-opacity="0" result="BackgroundImageFix"/>
<feColorMatrix in="SourceAlpha" type="matrix" values="0 0 0 0 0 0 0 0 0 0 0 0 0 0 0 0 0 0 127 0" result="hardAlpha"/>
<feOffset dy="1"/>
<feGaussianBlur stdDeviation="1.5"/>
<feComposite in2="hardAlpha" operator="out"/>
<feColorMatrix type="matrix" values="0 0 0 0 0 0 0 0 0 0 0 0 0 0 0 0 0 0 0.1 0"/>
<feBlend mode="normal" in2="BackgroundImageFix" result="effect1_dropShadow_114_26"/>
<feBlend mode="normal" in="SourceGraphic" in2="effect1_dropShadow_114_26" result="shape"/>
</filter>
<filter id="filter1_d_114_26" x="170" y="53" width="104" height="17" filterUnits="userSpaceOnUse" color-interpolation-filters="sRGB">
<feFlood flood-opacity="0" result="BackgroundImageFix"/>
<feColorMatrix in="SourceAlpha" type="matrix" values="0 0 0 0 0 0 0 0 0 0 0 0 0 0 0 0 0 0 127 0" result="hardAlpha"/>
<feOffset dy="1"/>
<feGaussianBlur stdDeviation="1.5"/>
<feComposite in2="hardAlpha" operator="out"/>
<feColorMatrix type="matrix" values="0 0 0 0 0 0 0 0 0 0 0 0 0 0 0 0 0 0 0.1 0"/>
<feBlend mode="normal" in2="BackgroundImageFix" result="effect1_dropShadow_114_26"/>
<feBlend mode="normal" in="SourceGraphic" in2="effect1_dropShadow_114_26" result="shape"/>
</filter>
<linearGradient id="paint0_linear_114_26" x1="219" y1="192.091" x2="219" y2="251" gradientUnits="userSpaceOnUse">
<stop stop-color="#E3E3E3"/>
<stop offset="1" stop-color="#F8F8F8" stop-opacity="0"/>
</linearGradient>
<clipPath id="clip0_114_26">
<rect width="375" height="220" fill="white"/>
</clipPath>
</defs>
</svg>
