<svg width="405" height="403" viewBox="0 0 405 403" fill="none" xmlns="http://www.w3.org/2000/svg">
<circle cx="72.5" cy="91" r="72.5" fill="#004CFE"/>
<rect x="46" width="54" height="54" rx="10" fill="black"/>
<path d="M81.5 36.7183H80.4233C79.29 36.7183 78.2133 37.1575 77.42 37.9508L74.9975 40.345C73.8925 41.4358 72.0934 41.4358 70.9884 40.345L68.5658 37.9508C67.7725 37.1575 66.6817 36.7183 65.5625 36.7183H64.5C62.1483 36.7183 60.25 34.8342 60.25 32.5109V17.055C60.25 14.7317 62.1483 12.8475 64.5 12.8475H81.5C83.8517 12.8475 85.75 14.7317 85.75 17.055V32.5109C85.75 34.82 83.8517 36.7183 81.5 36.7183Z" fill="white"/>
<path d="M73 24.7475C74.823 24.7475 76.3008 23.2697 76.3008 21.4467C76.3008 19.6237 74.823 18.1459 73 18.1459C71.177 18.1459 69.6991 19.6237 69.6991 21.4467C69.6991 23.2697 71.177 24.7475 73 24.7475Z" fill="black"/>
<path d="M76.7966 31.335C77.9441 31.335 78.61 30.06 77.9725 29.1108C77.0091 27.68 75.1391 26.7167 73 26.7167C70.8608 26.7167 68.9908 27.68 68.0274 29.1108C67.3899 30.06 68.0558 31.335 69.2033 31.335H76.7966Z" fill="black"/>
<rect x="46" y="130" width="54" height="54" rx="10" fill="black"/>
<path d="M72.3441 168.194C78.8884 168.194 84.1936 162.888 84.1936 156.344C84.1936 149.8 78.8884 144.495 72.3441 144.495C65.7998 144.495 60.4946 149.8 60.4946 156.344C60.4946 162.888 65.7998 168.194 72.3441 168.194Z" fill="white"/>
<path d="M84.5678 169.441C84.3433 169.441 84.1188 169.354 83.9566 169.191L81.6366 166.871C81.2998 166.535 81.2998 165.986 81.6366 165.637C81.9734 165.3 82.5222 165.3 82.8715 165.637L85.1915 167.957C85.5282 168.293 85.5282 168.842 85.1915 169.191C85.0168 169.354 84.7923 169.441 84.5678 169.441Z" fill="#D2E7FA"/>
<rect x="46" y="65" width="54" height="54" rx="10" fill="white"/>
<path d="M77.25 80.6666H68.75C64.84 80.6666 61.6666 83.84 61.6666 87.75V96.25C61.6666 100.16 64.84 103.333 68.75 103.333H77.25C81.16 103.333 84.3333 100.16 84.3333 96.25V87.75C84.3333 83.84 81.16 80.6666 77.25 80.6666ZM80.4516 95.2016C80.4516 97.5533 78.5533 99.4516 76.2016 99.4516H69.7983C67.4466 99.4516 65.5483 97.5533 65.5483 95.2016V88.7983C65.5483 86.4466 67.4466 84.5483 69.7983 84.5483H76.1875C78.5391 84.5483 80.4375 86.4466 80.4375 88.7983V95.2016H80.4516Z" fill="#D2E7FA"/>
<path d="M68.835 78.8959V80.6667H68.75C68.0416 80.6667 67.3616 80.7659 66.71 80.9642V78.8959C66.71 78.315 67.1775 77.8334 67.7725 77.8334C68.3533 77.8334 68.835 78.315 68.835 78.8959Z" fill="#004CFE"/>
<path d="M74.0625 78.8959V80.6667H71.9375V78.8959C71.9375 78.315 72.4192 77.8334 73 77.8334C73.5808 77.8334 74.0625 78.315 74.0625 78.8959Z" fill="#004CFE"/>
<path d="M79.3042 78.8959V80.9642C78.6525 80.7659 77.9584 80.6667 77.25 80.6667H77.1792V78.8959C77.1792 78.315 77.6609 77.8334 78.2417 77.8334C78.8225 77.8334 79.3042 78.315 79.3042 78.8959Z" fill="#004CFE"/>
<path d="M87.1667 86.7583C87.1667 87.3533 86.6992 87.8208 86.1042 87.8208H84.3334V87.75C84.3334 87.0416 84.2342 86.3475 84.0359 85.6958H86.1042C86.6992 85.6958 87.1667 86.1775 87.1667 86.7583Z" fill="#004CFE"/>
<path d="M87.1667 92C87.1667 92.5808 86.6992 93.0625 86.1042 93.0625H84.3334V90.9375H86.1042C86.6992 90.9375 87.1667 91.405 87.1667 92Z" fill="#004CFE"/>
<path d="M87.1667 97.2417C87.1667 97.8225 86.6992 98.3042 86.1042 98.3042H84.0359C84.2342 97.6525 84.3334 96.9584 84.3334 96.25V96.1792H86.1042C86.6992 96.1792 87.1667 96.6467 87.1667 97.2417Z" fill="#004CFE"/>
<path d="M79.3042 103.036V105.104C79.3042 105.685 78.8225 106.167 78.2417 106.167C77.6609 106.167 77.1792 105.685 77.1792 105.104V103.333H77.25C77.9584 103.333 78.6525 103.234 79.3042 103.036Z" fill="#004CFE"/>
<path d="M74.0767 103.333V105.104C74.0767 105.685 73.595 106.167 73.0142 106.167C72.4192 106.167 71.9517 105.685 71.9517 105.104V103.333H74.0767Z" fill="#004CFE"/>
<path d="M68.835 103.333V105.104C68.835 105.685 68.3533 106.167 67.7725 106.167C67.1775 106.167 66.71 105.685 66.71 105.104V103.036C67.3616 103.234 68.0416 103.333 68.75 103.333H68.835Z" fill="#004CFE"/>
<path d="M61.9642 85.6958C61.7659 86.3475 61.6667 87.0416 61.6667 87.75V87.8208H59.8959C59.315 87.8208 58.8334 87.3533 58.8334 86.7583C58.8334 86.1775 59.315 85.6958 59.8959 85.6958H61.9642V85.6958Z" fill="#004CFE"/>
<path d="M61.6667 90.9375V93.0625H59.8959C59.315 93.0625 58.8334 92.5808 58.8334 92C58.8334 91.405 59.315 90.9375 59.8959 90.9375H61.6667Z" fill="#004CFE"/>
<path d="M61.9642 98.3042H59.8959C59.315 98.3042 58.8334 97.8225 58.8334 97.2417C58.8334 96.6467 59.315 96.1792 59.8959 96.1792H61.6667V96.25C61.6667 96.9584 61.7659 97.6525 61.9642 98.3042Z" fill="#004CFE"/>
<path d="M76.2017 84.5483H69.7983C67.4467 84.5483 65.5483 86.4467 65.5483 88.7983V95.1875C65.5483 97.5392 67.4467 99.4375 69.7983 99.4375H76.1875C78.5392 99.4375 80.4375 97.5392 80.4375 95.1875V88.7983C80.4517 86.4608 78.5392 84.5483 76.2017 84.5483ZM75.2525 93.4733L73.9208 95.7967C73.7225 96.1367 73.3683 96.335 73 96.335C72.8158 96.335 72.6317 96.2925 72.4758 96.1933C71.9658 95.8958 71.7958 95.2442 72.0792 94.7483L73.0425 93.0767H72.2067C71.5267 93.0767 70.9742 92.7792 70.6767 92.2692C70.3792 91.7592 70.4075 91.1217 70.7333 90.5408L72.065 88.2175C72.3625 87.7075 73.0142 87.5375 73.51 87.8208C74.02 88.1183 74.19 88.77 73.9067 89.2658L72.9433 90.9375H73.7792C74.4592 90.9375 75.0117 91.235 75.3092 91.745C75.6208 92.255 75.5925 92.8783 75.2525 93.4733Z" fill="#004CFE"/>
<path d="M159.596 193.666C160.715 192.728 162.23 193.02 163.573 192.943C183.435 193.037 203.298 192.865 223.151 193.037C226.896 193.287 226.759 199.529 222.97 199.529C202.592 199.65 182.196 199.572 161.817 199.563C158.64 199.985 157.133 195.44 159.596 193.666Z" fill="#222222"/>
<path d="M99.3208 374.56C106.389 374.233 113.501 374.448 120.595 374.448C124.03 374.388 127.009 377.505 127 380.905C127.138 384.375 124.116 387.603 120.612 387.552C113.966 387.629 107.302 387.612 100.647 387.569C97.3836 387.724 94.3703 385.029 94.0518 381.809C93.5524 378.495 95.9975 375.085 99.3208 374.56Z" fill="#222222"/>
<path d="M124.805 23.5767C129.144 20.6323 134.62 21.6654 139.544 21.5018C212.992 21.5621 359.879 21.5018 359.879 21.5018C359.879 21.5018 370.322 20.6151 374.756 23.439C378.906 25.953 380.963 35.63 380.963 35.63C380.963 35.63 380.825 133.925 381.006 183.068C370.494 183.119 359.991 182.982 349.487 183.111C345.948 183.05 342.918 186.288 343.064 189.792C343.004 212.176 343.03 234.578 343.047 256.963C342.858 260.493 345.793 263.954 349.444 263.825C359.973 263.997 370.511 263.808 381.041 263.902C380.688 287.139 381.058 310.385 380.903 333.613C380.912 340.226 375.135 346.175 368.514 346.295C354.541 346.528 340.559 346.192 326.586 346.442C326.534 330.084 326.594 313.734 326.56 297.376C326.913 293.459 323.383 289.886 319.448 290.308C252.57 290.299 185.691 290.316 118.821 290.299C118.787 242.947 118.864 195.586 118.778 148.234C118.744 110.447 118.778 72.6509 118.761 34.8638C118.795 30.3955 120.939 25.9443 124.805 23.5767ZM137.03 36.646C133.983 37.9804 135.136 43.1461 138.554 42.8534C147.758 42.9653 156.97 42.8276 166.174 42.9137C167.844 42.8706 170.031 43.1203 170.978 41.3812C172.699 39.2546 170.513 35.9572 167.93 36.293C158.149 36.2671 148.369 36.2413 138.597 36.3016C138.21 36.3877 137.426 36.5599 137.03 36.646ZM220.663 36.8268C218.545 38.2387 219.174 42.7501 222.109 42.6812C226.406 42.9481 230.745 43.0084 235.041 42.664C237.167 42.5435 238.269 39.6248 237.055 37.9718C235.928 36.1122 233.491 36.4221 231.632 36.3102C227.981 36.4135 224.245 35.983 220.663 36.8268ZM247.37 36.7751C246.113 37.6705 245.243 39.4354 246.104 40.8818C246.836 43.0772 249.591 42.6898 251.425 42.8448C255.067 42.7329 258.82 43.2408 262.385 42.3368C265.097 40.9077 263.909 36.3188 260.826 36.4652C256.358 36.293 251.786 35.9916 247.37 36.7751ZM273.964 36.7665C271.278 37.791 271.683 42.4918 274.627 42.6382C278.924 42.9998 283.271 42.9739 287.567 42.6812C291.08 42.7329 291.166 36.3532 287.576 36.4996C283.065 36.336 278.398 35.8711 273.964 36.7665ZM139.699 53.202C136.54 54.1405 134.895 57.524 135.214 60.6578C135.283 79.3232 135.171 97.9886 135.265 116.654C135.463 132.496 146.862 147.252 161.998 151.721C168.619 153.976 175.678 153.365 182.549 153.425C239.07 153.434 295.6 153.391 352.13 153.451C354.971 153.348 358.294 153.89 360.585 151.772C362.384 150.395 362.875 148.053 362.823 145.909C362.771 117.179 362.84 88.4493 362.797 59.7194C363.047 56.4995 360.61 53.3226 357.365 52.9696C353.904 52.5821 350.417 52.8576 346.956 52.806C280.955 52.806 214.964 52.8146 148.963 52.7974C145.881 52.849 142.73 52.5047 139.699 53.202ZM141.481 172.073C139.295 175.087 140.13 179.323 140.526 182.784C142.403 185.866 146.837 184.523 149.841 184.652C152.235 184.876 153.647 182.517 153.423 180.364C153.311 177.644 154.06 174.286 152.054 172.099C148.662 171.118 144.899 171.307 141.481 172.073ZM242.178 172.091C240.835 172.779 240.964 174.673 240.783 175.973C240.809 178.608 240.293 181.587 241.756 183.937C244.959 185.255 248.73 184.884 252.105 184.402C254.559 183.154 253.896 179.977 254.059 177.73C253.93 175.724 254.378 172.883 252.096 171.91C248.851 171.333 245.364 171.178 242.178 172.091ZM156.858 178.048C156.789 179.15 156.72 180.252 156.651 181.363C183.616 181.466 210.59 181.57 237.555 181.303C237.503 180.235 237.46 179.168 237.417 178.1C210.564 178.074 183.711 178.177 156.858 178.048ZM270.615 183.3C267.344 183.972 265.226 187.355 265.518 190.592C265.57 212.719 265.501 234.845 265.562 256.972C265.398 260.527 268.299 264.066 272.036 263.816C287.826 263.928 303.616 263.859 319.405 263.859C323.28 264.281 326.801 260.837 326.543 256.972C326.612 235.155 326.508 213.339 326.586 191.531C326.603 189.146 326.431 186.4 324.399 184.798C322.178 182.586 318.803 183.145 315.97 183.05C300.852 183.283 285.708 182.749 270.615 183.3ZM145.244 188.087C145.072 211.117 145.072 234.165 145.244 257.204C146.019 257.213 147.568 257.239 148.343 257.247C148.481 234.174 148.524 211.092 148.317 188.027C147.543 188.035 146.01 188.07 145.244 188.087ZM245.708 188.182C245.923 211.238 245.458 234.311 245.932 257.359C246.69 257.316 248.205 257.23 248.962 257.187C249.04 234.122 249.126 211.057 248.919 188.001C247.843 188.053 246.767 188.121 245.708 188.182ZM159.596 193.666C157.134 195.44 158.64 199.985 161.817 199.564C182.196 199.572 202.592 199.65 222.97 199.529C226.759 199.529 226.896 193.287 223.151 193.037C203.298 192.865 183.436 193.037 163.573 192.943C162.23 193.02 160.715 192.728 159.596 193.666ZM160.353 208.13C157.047 209.352 158.244 214.897 161.808 214.449C184.486 214.604 207.181 214.441 229.867 214.518C231.907 214.871 234.18 213.554 234.171 211.315C234.447 208.982 231.941 207.596 229.892 207.846C209.789 207.786 189.686 207.906 169.583 207.829C166.509 207.863 163.393 207.536 160.353 208.13ZM160.371 221.173C158.038 222.103 157.753 225.736 159.828 227.088C160.956 227.734 162.351 227.544 163.608 227.665C177.943 227.605 192.286 227.605 206.621 227.699C207.981 227.656 209.359 227.665 210.693 227.364C212.605 226.563 213.405 223.834 211.993 222.241C210.952 220.777 209.014 221.036 207.456 220.949C195.127 220.984 182.798 220.95 170.47 220.984C167.103 221.036 163.711 220.674 160.371 221.173ZM163.074 241.061C160.638 241.741 158.683 243.98 158.416 246.511C157.796 250.093 160.732 253.864 164.4 253.932C171.305 254.036 178.218 254.01 185.123 253.941C189.066 253.924 192.321 249.567 191.141 245.788C190.375 242.792 187.43 240.553 184.305 240.812C177.237 240.941 170.117 240.476 163.074 241.061ZM142.36 260.846C139.665 261.664 140.268 265.133 140.104 267.312C140.259 269.395 139.673 272.383 142.05 273.433C144.942 274.13 148.025 273.975 150.952 273.597C153.871 273.011 153.354 269.533 153.483 267.303C153.337 265.099 153.939 261.647 151.202 260.82C148.283 260.381 145.27 260.398 142.36 260.846ZM243.099 260.811C241.705 261.07 240.913 262.516 240.887 263.842C240.706 266.606 240.448 269.507 241.274 272.193C242.66 274.414 245.786 273.683 247.998 273.881C250.004 273.803 253.147 274.096 253.758 271.565C254.068 268.396 254.507 264.927 253.362 261.896C250.564 259.632 246.423 260.648 243.099 260.811ZM156.669 265.59C156.694 266.657 156.72 267.734 156.755 268.818C183.659 268.827 210.573 268.853 237.477 268.793C237.503 267.742 237.538 266.683 237.563 265.633C210.599 265.478 183.634 265.555 156.669 265.59Z" fill="white"/>
<path d="M162.997 86.0558C164.607 85.7114 166.268 85.7545 167.913 85.7286C181.696 85.8492 195.489 85.6684 209.273 85.8147C212.312 85.6942 215.274 87.7949 215.893 90.8255C217.073 94.915 213.362 99.2025 209.195 98.9184C194.86 98.9959 180.517 98.9098 166.182 98.9528C163.418 99.0648 160.233 98.1177 159.028 95.3885C157.202 91.9016 159.157 87.0889 162.997 86.0558Z" fill="white"/>
<path d="M224.141 86.03C227.749 85.479 231.416 85.8578 235.058 85.7372C238.089 85.7889 241.739 85.324 243.995 87.8552C247.292 91.1268 245.682 97.6442 241.042 98.6343C237.081 99.28 233.043 98.8323 229.057 98.9787C226.164 98.9959 222.66 99.082 220.775 96.4561C217.873 93.0123 219.793 87.1234 224.141 86.03Z" fill="white"/>
<path d="M371.346 213.218C372.19 210.351 376.762 210.506 377.502 213.356C377.881 215.887 377.64 218.453 377.683 221.001C380.24 221.044 382.832 220.786 385.371 221.199C386.8 221.544 387.171 223.145 387.928 224.204C387.231 225.314 386.955 226.968 385.518 227.372C382.943 227.872 380.283 227.553 377.683 227.613C377.58 230.282 378.01 233.029 377.373 235.646C376.349 238.298 372.018 238.048 371.303 235.319C370.942 232.762 371.157 230.179 371.131 227.613C368.557 227.579 365.974 227.811 363.434 227.424C360.481 226.666 360.524 221.974 363.408 221.182C365.965 220.812 368.557 221.036 371.131 221.001C371.174 218.41 370.89 215.775 371.346 213.218Z" fill="white"/>
<path d="M214.456 319.726C214.318 312.865 220.456 306.821 227.275 306.812C242.772 306.735 258.287 306.76 273.792 306.803C279.862 306.692 285.604 311.332 286.715 317.298C287.137 320.122 286.948 322.981 286.973 325.822C286.948 351.358 286.982 376.893 286.948 402.429C262.781 402.472 238.605 402.438 214.43 402.438C214.447 374.87 214.395 347.294 214.456 319.726ZM224.968 315.775C221.997 317.445 221.877 322.206 224.761 324.031C227.292 325.934 231.511 324.66 232.277 321.5C233.991 317.385 228.584 313.131 224.968 315.775ZM224.959 339.967C222.893 340.544 222.566 342.938 222.652 344.763C222.678 354.517 222.669 364.28 222.652 374.035C222.755 375.55 222.583 377.341 223.711 378.555C224.994 379.468 226.681 379.261 228.171 379.382C243.091 379.313 258.011 379.39 272.923 379.338C275.041 379.631 277.262 378.116 277.021 375.826C277.124 365.46 277.021 355.094 277.072 344.737C277.193 342.834 276.754 340.182 274.429 339.924C268.213 339.502 261.971 339.898 255.747 339.769C245.484 339.916 235.196 339.485 224.959 339.967ZM224.133 386.493C221.834 388.155 222.807 391.452 222.669 393.88C222.454 395.938 224.348 397.754 226.397 397.487C241.894 397.513 257.391 397.479 272.888 397.505C274.464 397.634 276.427 397.04 276.866 395.326C277.219 393.148 277.159 390.91 276.978 388.723C276.943 386.734 274.696 385.735 272.957 385.925C258.02 385.908 243.091 385.968 228.162 385.899C226.81 385.968 225.338 385.744 224.133 386.493Z" fill="white"/>
<path d="M97.6763 309.137C98.8816 308.517 100.251 308.439 101.585 308.422C115.644 308.448 129.712 308.456 143.78 308.422C146.105 308.336 148.679 308.809 150.186 310.764C153.759 314.518 150.84 321.543 145.623 321.552C130.952 321.741 116.273 321.56 101.602 321.638C99.0624 321.801 96.3935 320.802 95.0246 318.564C92.9066 315.43 94.2153 310.695 97.6763 309.137Z" fill="white"/>
<path d="M96.7379 336.575C124.417 336.377 152.123 336.48 179.82 336.523C183.892 336.205 184.116 342.989 180.078 343.006C153.345 343.23 126.587 342.998 99.8459 343.118C98.1499 343.015 96.1008 343.368 94.818 341.99C93.1305 340.234 94.2153 336.765 96.7379 336.575Z" fill="white"/>
<path d="M95.653 350.066C96.9703 349.438 98.4856 349.722 99.8975 349.636C121.731 349.748 143.573 349.532 165.407 349.739C169.126 349.937 169.032 356.076 165.338 356.196C142.652 356.36 119.949 356.282 97.263 356.239C93.9484 356.472 92.8119 351.521 95.653 350.066Z" fill="white"/>
<path d="M343.064 189.792C342.918 186.288 345.949 183.05 349.487 183.111C359.991 182.982 370.494 183.119 381.006 183.068C386.603 183.137 392.199 182.93 397.795 183.128C400.645 183.111 403.004 185.298 403.882 187.898C404.45 211.436 403.934 235.043 404.14 258.599C403.228 261.009 401.445 263.515 398.656 263.721C392.793 264.143 386.913 263.799 381.041 263.902C370.511 263.808 359.973 263.997 349.444 263.825C345.794 263.954 342.858 260.493 343.047 256.963C343.03 234.578 343.004 212.176 343.064 189.792ZM371.347 213.218C370.89 215.775 371.174 218.41 371.131 221.001C368.557 221.036 365.966 220.812 363.409 221.182C360.524 221.974 360.481 226.666 363.434 227.424C365.974 227.811 368.557 227.579 371.131 227.613C371.157 230.179 370.942 232.762 371.304 235.319C372.018 238.048 376.349 238.298 377.373 235.646C378.01 233.029 377.58 230.282 377.683 227.613C380.283 227.553 382.944 227.871 385.518 227.372C386.956 226.967 387.231 225.314 387.928 224.204C387.171 223.145 386.801 221.544 385.371 221.199C382.832 220.786 380.24 221.044 377.683 221.001C377.64 218.453 377.881 215.887 377.502 213.356C376.762 210.506 372.19 210.351 371.347 213.218Z" fill="#004CFE"/>
<path d="M137.03 36.6459C137.426 36.5598 138.21 36.3876 138.597 36.3016C148.369 36.2413 158.149 36.2671 167.93 36.2929C170.513 35.9572 172.699 39.2546 170.977 41.3812C170.03 43.1203 167.844 42.8706 166.173 42.9136C156.97 42.8276 147.758 42.9653 138.554 42.8534C135.136 43.1461 133.982 37.9804 137.03 36.6459Z" fill="#1C85E8"/>
<path d="M163.746 107.33C171.735 107.02 179.759 107.261 187.766 107.209C191.813 106.917 195.36 110.972 194.525 114.949C194.068 118.187 190.891 120.623 187.671 120.425C180.224 120.442 172.777 120.434 165.33 120.425C162.084 120.649 158.89 118.212 158.459 114.958C157.736 111.514 160.259 107.838 163.746 107.33Z" fill="#1C85E8"/>
<path d="M163.074 241.061C170.117 240.476 177.237 240.941 184.305 240.812C187.43 240.553 190.375 242.792 191.141 245.788C192.32 249.568 189.066 253.924 185.123 253.941C178.218 254.01 171.305 254.036 164.4 253.933C160.732 253.864 157.796 250.093 158.416 246.511C158.683 243.98 160.638 241.741 163.074 241.061Z" fill="#1C85E8"/>
<path d="M77.5473 297.385C77.2202 294.173 79.5361 291.324 82.4892 290.342C94.5941 290.308 106.708 290.299 118.821 290.299C185.691 290.316 252.57 290.299 319.448 290.308C323.383 289.886 326.913 293.459 326.56 297.376C326.594 313.734 326.534 330.084 326.586 346.442C326.612 355.077 326.543 363.712 326.577 372.339C326.543 380.329 326.646 388.318 326.534 396.308C326.448 399.872 323.004 402.722 319.5 402.438C308.652 402.455 297.796 402.455 286.948 402.429C286.982 376.893 286.948 351.358 286.973 325.822C286.948 322.981 287.137 320.122 286.715 317.298C285.604 311.332 279.862 306.692 273.792 306.803C258.287 306.76 242.772 306.735 227.275 306.812C220.456 306.821 214.318 312.865 214.456 319.726C214.395 347.294 214.447 374.87 214.43 402.438C171.038 402.438 127.646 402.472 84.2627 402.421C80.6037 402.636 77.3063 399.287 77.5559 395.636C77.5301 362.886 77.5473 330.135 77.5473 297.385ZM97.6763 309.137C94.2153 310.695 92.9067 315.43 95.0246 318.564C96.3935 320.803 99.0625 321.801 101.602 321.638C116.273 321.56 130.952 321.741 145.623 321.552C150.84 321.543 153.759 314.518 150.186 310.764C148.679 308.809 146.105 308.336 143.78 308.422C129.712 308.456 115.644 308.448 101.585 308.422C100.251 308.439 98.8817 308.517 97.6763 309.137ZM96.7379 336.575C94.2153 336.764 93.1305 340.234 94.818 341.99C96.1008 343.368 98.1499 343.015 99.8459 343.118C126.587 342.998 153.345 343.23 180.078 343.006C184.116 342.989 183.892 336.205 179.82 336.523C152.123 336.48 124.417 336.377 96.7379 336.575ZM95.6531 350.066C92.812 351.521 93.9484 356.472 97.2631 356.239C119.949 356.282 142.652 356.36 165.338 356.196C169.032 356.076 169.127 349.937 165.407 349.739C143.574 349.532 121.731 349.748 99.8976 349.636C98.4856 349.722 96.9704 349.438 95.6531 350.066ZM99.3208 374.56C95.9975 375.085 93.5524 378.495 94.0518 381.809C94.3703 385.029 97.3836 387.724 100.647 387.569C107.302 387.612 113.966 387.629 120.612 387.552C124.116 387.604 127.138 384.375 127 380.905C127.009 377.505 124.03 374.388 120.595 374.448C113.501 374.448 106.389 374.233 99.3208 374.56Z" fill="#004CFE"/>
<path d="M224.968 315.774C228.584 313.131 233.991 317.384 232.277 321.5C231.511 324.659 227.292 325.934 224.761 324.031C221.877 322.206 221.998 317.445 224.968 315.774Z" fill="#1C85E8"/>
<path d="M224.133 386.493C225.338 385.744 226.81 385.968 228.162 385.899C243.091 385.968 258.02 385.908 272.957 385.925C274.696 385.735 276.943 386.734 276.978 388.723C277.159 390.91 277.219 393.148 276.866 395.326C276.427 397.04 274.464 397.634 272.888 397.505C257.391 397.479 241.894 397.513 226.397 397.487C224.348 397.754 222.454 395.938 222.669 393.88C222.807 391.452 221.834 388.155 224.133 386.493Z" fill="#1C85E8"/>
<path d="M220.663 36.8268C224.245 35.9831 227.981 36.4136 231.631 36.3103C233.491 36.4222 235.928 36.1123 237.055 37.9719C238.269 39.6249 237.167 42.5436 235.041 42.6641C230.745 43.0085 226.406 42.9482 222.109 42.6813C219.174 42.7502 218.545 38.2388 220.663 36.8268Z" fill="#EDEDED"/>
<path d="M247.37 36.7752C251.786 35.9917 256.358 36.2931 260.826 36.4653C263.908 36.3189 265.097 40.9078 262.385 42.3369C258.82 43.2409 255.066 42.733 251.425 42.8449C249.591 42.6899 246.836 43.0773 246.104 40.8819C245.243 39.4355 246.113 37.6706 247.37 36.7752Z" fill="#EDEDED"/>
<path d="M273.964 36.7665C278.398 35.8712 283.065 36.3361 287.576 36.4996C291.166 36.3533 291.08 42.7329 287.567 42.6813C283.271 42.974 278.924 42.9998 274.627 42.6382C271.683 42.4919 271.278 37.7911 273.964 36.7665Z" fill="#EDEDED"/>
<path d="M160.353 208.13C163.393 207.536 166.509 207.863 169.583 207.829C189.686 207.906 209.789 207.786 229.892 207.846C231.941 207.596 234.447 208.982 234.171 211.316C234.18 213.554 231.907 214.871 229.866 214.518C207.18 214.441 184.486 214.604 161.808 214.449C158.244 214.897 157.047 209.353 160.353 208.13Z" fill="#EDEDED"/>
<path d="M160.371 221.173C163.711 220.674 167.103 221.036 170.47 220.984C182.798 220.95 195.127 220.984 207.456 220.95C209.014 221.036 210.951 220.777 211.993 222.241C213.405 223.834 212.604 226.563 210.693 227.364C209.359 227.665 207.981 227.656 206.621 227.699C192.286 227.605 177.943 227.605 163.608 227.665C162.351 227.544 160.956 227.734 159.828 227.088C157.753 225.736 158.037 222.103 160.371 221.173Z" fill="#EDEDED"/>
<path d="M139.699 53.202C142.73 52.5046 145.881 52.849 148.963 52.7973C214.964 52.8145 280.955 52.8059 346.956 52.8059C350.417 52.8576 353.904 52.5821 357.365 52.9695C360.611 53.3225 363.047 56.4994 362.797 59.7194C362.84 88.4493 362.771 117.179 362.823 145.909C362.875 148.053 362.384 150.395 360.585 151.772C358.295 153.89 354.971 153.348 352.13 153.451C295.6 153.391 239.07 153.434 182.549 153.425C175.678 153.365 168.619 153.976 161.998 151.72C146.862 147.252 135.463 132.495 135.265 116.654C135.171 97.9886 135.283 79.3232 135.214 60.6578C134.895 57.5239 136.54 54.1404 139.699 53.202ZM162.997 86.0558C159.157 87.089 157.202 91.9017 159.028 95.3885C160.233 98.1177 163.419 99.0648 166.182 98.9529C180.517 98.9098 194.86 98.9959 209.195 98.9184C213.362 99.2025 217.073 94.915 215.893 90.8255C215.274 87.7949 212.312 85.6942 209.273 85.8147C195.489 85.6684 181.697 85.8492 167.913 85.7287C166.268 85.7545 164.607 85.7114 162.997 86.0558ZM224.141 86.03C219.794 87.1234 217.874 93.0123 220.775 96.4561C222.66 99.082 226.165 98.9959 229.057 98.9787C233.044 98.8323 237.081 99.28 241.042 98.6343C245.682 97.6442 247.292 91.1268 243.995 87.8552C241.739 85.324 238.089 85.7889 235.058 85.7373C231.416 85.8578 227.749 85.479 224.141 86.03ZM163.746 107.33C160.259 107.838 157.736 111.514 158.459 114.958C158.89 118.212 162.084 120.649 165.33 120.425C172.777 120.434 180.224 120.442 187.672 120.425C190.891 120.623 194.068 118.186 194.525 114.949C195.36 110.972 191.813 106.917 187.766 107.209C179.759 107.261 171.735 107.02 163.746 107.33Z" fill="#D2E7FA"/>
<path d="M141.482 172.073C144.9 171.307 148.662 171.118 152.054 172.099C154.06 174.286 153.311 177.644 153.423 180.364C153.647 182.517 152.235 184.876 149.841 184.652C146.837 184.523 142.403 185.866 140.526 182.784C140.13 179.323 139.295 175.087 141.482 172.073Z" fill="#D2E7FA"/>
<path d="M242.178 172.091C245.364 171.178 248.851 171.333 252.096 171.91C254.378 172.883 253.93 175.724 254.059 177.73C253.896 179.977 254.559 183.154 252.105 184.402C248.73 184.884 244.959 185.254 241.756 183.937C240.293 181.587 240.809 178.608 240.784 175.973C240.964 174.673 240.835 172.779 242.178 172.091Z" fill="#D2E7FA"/>
<path d="M156.858 178.048C183.711 178.177 210.564 178.074 237.417 178.1C237.46 179.168 237.503 180.235 237.555 181.303C210.59 181.57 183.616 181.466 156.651 181.363C156.72 180.252 156.789 179.15 156.858 178.048Z" fill="#D2E7FA"/>
<path d="M270.615 183.3C285.708 182.749 300.852 183.283 315.97 183.05C318.803 183.145 322.178 182.586 324.399 184.798C326.431 186.4 326.603 189.146 326.586 191.531C326.508 213.339 326.612 235.155 326.543 256.972C326.801 260.837 323.28 264.281 319.405 263.859C303.616 263.859 287.826 263.928 272.036 263.816C268.3 264.066 265.398 260.527 265.562 256.972C265.501 234.845 265.57 212.719 265.519 190.592C265.226 187.355 267.344 183.972 270.615 183.3Z" fill="#D2E7FA"/>
<path d="M145.244 188.087C146.01 188.07 147.543 188.035 148.317 188.027C148.524 211.092 148.481 234.174 148.343 257.247C147.568 257.238 146.019 257.213 145.244 257.204C145.072 234.165 145.072 211.117 145.244 188.087Z" fill="#D2E7FA"/>
<path d="M245.708 188.182C246.767 188.121 247.843 188.053 248.92 188.001C249.126 211.057 249.04 234.122 248.963 257.187C248.205 257.23 246.69 257.316 245.932 257.359C245.459 234.311 245.923 211.238 245.708 188.182Z" fill="#D2E7FA"/>
<path d="M142.36 260.846C145.27 260.398 148.283 260.381 151.202 260.82C153.939 261.647 153.337 265.099 153.483 267.303C153.354 269.533 153.871 273.011 150.952 273.597C148.025 273.975 144.943 274.13 142.05 273.433C139.674 272.383 140.259 269.395 140.104 267.312C140.268 265.133 139.665 261.664 142.36 260.846Z" fill="#D2E7FA"/>
<path d="M243.099 260.811C246.423 260.648 250.564 259.632 253.362 261.896C254.507 264.927 254.068 268.396 253.758 271.565C253.147 274.096 250.004 273.803 247.998 273.881C245.786 273.683 242.66 274.414 241.274 272.193C240.448 269.507 240.706 266.606 240.887 263.842C240.913 262.516 241.705 261.07 243.099 260.811Z" fill="#D2E7FA"/>
<path d="M156.669 265.59C183.634 265.555 210.599 265.478 237.564 265.633C237.538 266.683 237.503 267.742 237.477 268.792C210.573 268.853 183.659 268.827 156.755 268.818C156.72 267.734 156.695 266.657 156.669 265.59Z" fill="#D2E7FA"/>
<path d="M224.959 339.967C235.196 339.485 245.484 339.916 255.747 339.769C261.971 339.898 268.213 339.502 274.429 339.924C276.754 340.182 277.193 342.834 277.073 344.737C277.021 355.094 277.124 365.46 277.021 375.826C277.262 378.116 275.041 379.631 272.923 379.338C258.011 379.39 243.091 379.313 228.171 379.381C226.681 379.261 224.994 379.468 223.711 378.555C222.583 377.341 222.755 375.55 222.652 374.035C222.669 364.28 222.678 354.517 222.652 344.763C222.566 342.937 222.893 340.544 224.959 339.967Z" fill="#D2E7FA"/>
</svg>
