<?xml version="1.0" encoding="UTF-8"?>
<svg width="341px" height="115px" viewBox="0 0 341 115" version="1.1" xmlns="http://www.w3.org/2000/svg" xmlns:xlink="http://www.w3.org/1999/xlink">
    <!-- Generator: Sketch 55.2 (78181) - https://sketchapp.com -->
    <title>Adflow logo Copy 2</title>
    <desc>Created with Sketch.</desc>
    <g id="Adflow-logo-Copy-2" stroke="none" stroke-width="1" fill="none" fill-rule="evenodd">
        <g id="Group-2" transform="translate(21.000000, 19.000000)">
            <g id="Group">
                <path d="M54.4356152,28 L91.2861177,28 C94.0475414,28 96.2861177,30.2385763 96.2861177,33 C96.2861177,34.1295532 95.9036486,35.2258254 95.2010119,36.1102417 L66.2774856,72.5165914 C64.3804197,74.9044483 61.4974053,76.296108 58.4476971,76.296108 L22.2197714,76.296108 C19.4583477,76.296108 17.2197714,74.0575318 17.2197714,71.296108 C17.2197714,70.1846819 17.5900809,69.1049364 18.2721984,68.2274492 L46.5404691,31.8626823 C48.4349569,29.4255822 51.3487818,28 54.4356152,28 Z" id="Path-Copy" fill="#CFDCFF"></path>
                <path d="M42.4356152,-1.10134124e-13 L79.2861177,-1.10134124e-13 C82.0475414,-1.13053441e-13 84.2861177,2.23857625 84.2861177,5 C84.2861177,6.12955324 83.9036486,7.22582538 83.2010119,8.11024167 L54.2774856,44.5165914 C52.3804197,46.9044483 49.4974053,48.296108 46.4476971,48.296108 L10.2197714,48.296108 C7.45834769,48.296108 5.21977144,46.0575318 5.21977144,43.296108 C5.21977144,42.1846819 5.59008087,41.1049364 6.2721984,40.2274492 L34.5404691,3.86268232 C36.4349569,1.42558224 39.3487818,-1.06014368e-13 42.4356152,-1.10134124e-13 Z" id="Path" fill="#004CFE"></path>
            </g>
            <path d="M131.07,45.63 L127.92,54 L119.955,54 L133.725,18.45 L143.535,18.45 L156.54,54 L148.44,54 L145.425,45.63 L131.07,45.63 Z M143.085,39.195 L139.305,28.26 L138.495,25.335 L137.64,28.305 L133.59,39.195 L143.085,39.195 Z M169.340455,28.98 C173.030455,28.98 176.495455,29.88 178.295455,32.22 L178.295455,18.27 L185.540455,18.27 L185.540455,50.805 C185.540455,52.11 185.765455,54 185.765455,54 L179.060455,54 L178.295455,50.4 C177.395455,52.47 174.020455,54.36 169.250455,54.36 C165.200455,54.36 162.185455,53.1 160.115455,50.67 C158.315455,48.555 157.325455,45.81 157.325455,41.985 C157.325455,37.89 158.450455,34.965 160.340455,32.76 C162.185455,30.645 165.695455,28.98 169.340455,28.98 Z M171.725455,35.235 C169.115455,35.235 167.225455,35.955 166.055455,37.305 C165.110455,38.43 164.660455,39.96 164.660455,41.805 C164.660455,43.335 164.975455,44.685 165.650455,45.765 C166.730455,47.385 168.620455,48.42 171.725455,48.42 C173.975455,48.42 175.685455,47.7 176.810455,46.485 C177.935455,45.315 178.520455,43.65 178.520455,41.805 C178.520455,39.735 177.935455,38.025 176.720455,36.9 C175.595455,35.82 173.930455,35.235 171.725455,35.235 Z M188.30591,35.325 L188.30591,29.25 L192.35591,29.25 L192.35591,25.38 C192.35591,21.15 194.60591,17.865 200.41091,17.865 C202.03091,17.865 205.85591,18.045 206.53091,18.135 L206.53091,23.895 C206.03591,23.805 203.92091,23.67 203.02091,23.67 C200.45591,23.67 199.60091,24.795 199.60091,26.415 L199.60091,29.34 L206.44091,29.34 L206.44091,35.325 L199.69091,35.325 L199.69091,54 L192.35591,54 L192.35591,35.325 L188.30591,35.325 Z M216.61091,54 L209.32091,54 C209.05091,53.91 208.91591,53.055 208.91591,51.975 L208.91591,20.97 C208.91591,19.71 208.82591,18.585 208.78091,18.225 L215.98091,18.225 C216.07091,18.585 216.16091,19.44 216.16091,20.565 L216.16091,51.705 C216.16091,52.875 216.25091,53.82 216.61091,54 Z M248.941365,41.535 C248.941365,45.135 247.861365,48.15 245.791365,50.355 C243.316365,52.965 239.491365,54.405 234.541365,54.405 C229.636365,54.405 225.766365,53.055 223.246365,50.4 C221.266365,48.24 220.141365,45.315 220.141365,41.535 C220.141365,38.16 221.176365,35.055 223.336365,32.76 C225.676365,30.24 229.366365,28.665 234.631365,28.665 C239.761365,28.665 243.406365,30.15 245.701365,32.535 C247.906365,34.83 248.941365,38.025 248.941365,41.535 Z M241.876365,41.58 C241.876365,39.69 241.516365,38.07 240.526365,36.9 C239.401365,35.64 237.556365,34.875 234.631365,34.875 C231.796365,34.875 229.861365,35.775 228.691365,37.305 C227.791365,38.43 227.386365,39.915 227.386365,41.58 C227.386365,43.515 227.791365,45 228.556365,46.035 C229.771365,47.7 231.841365,48.375 234.631365,48.375 C237.241365,48.375 239.356365,47.61 240.571365,45.99 C241.426365,44.91 241.876365,43.425 241.876365,41.58 Z M272.136811,36.4050747 C272.135024,36.4199651 271.86667,38.6558992 271.82182,38.925 C271.77682,39.78 266.91682,54 266.91682,54 L258.36682,54 L249.50182,29.25 L257.01682,29.25 L262.95682,47.655 L268.40182,29.25 L276.41182,29.25 L281.99182,47.655 L287.79682,29.25 L294.86182,29.25 L285.90682,54 L277.40182,54 C277.40182,54 272.54182,39.78 272.45182,38.97 C272.406966,38.6560229 272.138571,36.4195928 272.136829,36.405071 L272.136811,36.4050747 Z" id="Adfow" fill="#000000" fill-rule="nonzero"></path>
        </g>
    </g>
</svg>