<svg width="45" height="20" viewBox="0 0 45 20" fill="none" xmlns="http://www.w3.org/2000/svg">
<rect width="45" height="20" rx="10" fill="#D9E4FF"/>
<path d="M10 11.2084C10 10.8233 10.1242 10.5159 10.3727 10.2861C10.6211 10.0501 10.9503 9.90413 11.3602 9.84823L12.5713 9.67122C12.8011 9.64017 12.916 9.52837 12.916 9.33583C12.916 9.09982 12.8353 8.90728 12.6738 8.75822C12.5123 8.60916 12.2701 8.53463 11.9471 8.53463C11.649 8.53463 11.413 8.61847 11.2391 8.78617C11.0652 8.94765 10.9627 9.16503 10.9316 9.43831L10.0932 9.24267C10.1366 8.81412 10.3323 8.46631 10.6801 8.19924C11.0279 7.92596 11.444 7.78932 11.9285 7.78932C12.562 7.78932 13.0309 7.94459 13.3353 8.25514C13.6396 8.55947 13.7918 8.95076 13.7918 9.429V11.6742C13.7918 11.9413 13.8104 12.1866 13.8477 12.4102H12.9905C12.9595 12.2239 12.944 12.022 12.944 11.8047C12.8197 12.0034 12.6365 12.1773 12.3943 12.3264C12.1583 12.4754 11.8602 12.55 11.4999 12.55C11.059 12.55 10.6987 12.4195 10.4192 12.1587C10.1397 11.8916 10 11.5749 10 11.2084ZM11.621 11.814C12.0123 11.814 12.326 11.7084 12.562 11.4972C12.798 11.2861 12.916 10.9507 12.916 10.4911V10.2861L11.5465 10.4911C11.3478 10.5221 11.1894 10.5935 11.0714 10.7053C10.9534 10.8171 10.8944 10.9693 10.8944 11.1618C10.8944 11.3357 10.9596 11.4879 11.09 11.6183C11.2267 11.7488 11.4037 11.814 11.621 11.814Z" fill="#004CFE"/>
<path d="M15.6777 10.1557C15.6777 10.6277 15.7926 11.0128 16.0224 11.3109C16.2585 11.609 16.5814 11.7581 16.9913 11.7581C17.3826 11.7581 17.6963 11.6059 17.9323 11.3016C18.1683 10.9972 18.2863 10.6091 18.2863 10.137C18.2863 9.67122 18.1714 9.29546 17.9416 9.00976C17.7118 8.72406 17.3982 8.58121 17.0007 8.58121C16.6032 8.58121 16.2833 8.72717 16.0411 9.01908C15.7988 9.31099 15.6777 9.68985 15.6777 10.1557ZM18.2956 11.8047V11.7301C18.1776 11.9599 17.9975 12.1525 17.7553 12.3078C17.5193 12.4568 17.2367 12.5313 16.9075 12.5313C16.2678 12.5313 15.7523 12.3078 15.361 11.8606C14.9759 11.4072 14.7834 10.8389 14.7834 10.1557C14.7834 9.50353 14.9821 8.95076 15.3796 8.49736C15.7771 8.03775 16.2864 7.80795 16.9075 7.80795C17.2739 7.80795 17.5721 7.88248 17.8019 8.03154C18.0317 8.17439 18.19 8.35141 18.277 8.56258V5.66519H19.1434V11.5811C19.1434 11.8854 19.1589 12.1618 19.19 12.4102H18.3422C18.3112 12.2363 18.2956 12.0345 18.2956 11.8047Z" fill="#004CFE"/>
<path d="M21.4994 12.4102H20.633V7.92906H21.4715V8.52531C21.6081 8.2893 21.8007 8.10918 22.0491 7.98496C22.2975 7.86074 22.5584 7.79863 22.8317 7.79863C23.1236 7.79863 23.3907 7.87006 23.6329 8.01291C23.8751 8.15576 24.0552 8.36693 24.1732 8.64642C24.4838 8.08123 24.9838 7.79863 25.6732 7.79863C26.1017 7.79863 26.4651 7.94459 26.7632 8.2365C27.0675 8.52842 27.2197 8.95076 27.2197 9.50353V12.4102H26.3533V9.59669C26.3533 9.28615 26.2725 9.03771 26.111 8.85138C25.9558 8.66506 25.7197 8.57189 25.403 8.57189C25.0987 8.57189 24.8502 8.68058 24.6577 8.89796C24.4651 9.10914 24.3689 9.3762 24.3689 9.69917V12.4102H23.4931V9.59669C23.4931 9.28615 23.4124 9.03771 23.2509 8.85138C23.0956 8.66506 22.8596 8.57189 22.5429 8.57189C22.2323 8.57189 21.9808 8.67748 21.7882 8.88865C21.5957 9.09982 21.4994 9.3731 21.4994 9.70849V12.4102Z" fill="#004CFE"/>
<path d="M29.4875 12.4102H28.6211V7.92906H29.4875V12.4102ZM28.6024 6.68067C28.4844 6.55645 28.4254 6.40739 28.4254 6.23349C28.4254 6.05958 28.4844 5.91052 28.6024 5.7863C28.7266 5.66208 28.8757 5.59998 29.0496 5.59998C29.2235 5.59998 29.3726 5.66208 29.4968 5.7863C29.621 5.90431 29.6831 6.05337 29.6831 6.23349C29.6831 6.40739 29.621 6.55645 29.4968 6.68067C29.3726 6.79868 29.2235 6.85768 29.0496 6.85768C28.8757 6.85768 28.7266 6.79868 28.6024 6.68067Z" fill="#004CFE"/>
<path d="M31.8532 9.82028V12.4102H30.9774V7.92906H31.8345V8.57189C32.1327 8.05639 32.5923 7.79863 33.2134 7.79863C33.7289 7.79863 34.1233 7.96322 34.3965 8.2924C34.676 8.62158 34.8158 9.04703 34.8158 9.56874V12.4102H33.94V9.7178C33.94 8.96628 33.5922 8.59053 32.8966 8.59053C32.5674 8.59053 32.3097 8.70853 32.1234 8.94455C31.9432 9.17435 31.8532 9.46626 31.8532 9.82028Z" fill="#004CFE"/>
</svg>
