<svg width="17" height="10" viewBox="0 0 17 10" fill="none" xmlns="http://www.w3.org/2000/svg">
<path d="M0.93934 7.43934C0.353553 8.02513 0.353553 8.97487 0.93934 9.56066C1.52513 10.1464 2.47487 10.1464 3.06066 9.56066L0.93934 7.43934ZM8.5 2L9.56066 0.93934C8.97487 0.353553 8.02513 0.353553 7.43934 0.93934L8.5 2ZM13.9393 9.56066C14.5251 10.1464 15.4749 10.1464 16.0607 9.56066C16.6464 8.97487 16.6464 8.02513 16.0607 7.43934L13.9393 9.56066ZM3.06066 9.56066L9.56066 3.06066L7.43934 0.93934L0.93934 7.43934L3.06066 9.56066ZM7.43934 3.06066L13.9393 9.56066L16.0607 7.43934L9.56066 0.93934L7.43934 3.06066Z" fill="#004CFE"/>
</svg>
