<svg width="17" height="10" viewBox="0 0 17 10" fill="none" xmlns="http://www.w3.org/2000/svg">
<path d="M16.0607 3.06054C16.6464 2.47475 16.6464 1.525 16.0607 0.939218C15.4749 0.353431 14.5251 0.353431 13.9393 0.939218L16.0607 3.06054ZM8.5 8.49988L7.43934 9.56054C8.02513 10.1463 8.97487 10.1463 9.56066 9.56054L8.5 8.49988ZM3.06066 0.939218C2.47487 0.353431 1.52513 0.353431 0.93934 0.939218C0.353553 1.525 0.353553 2.47475 0.93934 3.06054L3.06066 0.939218ZM13.9393 0.939218L7.43934 7.43922L9.56066 9.56054L16.0607 3.06054L13.9393 0.939218ZM9.56066 7.43922L3.06066 0.939218L0.93934 3.06054L7.43934 9.56054L9.56066 7.43922Z" fill="#004CFE"/>
</svg>
