<?xml version="1.0" encoding="UTF-8"?>
<svg width="80px" height="66px" viewBox="0 0 80 66" version="1.1" xmlns="http://www.w3.org/2000/svg" xmlns:xlink="http://www.w3.org/1999/xlink">
    <!-- Generator: Sketch 55.2 (78181) - https://sketchapp.com -->
    <title>iconfinder_arrow-left_227602</title>
    <desc>Created with Sketch.</desc>
    <g id="Page-1" stroke="none" stroke-width="1" fill="none" fill-rule="evenodd">
        <g id="iconfinder_arrow-left_227602" transform="translate(40.000000, 33.000000) scale(-1, 1) translate(-40.000000, -33.000000) " fill="#FFFFFF" fill-rule="nonzero">
            <path d="M76,29 L13.656,29 L35.112,7.544 C36.674,5.982 36.674,3.449 35.113,1.887 C33.551,0.325 31.017,0.325 29.455,1.887 L1.172,30.171 L1.172,30.171 C0.986,30.357 0.82,30.562 0.674,30.781 C0.607,30.882 0.56,30.991 0.503,31.096 C0.436,31.22 0.361,31.338 0.307,31.469 C0.251,31.604 0.219,31.745 0.178,31.885 C0.146,31.996 0.103,32.102 0.08,32.216 C0.028,32.475 0,32.737 0,33 L0,33 C0,33.003 0.001,33.005 0.001,33.008 C0.001,33.267 0.028,33.527 0.079,33.782 C0.103,33.903 0.148,34.014 0.183,34.131 C0.222,34.264 0.253,34.399 0.306,34.528 C0.364,34.667 0.442,34.793 0.514,34.924 C0.568,35.022 0.61,35.122 0.673,35.216 C0.82,35.437 0.987,35.643 1.174,35.83 L29.456,64.111 C31.018,65.673 33.551,65.673 35.113,64.112 C36.675,62.55 36.675,60.016 35.113,58.454 L13.657,37 L76,37 C78.209,37 80,35.209 80,33 C80,30.791 78.209,29 76,29 Z" id="Path"></path>
        </g>
    </g>
</svg>