<svg style="transform: rotate(180deg)" width="18" height="17" viewBox="0 0 18 17" fill="none" xmlns="http://www.w3.org/2000/svg">
<path d="M3.06066 0.93934C2.47487 0.353553 1.52513 0.353553 0.93934 0.93934C0.353553 1.52513 0.353553 2.47487 0.93934 3.06066L3.06066 0.93934ZM8.5 8.5L9.56066 9.56066C10.1464 8.97487 10.1464 8.02513 9.56066 7.43934L8.5 8.5ZM0.93934 13.9393C0.353553 14.5251 0.353553 15.4749 0.93934 16.0607C1.52513 16.6464 2.47487 16.6464 3.06066 16.0607L0.93934 13.9393ZM0.93934 3.06066L7.43934 9.56066L9.56066 7.43934L3.06066 0.93934L0.93934 3.06066ZM7.43934 7.43934L0.93934 13.9393L3.06066 16.0607L9.56066 9.56066L7.43934 7.43934Z" fill="#004CFE"/>
<path d="M11.0607 0.93934C10.4749 0.353553 9.52513 0.353553 8.93934 0.93934C8.35355 1.52513 8.35355 2.47487 8.93934 3.06066L11.0607 0.93934ZM16.5 8.5L17.5607 9.56066C18.1464 8.97487 18.1464 8.02513 17.5607 7.43934L16.5 8.5ZM8.93934 13.9393C8.35355 14.5251 8.35355 15.4749 8.93934 16.0607C9.52513 16.6464 10.4749 16.6464 11.0607 16.0607L8.93934 13.9393ZM8.93934 3.06066L15.4393 9.56066L17.5607 7.43934L11.0607 0.93934L8.93934 3.06066ZM15.4393 7.43934L8.93934 13.9393L11.0607 16.0607L17.5607 9.56066L15.4393 7.43934Z" fill="#004CFE"/>
</svg>
