<svg width="35" height="35" viewBox="0 0 35 35" fill="none" xmlns="http://www.w3.org/2000/svg">
<path fill-rule="evenodd" clip-rule="evenodd" d="M17.5 35C27.165 35 35 27.165 35 17.5C35 7.83502 27.165 0 17.5 0C7.83502 0 0 7.83502 0 17.5C0 27.165 7.83502 35 17.5 35ZM13.2022 22.5064C14.1647 23.4689 15.7194 23.4689 16.6819 22.5188L25.3195 13.9676C25.9981 13.3013 25.9981 12.2154 25.3318 11.5491L25.2824 11.4997C24.6161 10.8334 23.5426 10.8334 22.8763 11.4997L14.9421 19.4339L12.9061 17.3979C12.2644 16.7563 11.2033 16.7316 10.5369 17.3733C9.83358 18.0273 9.82125 19.1255 10.4999 19.8041L13.2022 22.5064Z" fill="white"/>
</svg>
