<?xml version="1.0" encoding="UTF-8"?>
<svg width="24px" height="24px" viewBox="0 0 24 24" version="1.1" xmlns="http://www.w3.org/2000/svg" xmlns:xlink="http://www.w3.org/1999/xlink">
    <title>campaign-24px copy</title>
    <g id="Page-1" stroke="none" stroke-width="1" fill="none" fill-rule="evenodd">
        <g id="Artboard" transform="translate(-488.000000, -1181.000000)">
            <g id="campaign-24px-copy" transform="translate(488.000000, 1181.000000)">
                <rect id="Rectangle" x="0" y="0" width="24" height="24"></rect>
                <path d="M18,11 C18,11.67 18,12.33 18,13 C19.2,13 20.76,13 22,13 C22,12.33 22,11.67 22,11 C20.76,11 19.2,11 18,11 Z" id="Path" fill="#FFFFFF" fill-rule="nonzero"></path>
                <path d="M16,17.61 C16.96,18.32 18.21,19.26 19.2,20 C19.6,19.47 20,18.93 20.4,18.4 C19.41,17.66 18.16,16.72 17.2,16 C16.8,16.54 16.4,17.08 16,17.61 Z" id="Path" fill="#FFFFFF" fill-rule="nonzero"></path>
                <path d="M20.4,5.6 C20,5.07 19.6,4.53 19.2,4 C18.21,4.74 16.96,5.68 16,6.4 C16.4,6.93 16.8,7.47 17.2,8 C18.16,7.28 19.41,6.35 20.4,5.6 Z" id="Path" fill="#FFFFFF" fill-rule="nonzero"></path>
                <path d="M4,9 C2.9,9 2,9.9 2,11 L2,13 C2,14.1 2.9,15 4,15 L5,15 L5,19 L7,19 L7,15 L8,15 L13,18 L13,6 L8,9 L4,9 Z M9.03,10.71 L11,9.53 L11,14.47 L9.03,13.29 L8.55,13 L8,13 L4,13 L4,11 L8,11 L8.55,11 L9.03,10.71 Z" id="Shape" fill="#FFFFFF" fill-rule="nonzero"></path>
                <path d="M15.5,12 C15.5,10.67 14.92,9.47 14,8.65 L14,15.34 C14.92,14.53 15.5,13.33 15.5,12 Z" id="Path" fill="#FFFFFF" fill-rule="nonzero"></path>
            </g>
        </g>
    </g>
</svg>