<svg width="17" height="17" viewBox="0 0 17 17" fill="none" xmlns="http://www.w3.org/2000/svg">
<path d="M5.66699 2.895L7.94699 4.987H14.164V7.079H2.83499V3.243C2.83525 3.19682 2.84463 3.15115 2.86257 3.1086C2.88051 3.06605 2.90668 3.02746 2.93956 2.99504C2.97245 2.96262 3.01141 2.937 3.05421 2.91967C3.09701 2.90233 3.14281 2.89361 3.18899 2.894L5.66699 2.895ZM5.66699 1.5H3.18899C2.72318 1.49654 2.27505 1.67821 1.94314 2.00506C1.61122 2.33191 1.42269 2.77719 1.41899 3.243V7.079H0.418992C0.36779 7.07888 0.317164 7.08981 0.270568 7.11103C0.223973 7.13226 0.182504 7.16329 0.148992 7.202C0.117028 7.24104 0.0940142 7.28661 0.0815741 7.33551C0.0691339 7.38441 0.06757 7.43544 0.0769924 7.485L1.31299 14.18C1.34415 14.3423 1.43131 14.4884 1.55925 14.593C1.68719 14.6975 1.84778 14.7538 2.01299 14.752H14.989C15.1542 14.7538 15.3148 14.6975 15.4427 14.593C15.5707 14.4884 15.6578 14.3423 15.689 14.18L16.927 7.485C16.9355 7.43492 16.9328 7.38359 16.9191 7.33467C16.9055 7.28575 16.8812 7.24045 16.848 7.202C16.8145 7.16329 16.773 7.13226 16.7264 7.11103C16.6798 7.08981 16.6292 7.07888 16.578 7.079H15.578V4.289C15.578 4.1964 15.5596 4.10472 15.524 4.01926C15.4883 3.93381 15.436 3.85628 15.3701 3.79118C15.3043 3.72607 15.2262 3.67468 15.1403 3.63997C15.0545 3.60527 14.9626 3.58794 14.87 3.589H8.49999L6.83599 2.014C6.68482 1.85526 6.50366 1.72809 6.303 1.63986C6.10233 1.55163 5.88616 1.5041 5.66699 1.5V1.5Z" fill="#929292"/>
</svg>
