<svg width="34" height="34" viewBox="0 0 34 34" fill="none" xmlns="http://www.w3.org/2000/svg">
<path d="M23.5025 12.75H21.25V5.66667C21.25 4.8875 20.6125 4.25 19.8333 4.25H14.1666C13.3875 4.25 12.75 4.8875 12.75 5.66667V12.75H10.4975C9.23665 12.75 8.59915 14.28 9.49165 15.1725L15.9941 21.675C16.5466 22.2275 17.4391 22.2275 17.9916 21.675L24.4942 15.1725C25.3867 14.28 24.7633 12.75 23.5025 12.75ZM7.08331 26.9167C7.08331 27.6958 7.72081 28.3333 8.49998 28.3333H25.5C26.2791 28.3333 26.9166 27.6958 26.9166 26.9167C26.9166 26.1375 26.2791 25.5 25.5 25.5H8.49998C7.72081 25.5 7.08331 26.1375 7.08331 26.9167Z" fill="#004CFE"/>
</svg>
