<svg width="34" height="34" viewBox="0 0 34 34" fill="none" xmlns="http://www.w3.org/2000/svg">
<path d="M15.0025 6.50246C14.4641 5.96413 13.7416 5.66663 12.9908 5.66663H5.66665C4.10831 5.66663 2.84748 6.94163 2.84748 8.49996L2.83331 25.5C2.83331 27.0583 4.10831 28.3333 5.66665 28.3333H28.3333C29.8916 28.3333 31.1666 27.0583 31.1666 25.5V11.3333C31.1666 9.77496 29.8916 8.49996 28.3333 8.49996H17L15.0025 6.50246Z" fill="#004CFE"/>
<path d="M17.0001 22.5L17.0001 14.1" stroke="white" stroke-width="3" stroke-linecap="round" stroke-linejoin="round"/>
<path d="M21.0494 19.5007L17.223 23.7522C17.1039 23.8846 16.8962 23.8846 16.7771 23.7522L12.9507 19.5007C12.7769 19.3076 12.9139 19 13.1737 19H20.8265C21.0862 19 21.2232 19.3076 21.0494 19.5007Z" fill="white" stroke="white" stroke-linecap="round" stroke-linejoin="round"/>
</svg>
