<?xml version="1.0" encoding="UTF-8"?>
<svg width="24px" height="24px" viewBox="0 0 24 24" version="1.1" xmlns="http://www.w3.org/2000/svg" xmlns:xlink="http://www.w3.org/1999/xlink">
    <g id="close-icon" stroke="none" stroke-width="1" fill="none" fill-rule="evenodd">
        <path d="M12,2 C6.48,2 2,6.48 2,12 C2,17.52 6.48,22 12,22 C17.52,22 22,17.52 22,12 C22,6.48 17.52,2 12,2 Z" id="Shape" fill="red" fill-rule="nonzero"></path>
        <g id="clear-24px" transform="translate(4.000000, 4.000000)">
            <polygon id="Path" points="0 0 15 0 15 15 0 15"></polygon>
            <path d="M11.8225256,4.1835419 C11.5858931,3.94690937 11.2036405,3.94690937 10.967008,4.1835419 L8,7.14448237 L5.03299204,4.1774744 C4.7963595,3.94084187 4.41410694,3.94084187 4.1774744,4.1774744 C3.94084187,4.41410694 3.94084187,4.7963595 4.1774744,5.03299204 L7.14448237,8 L4.1774744,10.967008 C3.94084187,11.2036405 3.94084187,11.5858931 4.1774744,11.8225256 C4.41410694,12.0591581 4.7963595,12.0591581 5.03299204,11.8225256 L8,8.85551763 L10.967008,11.8225256 C11.2036405,12.0591581 11.5858931,12.0591581 11.8225256,11.8225256 C12.0591581,11.5858931 12.0591581,11.2036405 11.8225256,10.967008 L8.85551763,8 L11.8225256,5.03299204 C12.0530906,4.802427 12.0530906,4.41410694 11.8225256,4.1835419 Z" id="Path" fill="#FFFFFF" fill-rule="nonzero"></path>
        </g>
    </g>
</svg>