<svg width="34" height="34" viewBox="0 0 34 34" fill="none" xmlns="http://www.w3.org/2000/svg">
<path d="M15.0025 6.50251C14.4642 5.96417 13.7417 5.66667 12.9908 5.66667H5.66666C4.10833 5.66667 2.84749 6.94167 2.84749 8.5L2.83333 25.5C2.83333 27.0583 4.10833 28.3333 5.66666 28.3333H28.3333C29.8917 28.3333 31.1667 27.0583 31.1667 25.5V11.3333C31.1667 9.775 29.8917 8.5 28.3333 8.5H17L15.0025 6.50251Z" fill="#004CFE"/>
<path d="M17.3925 12.125C13.7871 12.0258 10.8334 14.9229 10.8334 18.5H9.56544C9.24669 18.5 9.09086 18.8825 9.31753 19.1021L11.2938 21.0854C11.4354 21.2271 11.655 21.2271 11.7967 21.0854L13.7729 19.1021C13.9925 18.8825 13.8367 18.5 13.5179 18.5H12.25C12.25 15.7375 14.5025 13.5063 17.2792 13.5417C19.9142 13.5771 22.1313 15.7942 22.1667 18.4292C22.2021 21.1988 19.9709 23.4583 17.2084 23.4583C16.0679 23.4583 15.0125 23.0688 14.1767 22.41C13.8934 22.1904 13.4967 22.2117 13.2417 22.4667C12.9442 22.7642 12.9654 23.2671 13.2984 23.5221C14.375 24.3721 15.7279 24.875 17.2084 24.875C20.7854 24.875 23.6825 21.9213 23.5834 18.3158C23.4913 14.9938 20.7146 12.2171 17.3925 12.125ZM17.0313 15.6667C16.7409 15.6667 16.5 15.9075 16.5 16.1979V18.8046C16.5 19.0525 16.6346 19.2863 16.8471 19.4138L19.0571 20.7242C19.3121 20.8729 19.6379 20.7879 19.7867 20.54C19.9354 20.285 19.8504 19.9592 19.6025 19.8104L17.5625 18.5992V16.1908C17.5625 15.9075 17.3217 15.6667 17.0313 15.6667Z" fill="white"/>
</svg>
