<svg width="34" height="34" viewBox="0 0 34 34" fill="none" xmlns="http://www.w3.org/2000/svg">
<path d="M29.75 26.9167V7.08333C29.75 5.525 28.475 4.25 26.9167 4.25H7.08333C5.525 4.25 4.25 5.525 4.25 7.08333V26.9167C4.25 28.475 5.525 29.75 7.08333 29.75H26.9167C28.475 29.75 29.75 28.475 29.75 26.9167ZM12.6083 19.805L15.5833 23.3892L19.975 17.7367C20.2583 17.3683 20.825 17.3683 21.1083 17.7508L26.0808 24.3808C26.435 24.8483 26.095 25.5142 25.5142 25.5142H8.52833C7.93333 25.5142 7.6075 24.8342 7.97583 24.3667L11.5033 19.8333C11.7725 19.465 12.3108 19.4508 12.6083 19.805V19.805Z" fill="#004CFE"/>
</svg>
