<svg xmlns="http://www.w3.org/2000/svg" width="130px" height="130px" viewBox="0 0 130 130">
    <style>
@keyframes Path-Copy-2_t { 0% { transform: translate(-11.688399px,-27.42856px); } 100% { transform: translate(-11.688399px,-27.42856px); } }
@keyframes Path-Copy_t { 0% { transform: translate(21px,27.5714px); animation-timing-function: cubic-bezier(0.785,0.135,0.15,0.86); } 50% { transform: translate(32.0015px,55.5712px); } 100% { transform: translate(32.0015px,55.5712px); } }
@keyframes Path-Copy_o { 0% { opacity: 1; } 37.5% { opacity: 0; } 100% { opacity: 0; } }
@keyframes Path_t { 0% { transform: translate(21px,27.5715px); } 18.75% { transform: translate(21px,27.5715px); animation-timing-function: cubic-bezier(0.785,0.135,0.15,0.86); } 68.75% { transform: translate(32.4782px,55px); } 100% { transform: translate(32.4782px,55px); } }
@keyframes Path_f { 0% { fill: #004CFE; } 18.75% { fill: #004CFE; animation-timing-function: cubic-bezier(0.785,0.135,0.15,0.86); } 68.75% { fill: #cfdcff; } 100% { fill: #cfdcff; } }
@keyframes Path-3_t { 0% { transform: translate(9.4837px,0px); } 31.25% { transform: translate(9.4837px,0px); animation-timing-function: cubic-bezier(0.785,0.135,0.15,0.86); } 81.25% { transform: translate(21px,27.5715px); } 100% { transform: translate(21px,27.5715px); } }
@keyframes Path-3_o { 0% { opacity: 0; } 31.25% { opacity: 0; } 81.25% { opacity: 1; } 100% { opacity: 1; } }
@keyframes Path-3_f { 0% { fill: #ffffff; } 31.25% { fill: #ffffff; animation-timing-function: cubic-bezier(0.785,0.135,0.15,0.86); } 81.25% { fill: #004cfe; } 100% { fill: #004cfe; } }
    </style>
    <title>Adflow logo.svg</title>
    <g id="Adflow-logo.svg" stroke="none" stroke-width="1" fill="none" fill-rule="evenodd" transform="translate(65,65) translate(-65,-65)">
        <g display="none" transform="translate(59.0245,51.2267) translate(-37.8144,-23.6552)">
            <path id="Path-Copy-2" d="M47.2862,27.4286L82.5345,27.4286C85.1759,27.4286,87.3172,29.6215,87.3172,32.3265C87.3172,33.433,86.9513,34.5069,86.2792,35.3733L58.6132,71.0367C56.7987,73.3758,54.041,74.739,51.1239,74.739L16.4711,74.739C13.8297,74.739,11.6885,72.5462,11.6885,69.8411C11.6885,68.7523,12.0427,67.6946,12.6951,66.8351L39.7344,31.2124C41.5465,28.8251,44.3336,27.4286,47.2862,27.4286Z" fill="#ee0000" transform="translate(37.8144,23.6552) translate(-49.5028,-51.0838)" style="animation: 1.6s linear infinite both Path-Copy-2_t;"/>
            <path id="Path-2" d="M35.808,0L71.0563,0C73.6976,0,75.8389,2.19289,75.8389,4.89796C75.8389,6.00446,75.4731,7.07836,74.801,7.94473L47.135,43.6081C45.3204,45.9472,42.5627,47.3105,39.6456,47.3105L4.99282,47.3105C2.35146,47.3105,0.210216,45.1176,0.210216,42.4125C0.210216,41.3238,0.564425,40.2661,1.21689,39.4065L28.2561,3.78385C30.0682,1.39649,32.8554,0,35.808,0Z" fill="#ee0000" transform="translate(26.3362,-3.7733) translate(-38.0246,-23.6552)"/>
        </g>
        <path id="Path-Copy" d="M47.2862,27.4286L82.5345,27.4286C85.1759,27.4286,87.3172,29.6215,87.3172,32.3265C87.3172,33.433,86.9513,34.5069,86.2792,35.3733L58.6132,71.0367C56.7987,73.3758,54.041,74.739,51.1239,74.739L16.4711,74.739C13.8297,74.739,11.6885,72.5462,11.6885,69.8411C11.6885,68.7523,12.0427,67.6946,12.6951,66.8351L39.7344,31.2124C41.5465,28.8251,44.3336,27.4286,47.2862,27.4286Z" fill="#cfdcff" opacity="1" transform="translate(70.5028,78.6552) translate(-49.5028,-51.0838)" style="animation: 1.6s linear infinite both Path-Copy_t, 1.6s linear infinite both Path-Copy_o;"/>
        <path id="Path" d="M35.808,0L71.0563,0C73.6976,0,75.8389,2.19289,75.8389,4.89796C75.8389,6.00446,75.4731,7.07836,74.801,7.94473L47.135,43.6081C45.3204,45.9472,42.5627,47.3105,39.6456,47.3105L4.99282,47.3105C2.35146,47.3105,0.210216,45.1176,0.210216,42.4125C0.210216,41.3238,0.564425,40.2661,1.21689,39.4065L28.2561,3.78385C30.0682,1.39649,32.8554,0,35.808,0Z" fill="#004CFE" transform="translate(59.0246,51.2267) translate(-38.0246,-23.6552)" style="animation: 1.6s linear infinite both Path_t, 1.6s linear infinite both Path_f;"/>
        <path id="Path-3" d="M35.808,0L71.0563,0C73.6976,0,75.8389,2.19289,75.8389,4.89796C75.8389,6.00446,75.4731,7.07836,74.801,7.94473L47.135,43.6081C45.3204,45.9472,42.5627,47.3105,39.6456,47.3105L4.99282,47.3105C2.35146,47.3105,0.210216,45.1176,0.210216,42.4125C0.210216,41.3238,0.564425,40.2661,1.21689,39.4065L28.2561,3.78385C30.0682,1.39649,32.8554,0,35.808,0Z" fill="#ffffff" opacity="0" transform="translate(47.5083,23.6552) translate(-38.0246,-23.6552)" style="animation: 1.6s linear infinite both Path-3_t, 1.6s linear infinite both Path-3_o, 1.6s linear infinite both Path-3_f;"/>
    </g>
</svg>