<svg width="79" height="79" viewBox="0 0 79 79" fill="none" xmlns="http://www.w3.org/2000/svg">
<path d="M12.8377 39.5001C12.8377 33.8713 17.4131 29.2959 23.0418 29.2959H36.2085V23.0417H23.0418C13.9568 23.0417 6.5835 30.4151 6.5835 39.5001C6.5835 48.5851 13.9568 55.9584 23.0418 55.9584H36.2085V49.7042H23.0418C17.4131 49.7042 12.8377 45.1288 12.8377 39.5001ZM26.3335 42.7917H52.6668V36.2084H26.3335V42.7917ZM55.9585 23.0417H42.7918V29.2959H55.9585C61.5872 29.2959 66.1627 33.8713 66.1627 39.5001C66.1627 45.1288 61.5872 49.7042 55.9585 49.7042H42.7918V55.9584H55.9585C65.0435 55.9584 72.4168 48.5851 72.4168 39.5001C72.4168 30.4151 65.0435 23.0417 55.9585 23.0417Z" fill="#9E9EA7"/>
</svg>
