<svg width="29" height="29" viewBox="0 0 29 29" fill="none" xmlns="http://www.w3.org/2000/svg">
<path d="M4.83335 24.1667H24.1667C25.4959 24.1667 26.5834 23.0792 26.5834 21.75C26.5834 20.4209 25.4959 19.3334 24.1667 19.3334H4.83335C3.50419 19.3334 2.41669 20.4209 2.41669 21.75C2.41669 23.0792 3.50419 24.1667 4.83335 24.1667ZM4.83335 20.5417H7.25002V22.9584H4.83335V20.5417ZM2.41669 7.25004C2.41669 8.57921 3.50419 9.66671 4.83335 9.66671H24.1667C25.4959 9.66671 26.5834 8.57921 26.5834 7.25004C26.5834 5.92087 25.4959 4.83337 24.1667 4.83337H4.83335C3.50419 4.83337 2.41669 5.92087 2.41669 7.25004ZM7.25002 8.45837H4.83335V6.04171H7.25002V8.45837ZM4.83335 16.9167H24.1667C25.4959 16.9167 26.5834 15.8292 26.5834 14.5C26.5834 13.1709 25.4959 12.0834 24.1667 12.0834H4.83335C3.50419 12.0834 2.41669 13.1709 2.41669 14.5C2.41669 15.8292 3.50419 16.9167 4.83335 16.9167ZM4.83335 13.2917H7.25002V15.7084H4.83335V13.2917Z" fill="#004CFE"/>
</svg>
