<svg width="34" height="34" viewBox="0 0 34 34" fill="none" xmlns="http://www.w3.org/2000/svg">
<path d="M4.24998 9.91671H7.08331C7.86248 9.91671 8.49998 10.5542 8.49998 11.3334V22.6667C8.49998 23.4459 7.86248 24.0834 7.08331 24.0834H4.24998C3.47081 24.0834 2.83331 23.4459 2.83331 22.6667V11.3334C2.83331 10.5542 3.47081 9.91671 4.24998 9.91671ZM11.3333 26.9167H22.6666C23.4458 26.9167 24.0833 26.2792 24.0833 25.5V8.50004C24.0833 7.72087 23.4458 7.08337 22.6666 7.08337H11.3333C10.5541 7.08337 9.91665 7.72087 9.91665 8.50004V25.5C9.91665 26.2792 10.5541 26.9167 11.3333 26.9167ZM26.9166 9.91671H29.75C30.5291 9.91671 31.1666 10.5542 31.1666 11.3334V22.6667C31.1666 23.4459 30.5291 24.0834 29.75 24.0834H26.9166C26.1375 24.0834 25.5 23.4459 25.5 22.6667V11.3334C25.5 10.5542 26.1375 9.91671 26.9166 9.91671Z" fill="#D9E4FF"/>
<path d="M11.3333 26.9167H22.6666C23.4458 26.9167 24.0833 26.2792 24.0833 25.5V8.50004C24.0833 7.72087 23.4458 7.08337 22.6666 7.08337H11.3333C10.5541 7.08337 9.91663 7.72087 9.91663 8.50004V25.5C9.91663 26.2792 10.5541 26.9167 11.3333 26.9167Z" fill="#004CFE"/>
</svg>
