<svg width="40" height="32" viewBox="0 0 40 32" fill="none" xmlns="http://www.w3.org/2000/svg">
<g clip-path="url(#clip123)">
<path d="M32 14C32 15.34 32 16.66 32 18C34.4 18 37.52 18 40 18C40 16.66 40 15.34 40 14C37.52 14 34.4 14 32 14Z" fill="white"/>
<path d="M28 27.22C29.92 28.64 32.42 30.52 34.4 32C35.2 30.94 36 29.86 36.8 28.8C34.82 27.32 32.32 25.44 30.4 24C29.6 25.08 28.8 26.16 28 27.22Z" fill="white"/>
<path d="M36.8 3.2C36 2.14 35.2 1.06 34.4 0C32.42 1.48 29.92 3.36 28 4.8C28.8 5.86 29.6 6.94 30.4 8C32.32 6.56 34.82 4.7 36.8 3.2Z" fill="white"/>
<path d="M4 10C1.8 10 0 11.8 0 14V18C0 20.2 1.8 22 4 22H6V30H10V22H12L22 28V4L12 10H4ZM14.06 13.42L18 11.06V20.94L14.06 18.58L13.1 18H12H4V14H12H13.1L14.06 13.42Z" fill="white"/>
<path d="M27 16.0001C27 13.34 25.84 10.94 24 9.30005V22.6801C25.84 21.0601 27 18.6601 27 16.0001Z" fill="white"/>
</g>
<defs>
<clipPath id="clip123">
<rect width="40" height="32" fill="white"/>
</clipPath>
</defs>
</svg>
