<?xml version="1.0" encoding="UTF-8"?>
<svg width="22px" height="18px" viewBox="0 0 22 18" version="1.1" xmlns="http://www.w3.org/2000/svg" xmlns:xlink="http://www.w3.org/1999/xlink">
    <!-- Generator: Sketch 55.2 (78181) - https://sketchapp.com -->
    <title>ondemand_video-24px</title>
    <desc>Created with Sketch.</desc>
    <g id="Page-1" stroke="none" stroke-width="1" fill="none" fill-rule="evenodd">
        <g id="Artboard" transform="translate(-1002.000000, -921.000000)">
            <g id="ondemand_video-24px" transform="translate(1001.000000, 918.000000)">
                <polygon id="Path" points="0 0 24 0 24 24 0 24"></polygon>
                <path d="M3,17 L21,17 L21,5 L3,5 L3,17 Z M9,7 L16,11 L9,15 L9,7 Z" id="Shape" fill="#1B31F7" fill-rule="nonzero" opacity="0.3"></path>
                <path d="M9,7 L9,15 L16,11 L9,7 Z M21,3 L3,3 C1.9,3 1,3.9 1,5 L1,17 C1,18.1 1.9,19 3,19 L8,19 L8,21 L16,21 L16,19 L21,19 C22.1,19 23,18.1 23,17 L23,5 C23,3.9 22.1,3 21,3 Z M21,17 L3,17 L3,5 L21,5 L21,17 Z" id="Shape" fill="#1B31F7" fill-rule="nonzero"></path>
            </g>
        </g>
    </g>
</svg>