<svg width="28" height="28" viewBox="0 0 28 28" fill="none" xmlns="http://www.w3.org/2000/svg">
<path d="M14 9.33341C15.2833 9.33341 16.3333 8.28341 16.3333 7.00008C16.3333 5.71675 15.2833 4.66675 14 4.66675C12.7166 4.66675 11.6666 5.71675 11.6666 7.00008C11.6666 8.28341 12.7166 9.33341 14 9.33341ZM14 11.6667C12.7166 11.6667 11.6666 12.7167 11.6666 14.0001C11.6666 15.2834 12.7166 16.3334 14 16.3334C15.2833 16.3334 16.3333 15.2834 16.3333 14.0001C16.3333 12.7167 15.2833 11.6667 14 11.6667ZM14 18.6667C12.7166 18.6667 11.6666 19.7167 11.6666 21.0001C11.6666 22.2834 12.7166 23.3334 14 23.3334C15.2833 23.3334 16.3333 22.2834 16.3333 21.0001C16.3333 19.7167 15.2833 18.6667 14 18.6667Z" fill="#004CFE"/>
</svg>
