<?xml version="1.0" encoding="UTF-8"?>
<svg width="30px" height="24px" viewBox="0 0 30 24" version="1.1" xmlns="http://www.w3.org/2000/svg" xmlns:xlink="http://www.w3.org/1999/xlink">
    <title>play video icon</title>
    <g id="play-video-icon" stroke="none" stroke-width="1" fill="none" fill-rule="evenodd">
        <g id="iconfinder_BW_Youtube_glyph_svg_5305164" transform="translate(3.000000, 4.000000)" fill="#1B31F7">
            <path d="M23.4985781,2.62338248 C23.222625,1.60527069 22.4094375,0.803582746 21.3767813,0.53147007 C19.5049687,0.036971831 12,0.036971831 12,0.036971831 C12,0.036971831 4.49498438,0.036971831 2.62317188,0.53147007 C1.59070313,0.803582746 0.777375,1.60527069 0.501421875,2.62338248 C4.99600361e-16,4.46864657 4.99600361e-16,8.31880062 4.99600361e-16,8.31880062 C4.99600361e-16,8.31880062 4.99600361e-16,12.1688622 0.501421875,14.0139415 C0.777375,15.0320533 1.59070313,15.8339723 2.62317188,16.1060387 C4.49498438,16.6003521 12,16.6003521 12,16.6003521 C12,16.6003521 19.5049687,16.6003521 21.3767813,16.1060387 C22.4094375,15.8339723 23.222625,15.0320533 23.4985781,14.0139415 C23.9999531,12.1688622 23.9999531,8.31880062 23.9999531,8.31880062 C23.9999531,8.31880062 23.9999531,4.46864657 23.4985781,2.62338248 Z M9.59985938,11.8681426 L9.59985938,4.76941241 L15.835125,8.31880062 L9.59985938,11.8681426 Z" id="Shape"></path>
        </g>
    </g>
</svg>