<svg width="34" height="34" viewBox="0 0 34 34" fill="none" xmlns="http://www.w3.org/2000/svg">
<path d="M28.3333 8.49996H17L15.0025 6.50246C14.4641 5.96413 13.7416 5.66663 12.9908 5.66663H5.66665C4.09415 5.66663 2.84748 6.92746 2.84748 8.49996L2.83331 25.5C2.83331 27.0725 4.09415 28.3333 5.66665 28.3333H28.3333C29.8916 28.3333 31.1666 27.0583 31.1666 25.5V11.3333C31.1666 9.77496 29.8916 8.49996 28.3333 8.49996ZM25.5 19.8333H22.6666V22.6666C22.6666 23.4458 22.0291 24.0833 21.25 24.0833C20.4708 24.0833 19.8333 23.4458 19.8333 22.6666V19.8333H17C16.2208 19.8333 15.5833 19.1958 15.5833 18.4166C15.5833 17.6375 16.2208 17 17 17H19.8333V14.1666C19.8333 13.3875 20.4708 12.75 21.25 12.75C22.0291 12.75 22.6666 13.3875 22.6666 14.1666V17H25.5C26.2791 17 26.9166 17.6375 26.9166 18.4166C26.9166 19.1958 26.2791 19.8333 25.5 19.8333Z" fill="#004CFE"/>
</svg>
