<?xml version="1.0" encoding="UTF-8" standalone="no"?>
<!-- Created with Keyshape -->
<svg xmlns="http://www.w3.org/2000/svg" width="24" height="24" viewBox="0 0 24 24" fill="none">
    <style>
@keyframes a0_t { 0% { transform: translate(12px,12px) rotate(0deg) translate(-12px,-12px); animation-timing-function: cubic-bezier(0.785,0.135,0.15,0.86); } 100% { transform: translate(12px,12px) rotate(360deg) translate(-12px,-12px); } }
    </style>
    <ellipse rx="11" ry="11" fill="#ffffff" stroke="none" stroke-width="0" transform="translate(13.5,13.5) translate(-1.5,-1.5)"/>
    <path d="M12,0C5.38,0,0,5.38,0,12C0,18.62,5.38,24,12,24C18.62,24,24,18.62,24,12C24,5.38,18.62,0,12,0ZM17.86,14.4C17.54,15.18,17.08,15.88,16.48,16.48C15.28,17.68,13.7,18.34,12,18.34C10.64,18.34,9.36002,17.9,8.28002,17.1L8.28002,17.38C8.28002,18,7.78002,18.52,7.14002,18.52C6.52002,18.52,6,18.02,6,17.38L6,14.5C6,13.88,6.50002,13.36,7.14002,13.36L10.02,13.36C10.64,13.36,11.16,13.86,11.16,14.5C11.16,15.08,10.74,15.52,10.18,15.6C11.7,16.34,13.64,16.1,14.86,14.88C15.24,14.5,15.54,14.04,15.74,13.54C15.98,12.96,16.64,12.68,17.22,12.92C17.82,13.14,18.1,13.82,17.86,14.4ZM18,9.52C18,10.14,17.5,10.66,16.86,10.66L13.98,10.66C13.36,10.66,12.84,10.16,12.84,9.52C12.84,8.94,13.26,8.5,13.82,8.42C12.3,7.68,10.36,7.92,9.12,9.14C8.78,9.48,8.52,9.86,8.32,10.28C8.12,10.7,7.71998,10.94,7.29998,10.94C7.13998,10.94,6.98,10.9,6.82,10.84C6.26,10.58,6.00002,9.9,6.28002,9.32C6.60002,8.66,7.02002,8.06,7.52002,7.54C8.72002,6.34,10.3,5.68,12,5.68C13.36,5.68,14.64,6.12,15.72,6.92L15.72,6.66C15.72,6.04,16.22,5.52,16.86,5.52C17.5,5.52,18,6,18,6.64L18,9.52Z" fill="#004CFE" transform="translate(12,12) translate(-12,-12)" style="animation: 1.5s linear infinite both a0_t;"/>
</svg>
