<svg width="34" height="34" viewBox="0 0 34 34" fill="none" xmlns="http://www.w3.org/2000/svg">
<path d="M18.0872 6.00426C11.8799 5.83352 6.79455 10.8213 6.79455 16.9799H4.61163C4.06285 16.9799 3.79455 17.6384 4.1848 18.0164L7.58723 21.4311C7.83113 21.675 8.20918 21.675 8.45309 21.4311L11.8555 18.0164C12.2336 17.6384 11.9653 16.9799 11.4165 16.9799H9.23357C9.23357 12.2238 13.1116 8.3823 17.8921 8.44328C22.4287 8.50425 26.2457 12.3213 26.3067 16.8579C26.3677 21.6262 22.5262 25.5164 17.7701 25.5164C15.8067 25.5164 13.9897 24.8457 12.5506 23.7116C12.0628 23.3335 11.3799 23.3701 10.9409 23.8091C10.4287 24.3213 10.4653 25.1872 11.0384 25.6262C12.8921 27.0896 15.2214 27.9554 17.7701 27.9554C23.9287 27.9554 28.9165 22.8701 28.7457 16.6628C28.5872 10.9433 23.8067 6.16279 18.0872 6.00426ZM17.4653 12.1018C16.9653 12.1018 16.5506 12.5164 16.5506 13.0164V17.5042C16.5506 17.9311 16.7823 18.3335 17.1482 18.553L20.9531 20.8091C21.3921 21.0652 21.9531 20.9189 22.2092 20.492C22.4653 20.053 22.3189 19.492 21.8921 19.2359L18.3799 17.1506V13.0042C18.3799 12.5164 17.9653 12.1018 17.4653 12.1018Z" fill="#004CFE"/>
</svg>
