<?xml version="1.0" encoding="UTF-8"?>
<svg width="24px" height="24px" viewBox="0 0 24 24" version="1.1" xmlns="http://www.w3.org/2000/svg" xmlns:xlink="http://www.w3.org/1999/xlink">
    <title>login-24px (1)</title>
    <g id="Page-1" stroke="none" stroke-width="1" fill="none" fill-rule="evenodd">
        <g id="Artboard" transform="translate(-462.000000, -1104.000000)">
            <g id="login-24px-(1)" transform="translate(462.000000, 1104.000000)">
                <rect id="Rectangle" x="0" y="0" width="24" height="24"></rect>
                <path d="M10.3,7.7 C9.91340068,8.08659932 9.91340068,8.71340068 10.3,9.1 L12.2,11 L12.2,11 L3,11 C2.44771525,11 2,11.4477153 2,12 C2,12.5522847 2.44771525,13 3,13 L12.2,13 L12.2,13 L10.3,14.9 C9.91340068,15.2865993 9.91340068,15.9134007 10.3,16.3 C10.6865993,16.6865993 11.3134007,16.6865993 11.7,16.3 L16,12 L16,12 L11.7,7.7 C11.3134007,7.31340068 10.6865993,7.31340068 10.3,7.7 Z M20,19 L13,19 C12.4477153,19 12,19.4477153 12,20 C12,20.5522847 12.4477153,21 13,21 L20,21 L20,21 C21.1,21 22,20.1 22,19 L22,5 C22,3.9 21.1,3 20,3 L13,3 C12.4477153,3 12,3.44771525 12,4 C12,4.55228475 12.4477153,5 13,5 L20,5 L20,5 L20,19 Z" id="Shape" fill="#A4B4CB" fill-rule="nonzero"></path>
            </g>
        </g>
    </g>
</svg>