<svg width="182" height="6" viewBox="0 0 182 6" fill="none" xmlns="http://www.w3.org/2000/svg">
<path d="M5.20556 1.2C5.31602 1.2 5.40556 1.11046 5.40556 0.999999C5.40556 0.889542 5.31602 0.799999 5.20556 0.799999C5.0951 0.799999 5.00555 0.889542 5.00555 0.999999C5.00555 1.11046 5.0951 1.2 5.20556 1.2Z" fill="#DBE4FE"/>
<path d="M7.16112 1.2C7.27157 1.2 7.36112 1.11046 7.36112 0.999999C7.36112 0.889542 7.27157 0.799999 7.16112 0.799999C7.05066 0.799999 6.96112 0.889542 6.96112 0.999999C6.96112 1.11046 7.05066 1.2 7.16112 1.2Z" fill="#DBE4FE"/>
<path d="M9.11668 1.2C9.22713 1.2 9.31667 1.11046 9.31667 0.999999C9.31667 0.889542 9.22713 0.799999 9.11668 0.799999C9.00622 0.799999 8.91667 0.889542 8.91667 0.999999C8.91667 1.11046 9.00622 1.2 9.11668 1.2Z" fill="#DBE4FE"/>
<path d="M11.0722 1.2C11.1827 1.2 11.2722 1.11046 11.2722 0.999999C11.2722 0.889542 11.1827 0.799999 11.0722 0.799999C10.9618 0.799999 10.8722 0.889542 10.8722 0.999999C10.8722 1.11046 10.9618 1.2 11.0722 1.2Z" fill="#DBE4FE"/>
<path d="M14.9833 1.2C15.0938 1.2 15.1833 1.11046 15.1833 0.999999C15.1833 0.889542 15.0938 0.799999 14.9833 0.799999C14.8729 0.799999 14.7833 0.889542 14.7833 0.999999C14.7833 1.11046 14.8729 1.2 14.9833 1.2Z" fill="#DBE4FE"/>
<path d="M16.9389 1.2C17.0493 1.2 17.1389 1.11046 17.1389 0.999999C17.1389 0.889542 17.0493 0.799999 16.9389 0.799999C16.8284 0.799999 16.7389 0.889542 16.7389 0.999999C16.7389 1.11046 16.8284 1.2 16.9389 1.2Z" fill="#DBE4FE"/>
<path d="M18.8944 1.2C19.0049 1.2 19.0944 1.11046 19.0944 0.999999C19.0944 0.889542 19.0049 0.799999 18.8944 0.799999C18.784 0.799999 18.6944 0.889542 18.6944 0.999999C18.6944 1.11046 18.784 1.2 18.8944 1.2Z" fill="#DBE4FE"/>
<path d="M20.85 1.2C20.9605 1.2 21.05 1.11046 21.05 0.999999C21.05 0.889542 20.9605 0.799999 20.85 0.799999C20.7395 0.799999 20.65 0.889542 20.65 0.999999C20.65 1.11046 20.7395 1.2 20.85 1.2Z" fill="#DBE4FE"/>
<path d="M24.7611 1.2C24.8716 1.2 24.9611 1.11046 24.9611 0.999999C24.9611 0.889542 24.8716 0.799999 24.7611 0.799999C24.6507 0.799999 24.5611 0.889542 24.5611 0.999999C24.5611 1.11046 24.6507 1.2 24.7611 1.2Z" fill="#DBE4FE"/>
<path d="M26.7167 1.2C26.8271 1.2 26.9167 1.11046 26.9167 0.999999C26.9167 0.889542 26.8271 0.799999 26.7167 0.799999C26.6062 0.799999 26.5167 0.889542 26.5167 0.999999C26.5167 1.11046 26.6062 1.2 26.7167 1.2Z" fill="#DBE4FE"/>
<path d="M28.6722 1.2C28.7827 1.2 28.8722 1.11046 28.8722 0.999999C28.8722 0.889542 28.7827 0.799999 28.6722 0.799999C28.5618 0.799999 28.4722 0.889542 28.4722 0.999999C28.4722 1.11046 28.5618 1.2 28.6722 1.2Z" fill="#DBE4FE"/>
<path d="M30.6278 1.2C30.7382 1.2 30.8278 1.11046 30.8278 0.999999C30.8278 0.889542 30.7382 0.799999 30.6278 0.799999C30.5173 0.799999 30.4278 0.889542 30.4278 0.999999C30.4278 1.11046 30.5173 1.2 30.6278 1.2Z" fill="#DBE4FE"/>
<path d="M34.5389 1.2C34.6494 1.2 34.7389 1.11046 34.7389 0.999999C34.7389 0.889542 34.6494 0.799999 34.5389 0.799999C34.4284 0.799999 34.3389 0.889542 34.3389 0.999999C34.3389 1.11046 34.4284 1.2 34.5389 1.2Z" fill="#DBE4FE"/>
<path d="M36.4944 1.2C36.6049 1.2 36.6944 1.11046 36.6944 0.999999C36.6944 0.889542 36.6049 0.799999 36.4944 0.799999C36.384 0.799999 36.2944 0.889542 36.2944 0.999999C36.2944 1.11046 36.384 1.2 36.4944 1.2Z" fill="#DBE4FE"/>
<path d="M38.45 1.2C38.5605 1.2 38.65 1.11046 38.65 0.999999C38.65 0.889542 38.5605 0.799999 38.45 0.799999C38.3395 0.799999 38.25 0.889542 38.25 0.999999C38.25 1.11046 38.3395 1.2 38.45 1.2Z" fill="#DBE4FE"/>
<path d="M40.4056 1.2C40.516 1.2 40.6056 1.11046 40.6056 0.999999C40.6056 0.889542 40.516 0.799999 40.4056 0.799999C40.2951 0.799999 40.2056 0.889542 40.2056 0.999999C40.2056 1.11046 40.2951 1.2 40.4056 1.2Z" fill="#DBE4FE"/>
<path d="M44.3167 1.2C44.4271 1.2 44.5167 1.11046 44.5167 0.999999C44.5167 0.889542 44.4271 0.799999 44.3167 0.799999C44.2062 0.799999 44.1167 0.889542 44.1167 0.999999C44.1167 1.11046 44.2062 1.2 44.3167 1.2Z" fill="#DBE4FE"/>
<path d="M46.2722 1.2C46.3827 1.2 46.4722 1.11046 46.4722 0.999999C46.4722 0.889542 46.3827 0.799999 46.2722 0.799999C46.1618 0.799999 46.0722 0.889542 46.0722 0.999999C46.0722 1.11046 46.1618 1.2 46.2722 1.2Z" fill="#DBE4FE"/>
<path d="M48.2278 1.2C48.3382 1.2 48.4278 1.11046 48.4278 0.999999C48.4278 0.889542 48.3382 0.799999 48.2278 0.799999C48.1173 0.799999 48.0278 0.889542 48.0278 0.999999C48.0278 1.11046 48.1173 1.2 48.2278 1.2Z" fill="#DBE4FE"/>
<path d="M50.1833 1.2C50.2938 1.2 50.3833 1.11046 50.3833 0.999999C50.3833 0.889542 50.2938 0.799999 50.1833 0.799999C50.0729 0.799999 49.9833 0.889542 49.9833 0.999999C49.9833 1.11046 50.0729 1.2 50.1833 1.2Z" fill="#DBE4FE"/>
<path d="M54.0944 1.2C54.2049 1.2 54.2944 1.11046 54.2944 0.999999C54.2944 0.889542 54.2049 0.799999 54.0944 0.799999C53.984 0.799999 53.8944 0.889542 53.8944 0.999999C53.8944 1.11046 53.984 1.2 54.0944 1.2Z" fill="#DBE4FE"/>
<path d="M56.05 1.2C56.1605 1.2 56.25 1.11046 56.25 0.999999C56.25 0.889542 56.1605 0.799999 56.05 0.799999C55.9395 0.799999 55.85 0.889542 55.85 0.999999C55.85 1.11046 55.9395 1.2 56.05 1.2Z" fill="#DBE4FE"/>
<path d="M58.0056 1.2C58.116 1.2 58.2056 1.11046 58.2056 0.999999C58.2056 0.889542 58.116 0.799999 58.0056 0.799999C57.8951 0.799999 57.8056 0.889542 57.8056 0.999999C57.8056 1.11046 57.8951 1.2 58.0056 1.2Z" fill="#DBE4FE"/>
<path d="M59.9611 1.2C60.0716 1.2 60.1611 1.11046 60.1611 0.999999C60.1611 0.889542 60.0716 0.799999 59.9611 0.799999C59.8507 0.799999 59.7611 0.889542 59.7611 0.999999C59.7611 1.11046 59.8507 1.2 59.9611 1.2Z" fill="#DBE4FE"/>
<path d="M63.8722 1.2C63.9827 1.2 64.0722 1.11046 64.0722 0.999999C64.0722 0.889542 63.9827 0.799999 63.8722 0.799999C63.7618 0.799999 63.6722 0.889542 63.6722 0.999999C63.6722 1.11046 63.7618 1.2 63.8722 1.2Z" fill="#DBE4FE"/>
<path d="M65.8278 1.2C65.9382 1.2 66.0278 1.11046 66.0278 0.999999C66.0278 0.889542 65.9382 0.799999 65.8278 0.799999C65.7173 0.799999 65.6278 0.889542 65.6278 0.999999C65.6278 1.11046 65.7173 1.2 65.8278 1.2Z" fill="#DBE4FE"/>
<path d="M67.7833 1.2C67.8938 1.2 67.9833 1.11046 67.9833 0.999999C67.9833 0.889542 67.8938 0.799999 67.7833 0.799999C67.6729 0.799999 67.5833 0.889542 67.5833 0.999999C67.5833 1.11046 67.6729 1.2 67.7833 1.2Z" fill="#DBE4FE"/>
<path d="M69.7389 1.2C69.8494 1.2 69.9389 1.11046 69.9389 0.999999C69.9389 0.889542 69.8494 0.799999 69.7389 0.799999C69.6284 0.799999 69.5389 0.889542 69.5389 0.999999C69.5389 1.11046 69.6284 1.2 69.7389 1.2Z" fill="#DBE4FE"/>
<path d="M73.65 1.2C73.7605 1.2 73.85 1.11046 73.85 0.999999C73.85 0.889542 73.7605 0.799999 73.65 0.799999C73.5395 0.799999 73.45 0.889542 73.45 0.999999C73.45 1.11046 73.5395 1.2 73.65 1.2Z" fill="#DBE4FE"/>
<path d="M75.6056 1.2C75.716 1.2 75.8056 1.11046 75.8056 0.999999C75.8056 0.889542 75.716 0.799999 75.6056 0.799999C75.4951 0.799999 75.4056 0.889542 75.4056 0.999999C75.4056 1.11046 75.4951 1.2 75.6056 1.2Z" fill="#DBE4FE"/>
<path d="M77.5611 1.2C77.6716 1.2 77.7611 1.11046 77.7611 0.999999C77.7611 0.889542 77.6716 0.799999 77.5611 0.799999C77.4507 0.799999 77.3611 0.889542 77.3611 0.999999C77.3611 1.11046 77.4507 1.2 77.5611 1.2Z" fill="#DBE4FE"/>
<path d="M79.5167 1.2C79.6271 1.2 79.7167 1.11046 79.7167 0.999999C79.7167 0.889542 79.6271 0.799999 79.5167 0.799999C79.4062 0.799999 79.3167 0.889542 79.3167 0.999999C79.3167 1.11046 79.4062 1.2 79.5167 1.2Z" fill="#DBE4FE"/>
<path d="M83.4278 1.2C83.5382 1.2 83.6278 1.11046 83.6278 0.999999C83.6278 0.889542 83.5382 0.799999 83.4278 0.799999C83.3173 0.799999 83.2278 0.889542 83.2278 0.999999C83.2278 1.11046 83.3173 1.2 83.4278 1.2Z" fill="#DBE4FE"/>
<path d="M85.3833 1.2C85.4938 1.2 85.5833 1.11046 85.5833 0.999999C85.5833 0.889542 85.4938 0.799999 85.3833 0.799999C85.2729 0.799999 85.1833 0.889542 85.1833 0.999999C85.1833 1.11046 85.2729 1.2 85.3833 1.2Z" fill="#DBE4FE"/>
<path d="M87.3389 1.2C87.4493 1.2 87.5389 1.11046 87.5389 0.999999C87.5389 0.889542 87.4493 0.799999 87.3389 0.799999C87.2284 0.799999 87.1389 0.889542 87.1389 0.999999C87.1389 1.11046 87.2284 1.2 87.3389 1.2Z" fill="#DBE4FE"/>
<path d="M89.2945 1.2C89.4049 1.2 89.4945 1.11046 89.4945 0.999999C89.4945 0.889542 89.4049 0.799999 89.2945 0.799999C89.184 0.799999 89.0945 0.889542 89.0945 0.999999C89.0945 1.11046 89.184 1.2 89.2945 1.2Z" fill="#DBE4FE"/>
<path d="M93.2056 1.2C93.316 1.2 93.4056 1.11046 93.4056 0.999999C93.4056 0.889542 93.316 0.799999 93.2056 0.799999C93.0951 0.799999 93.0056 0.889542 93.0056 0.999999C93.0056 1.11046 93.0951 1.2 93.2056 1.2Z" fill="#DBE4FE"/>
<path d="M95.1611 1.2C95.2716 1.2 95.3611 1.11046 95.3611 0.999999C95.3611 0.889542 95.2716 0.799999 95.1611 0.799999C95.0507 0.799999 94.9611 0.889542 94.9611 0.999999C94.9611 1.11046 95.0507 1.2 95.1611 1.2Z" fill="#DBE4FE"/>
<path d="M97.1167 1.2C97.2271 1.2 97.3167 1.11046 97.3167 0.999999C97.3167 0.889542 97.2271 0.799999 97.1167 0.799999C97.0062 0.799999 96.9167 0.889542 96.9167 0.999999C96.9167 1.11046 97.0062 1.2 97.1167 1.2Z" fill="#DBE4FE"/>
<path d="M99.0722 1.2C99.1827 1.2 99.2722 1.11046 99.2722 0.999999C99.2722 0.889542 99.1827 0.799999 99.0722 0.799999C98.9618 0.799999 98.8722 0.889542 98.8722 0.999999C98.8722 1.11046 98.9618 1.2 99.0722 1.2Z" fill="#DBE4FE"/>
<path d="M102.983 1.2C103.094 1.2 103.183 1.11046 103.183 0.999999C103.183 0.889542 103.094 0.799999 102.983 0.799999C102.873 0.799999 102.783 0.889542 102.783 0.999999C102.783 1.11046 102.873 1.2 102.983 1.2Z" fill="#DBE4FE"/>
<path d="M104.939 1.2C105.049 1.2 105.139 1.11046 105.139 0.999999C105.139 0.889542 105.049 0.799999 104.939 0.799999C104.828 0.799999 104.739 0.889542 104.739 0.999999C104.739 1.11046 104.828 1.2 104.939 1.2Z" fill="#DBE4FE"/>
<path d="M106.894 1.2C107.005 1.2 107.094 1.11046 107.094 0.999999C107.094 0.889542 107.005 0.799999 106.894 0.799999C106.784 0.799999 106.694 0.889542 106.694 0.999999C106.694 1.11046 106.784 1.2 106.894 1.2Z" fill="#DBE4FE"/>
<path d="M108.85 1.2C108.96 1.2 109.05 1.11046 109.05 0.999999C109.05 0.889542 108.96 0.799999 108.85 0.799999C108.74 0.799999 108.65 0.889542 108.65 0.999999C108.65 1.11046 108.74 1.2 108.85 1.2Z" fill="#DBE4FE"/>
<path d="M112.761 1.2C112.872 1.2 112.961 1.11046 112.961 0.999999C112.961 0.889542 112.872 0.799999 112.761 0.799999C112.651 0.799999 112.561 0.889542 112.561 0.999999C112.561 1.11046 112.651 1.2 112.761 1.2Z" fill="#DBE4FE"/>
<path d="M114.717 1.2C114.827 1.2 114.917 1.11046 114.917 0.999999C114.917 0.889542 114.827 0.799999 114.717 0.799999C114.606 0.799999 114.517 0.889542 114.517 0.999999C114.517 1.11046 114.606 1.2 114.717 1.2Z" fill="#DBE4FE"/>
<path d="M116.672 1.2C116.783 1.2 116.872 1.11046 116.872 0.999999C116.872 0.889542 116.783 0.799999 116.672 0.799999C116.562 0.799999 116.472 0.889542 116.472 0.999999C116.472 1.11046 116.562 1.2 116.672 1.2Z" fill="#DBE4FE"/>
<path d="M118.628 1.2C118.738 1.2 118.828 1.11046 118.828 0.999999C118.828 0.889542 118.738 0.799999 118.628 0.799999C118.517 0.799999 118.428 0.889542 118.428 0.999999C118.428 1.11046 118.517 1.2 118.628 1.2Z" fill="#DBE4FE"/>
<path d="M122.539 1.2C122.649 1.2 122.739 1.11046 122.739 0.999999C122.739 0.889542 122.649 0.799999 122.539 0.799999C122.428 0.799999 122.339 0.889542 122.339 0.999999C122.339 1.11046 122.428 1.2 122.539 1.2Z" fill="#DBE4FE"/>
<path d="M124.494 1.2C124.605 1.2 124.694 1.11046 124.694 0.999999C124.694 0.889542 124.605 0.799999 124.494 0.799999C124.384 0.799999 124.294 0.889542 124.294 0.999999C124.294 1.11046 124.384 1.2 124.494 1.2Z" fill="#DBE4FE"/>
<path d="M126.45 1.2C126.56 1.2 126.65 1.11046 126.65 0.999999C126.65 0.889542 126.56 0.799999 126.45 0.799999C126.34 0.799999 126.25 0.889542 126.25 0.999999C126.25 1.11046 126.34 1.2 126.45 1.2Z" fill="#DBE4FE"/>
<path d="M128.406 1.2C128.516 1.2 128.606 1.11046 128.606 0.999999C128.606 0.889542 128.516 0.799999 128.406 0.799999C128.295 0.799999 128.206 0.889542 128.206 0.999999C128.206 1.11046 128.295 1.2 128.406 1.2Z" fill="#DBE4FE"/>
<path d="M132.317 1.2C132.427 1.2 132.517 1.11046 132.517 0.999999C132.517 0.889542 132.427 0.799999 132.317 0.799999C132.206 0.799999 132.117 0.889542 132.117 0.999999C132.117 1.11046 132.206 1.2 132.317 1.2Z" fill="#DBE4FE"/>
<path d="M134.272 1.2C134.383 1.2 134.472 1.11046 134.472 0.999999C134.472 0.889542 134.383 0.799999 134.272 0.799999C134.162 0.799999 134.072 0.889542 134.072 0.999999C134.072 1.11046 134.162 1.2 134.272 1.2Z" fill="#DBE4FE"/>
<path d="M136.228 1.2C136.338 1.2 136.428 1.11046 136.428 0.999999C136.428 0.889542 136.338 0.799999 136.228 0.799999C136.117 0.799999 136.028 0.889542 136.028 0.999999C136.028 1.11046 136.117 1.2 136.228 1.2Z" fill="#DBE4FE"/>
<path d="M138.183 1.2C138.294 1.2 138.383 1.11046 138.383 0.999999C138.383 0.889542 138.294 0.799999 138.183 0.799999C138.073 0.799999 137.983 0.889542 137.983 0.999999C137.983 1.11046 138.073 1.2 138.183 1.2Z" fill="#DBE4FE"/>
<path d="M142.094 1.2C142.205 1.2 142.294 1.11046 142.294 0.999999C142.294 0.889542 142.205 0.799999 142.094 0.799999C141.984 0.799999 141.894 0.889542 141.894 0.999999C141.894 1.11046 141.984 1.2 142.094 1.2Z" fill="#DBE4FE"/>
<path d="M144.05 1.2C144.16 1.2 144.25 1.11046 144.25 0.999999C144.25 0.889542 144.16 0.799999 144.05 0.799999C143.94 0.799999 143.85 0.889542 143.85 0.999999C143.85 1.11046 143.94 1.2 144.05 1.2Z" fill="#DBE4FE"/>
<path d="M146.006 1.2C146.116 1.2 146.206 1.11046 146.206 0.999999C146.206 0.889542 146.116 0.799999 146.006 0.799999C145.895 0.799999 145.806 0.889542 145.806 0.999999C145.806 1.11046 145.895 1.2 146.006 1.2Z" fill="#DBE4FE"/>
<path d="M147.961 1.2C148.072 1.2 148.161 1.11046 148.161 0.999999C148.161 0.889542 148.072 0.799999 147.961 0.799999C147.851 0.799999 147.761 0.889542 147.761 0.999999C147.761 1.11046 147.851 1.2 147.961 1.2Z" fill="#DBE4FE"/>
<path d="M151.872 1.2C151.983 1.2 152.072 1.11046 152.072 0.999999C152.072 0.889542 151.983 0.799999 151.872 0.799999C151.762 0.799999 151.672 0.889542 151.672 0.999999C151.672 1.11046 151.762 1.2 151.872 1.2Z" fill="#DBE4FE"/>
<path d="M153.828 1.2C153.938 1.2 154.028 1.11046 154.028 0.999999C154.028 0.889542 153.938 0.799999 153.828 0.799999C153.717 0.799999 153.628 0.889542 153.628 0.999999C153.628 1.11046 153.717 1.2 153.828 1.2Z" fill="#DBE4FE"/>
<path d="M155.783 1.2C155.894 1.2 155.983 1.11046 155.983 0.999999C155.983 0.889542 155.894 0.799999 155.783 0.799999C155.673 0.799999 155.583 0.889542 155.583 0.999999C155.583 1.11046 155.673 1.2 155.783 1.2Z" fill="#DBE4FE"/>
<path d="M157.739 1.2C157.849 1.2 157.939 1.11046 157.939 0.999999C157.939 0.889542 157.849 0.799999 157.739 0.799999C157.628 0.799999 157.539 0.889542 157.539 0.999999C157.539 1.11046 157.628 1.2 157.739 1.2Z" fill="#DBE4FE"/>
<path d="M161.65 1.2C161.76 1.2 161.85 1.11046 161.85 0.999999C161.85 0.889542 161.76 0.799999 161.65 0.799999C161.54 0.799999 161.45 0.889542 161.45 0.999999C161.45 1.11046 161.54 1.2 161.65 1.2Z" fill="#DBE4FE"/>
<path d="M163.606 1.2C163.716 1.2 163.806 1.11046 163.806 0.999999C163.806 0.889542 163.716 0.799999 163.606 0.799999C163.495 0.799999 163.406 0.889542 163.406 0.999999C163.406 1.11046 163.495 1.2 163.606 1.2Z" fill="#DBE4FE"/>
<path d="M165.561 1.2C165.672 1.2 165.761 1.11046 165.761 0.999999C165.761 0.889542 165.672 0.799999 165.561 0.799999C165.451 0.799999 165.361 0.889542 165.361 0.999999C165.361 1.11046 165.451 1.2 165.561 1.2Z" fill="#DBE4FE"/>
<path d="M167.517 1.2C167.627 1.2 167.717 1.11046 167.717 0.999999C167.717 0.889542 167.627 0.799999 167.517 0.799999C167.406 0.799999 167.317 0.889542 167.317 0.999999C167.317 1.11046 167.406 1.2 167.517 1.2Z" fill="#DBE4FE"/>
<path d="M171.428 1.2C171.538 1.2 171.628 1.11046 171.628 0.999999C171.628 0.889542 171.538 0.799999 171.428 0.799999C171.317 0.799999 171.228 0.889542 171.228 0.999999C171.228 1.11046 171.317 1.2 171.428 1.2Z" fill="#DBE4FE"/>
<path d="M173.383 1.2C173.494 1.2 173.583 1.11046 173.583 0.999999C173.583 0.889542 173.494 0.799999 173.383 0.799999C173.273 0.799999 173.183 0.889542 173.183 0.999999C173.183 1.11046 173.273 1.2 173.383 1.2Z" fill="#DBE4FE"/>
<path d="M175.339 1.2C175.449 1.2 175.539 1.11046 175.539 0.999999C175.539 0.889542 175.449 0.799999 175.339 0.799999C175.228 0.799999 175.139 0.889542 175.139 0.999999C175.139 1.11046 175.228 1.2 175.339 1.2Z" fill="#DBE4FE"/>
<path d="M177.294 1.2C177.405 1.2 177.494 1.11046 177.494 0.999999C177.494 0.889542 177.405 0.799999 177.294 0.799999C177.184 0.799999 177.094 0.889542 177.094 0.999999C177.094 1.11046 177.184 1.2 177.294 1.2Z" fill="#DBE4FE"/>
<path d="M3.25 1.5C3.52614 1.5 3.75 1.27614 3.75 1C3.75 0.723858 3.52614 0.5 3.25 0.5C2.97386 0.5 2.75 0.723858 2.75 1C2.75 1.27614 2.97386 1.5 3.25 1.5Z" fill="#1E4BF4"/>
<path d="M13.0278 1.5C13.3039 1.5 13.5278 1.27614 13.5278 1C13.5278 0.723858 13.3039 0.5 13.0278 0.5C12.7516 0.5 12.5278 0.723858 12.5278 1C12.5278 1.27614 12.7516 1.5 13.0278 1.5Z" fill="#1E4BF4"/>
<path d="M22.8056 1.5C23.0817 1.5 23.3056 1.27614 23.3056 1C23.3056 0.723858 23.0817 0.5 22.8056 0.5C22.5294 0.5 22.3056 0.723858 22.3056 1C22.3056 1.27614 22.5294 1.5 22.8056 1.5Z" fill="#1E4BF4"/>
<path d="M32.5833 1.5C32.8595 1.5 33.0833 1.27614 33.0833 1C33.0833 0.723858 32.8595 0.5 32.5833 0.5C32.3072 0.5 32.0833 0.723858 32.0833 1C32.0833 1.27614 32.3072 1.5 32.5833 1.5Z" fill="#1E4BF4"/>
<path d="M42.3611 1.5C42.6373 1.5 42.8611 1.27614 42.8611 1C42.8611 0.723858 42.6373 0.5 42.3611 0.5C42.085 0.5 41.8611 0.723858 41.8611 1C41.8611 1.27614 42.085 1.5 42.3611 1.5Z" fill="#1E4BF4"/>
<path d="M52.1389 1.5C52.415 1.5 52.6389 1.27614 52.6389 1C52.6389 0.723858 52.415 0.5 52.1389 0.5C51.8628 0.5 51.6389 0.723858 51.6389 1C51.6389 1.27614 51.8628 1.5 52.1389 1.5Z" fill="#1E4BF4"/>
<path d="M61.9167 1.5C62.1928 1.5 62.4167 1.27614 62.4167 1C62.4167 0.723858 62.1928 0.5 61.9167 0.5C61.6405 0.5 61.4167 0.723858 61.4167 1C61.4167 1.27614 61.6405 1.5 61.9167 1.5Z" fill="#1E4BF4"/>
<path d="M71.6944 1.5C71.9706 1.5 72.1944 1.27614 72.1944 1C72.1944 0.723858 71.9706 0.5 71.6944 0.5C71.4183 0.5 71.1944 0.723858 71.1944 1C71.1944 1.27614 71.4183 1.5 71.6944 1.5Z" fill="#1E4BF4"/>
<path d="M81.4722 1.5C81.7484 1.5 81.9722 1.27614 81.9722 1C81.9722 0.723858 81.7484 0.5 81.4722 0.5C81.1961 0.5 80.9722 0.723858 80.9722 1C80.9722 1.27614 81.1961 1.5 81.4722 1.5Z" fill="#1E4BF4"/>
<path d="M91.25 1.5C91.5261 1.5 91.75 1.27614 91.75 1C91.75 0.723858 91.5261 0.5 91.25 0.5C90.9739 0.5 90.75 0.723858 90.75 1C90.75 1.27614 90.9739 1.5 91.25 1.5Z" fill="#1E4BF4"/>
<path d="M101.028 1.5C101.304 1.5 101.528 1.27614 101.528 1C101.528 0.723858 101.304 0.5 101.028 0.5C100.752 0.5 100.528 0.723858 100.528 1C100.528 1.27614 100.752 1.5 101.028 1.5Z" fill="#1E4BF4"/>
<path d="M110.806 1.5C111.082 1.5 111.306 1.27614 111.306 1C111.306 0.723858 111.082 0.5 110.806 0.5C110.529 0.5 110.306 0.723858 110.306 1C110.306 1.27614 110.529 1.5 110.806 1.5Z" fill="#1E4BF4"/>
<path d="M120.583 1.5C120.859 1.5 121.083 1.27614 121.083 1C121.083 0.723858 120.859 0.5 120.583 0.5C120.307 0.5 120.083 0.723858 120.083 1C120.083 1.27614 120.307 1.5 120.583 1.5Z" fill="#1E4BF4"/>
<path d="M130.361 1.5C130.637 1.5 130.861 1.27614 130.861 1C130.861 0.723858 130.637 0.5 130.361 0.5C130.085 0.5 129.861 0.723858 129.861 1C129.861 1.27614 130.085 1.5 130.361 1.5Z" fill="#1E4BF4"/>
<path d="M140.139 1.5C140.415 1.5 140.639 1.27614 140.639 1C140.639 0.723858 140.415 0.5 140.139 0.5C139.863 0.5 139.639 0.723858 139.639 1C139.639 1.27614 139.863 1.5 140.139 1.5Z" fill="#1E4BF4"/>
<path d="M149.917 1.5C150.193 1.5 150.417 1.27614 150.417 1C150.417 0.723858 150.193 0.5 149.917 0.5C149.641 0.5 149.417 0.723858 149.417 1C149.417 1.27614 149.641 1.5 149.917 1.5Z" fill="#1E4BF4"/>
<path d="M159.694 1.5C159.971 1.5 160.194 1.27614 160.194 1C160.194 0.723858 159.971 0.5 159.694 0.5C159.418 0.5 159.194 0.723858 159.194 1C159.194 1.27614 159.418 1.5 159.694 1.5Z" fill="#1E4BF4"/>
<path d="M169.472 1.5C169.748 1.5 169.972 1.27614 169.972 1C169.972 0.723858 169.748 0.5 169.472 0.5C169.196 0.5 168.972 0.723858 168.972 1C168.972 1.27614 169.196 1.5 169.472 1.5Z" fill="#1E4BF4"/>
<path d="M179.25 1.5C179.526 1.5 179.75 1.27614 179.75 1C179.75 0.723858 179.526 0.5 179.25 0.5C178.974 0.5 178.75 0.723858 178.75 1C178.75 1.27614 178.974 1.5 179.25 1.5Z" fill="#1E4BF4"/>
<path d="M1.79 3.885H1.1125V3.68H1.79V3.885Z" fill="black"/>
<path d="M2.04582 4.4425L2.12582 4.24C2.21082 4.29167 2.30916 4.3175 2.42082 4.3175C2.60582 4.3175 2.74416 4.265 2.83582 4.16C2.92916 4.05333 2.97832 3.91417 2.98332 3.7425C2.95166 3.80083 2.89916 3.85 2.82582 3.89C2.75416 3.93 2.66666 3.95 2.56332 3.95C2.41332 3.95 2.28249 3.90167 2.17082 3.805C2.05916 3.70667 2.00332 3.5725 2.00332 3.4025C2.00332 3.23917 2.06166 3.105 2.17832 3C2.29666 2.895 2.43749 2.8425 2.60082 2.8425C2.77416 2.8425 2.92249 2.90583 3.04582 3.0325C3.16916 3.15917 3.23082 3.34417 3.23082 3.5875C3.23082 3.89083 3.16249 4.125 3.02582 4.29C2.89082 4.455 2.68916 4.5375 2.42082 4.5375C2.35749 4.5375 2.28916 4.52833 2.21582 4.51C2.14249 4.49167 2.08582 4.46917 2.04582 4.4425ZM2.95082 3.3975C2.95082 3.2975 2.91582 3.21583 2.84582 3.1525C2.77582 3.08917 2.69416 3.0575 2.60082 3.0575C2.50582 3.0575 2.42332 3.08917 2.35332 3.1525C2.28499 3.21417 2.25082 3.29583 2.25082 3.3975C2.25082 3.5025 2.28499 3.58583 2.35332 3.6475C2.42166 3.70917 2.50416 3.74 2.60082 3.74C2.69582 3.74 2.77749 3.70917 2.84582 3.6475C2.91582 3.58417 2.95082 3.50083 2.95082 3.3975Z" fill="black"/>
<path d="M3.85375 3.165C3.75875 3.265 3.71125 3.44 3.71125 3.69C3.71125 3.94 3.75875 4.115 3.85375 4.215C3.92042 4.285 4.00625 4.32 4.11125 4.32C4.21625 4.32 4.30209 4.285 4.36875 4.215C4.46375 4.115 4.51125 3.94 4.51125 3.69C4.51125 3.44 4.46375 3.265 4.36875 3.165C4.30209 3.095 4.21625 3.06 4.11125 3.06C4.00625 3.06 3.92042 3.095 3.85375 3.165ZM3.61375 4.2775C3.51709 4.13417 3.46875 3.93833 3.46875 3.69C3.46875 3.44167 3.51709 3.24583 3.61375 3.1025C3.72875 2.92917 3.89459 2.8425 4.11125 2.8425C4.32792 2.8425 4.49375 2.92917 4.60875 3.1025C4.70542 3.24583 4.75375 3.44167 4.75375 3.69C4.75375 3.93833 4.70542 4.13417 4.60875 4.2775C4.49375 4.45083 4.32792 4.5375 4.11125 4.5375C3.89459 4.5375 3.72875 4.45083 3.61375 4.2775Z" fill="black"/>
<path d="M5.2044 3.105C5.16773 3.14167 5.1494 3.18833 5.1494 3.245C5.1494 3.30167 5.16773 3.34917 5.2044 3.3875C5.24106 3.42417 5.2869 3.4425 5.3419 3.4425C5.3969 3.4425 5.44273 3.42417 5.4794 3.3875C5.51606 3.34917 5.5344 3.30167 5.5344 3.245C5.5344 3.18833 5.51606 3.14167 5.4794 3.105C5.44273 3.06833 5.3969 3.05 5.3419 3.05C5.2869 3.05 5.24106 3.06833 5.2044 3.105ZM4.9419 3.245C4.9419 3.13667 4.98106 3.04417 5.0594 2.9675C5.1394 2.89083 5.23356 2.8525 5.3419 2.8525C5.45023 2.8525 5.5444 2.89083 5.6244 2.9675C5.7044 3.04417 5.7444 3.13667 5.7444 3.245C5.7444 3.355 5.7044 3.44833 5.6244 3.525C5.5444 3.60167 5.45023 3.64 5.3419 3.64C5.23356 3.64 5.1394 3.60167 5.0594 3.525C4.98106 3.44833 4.9419 3.355 4.9419 3.245Z" fill="black"/>
<path d="M11.5678 3.885H10.8903V3.68H11.5678V3.885Z" fill="black"/>
<path d="M12.3811 3.57C12.4678 3.56833 12.5394 3.54333 12.5961 3.495C12.6528 3.44667 12.6811 3.38333 12.6811 3.305C12.6811 3.23167 12.6536 3.17 12.5986 3.12C12.5436 3.07 12.4711 3.045 12.3811 3.045C12.2911 3.045 12.2186 3.07 12.1636 3.12C12.1086 3.17 12.0811 3.23167 12.0811 3.305C12.0811 3.38333 12.1094 3.44667 12.1661 3.495C12.2228 3.54333 12.2944 3.56833 12.3811 3.57ZM12.1311 4.2475C12.1928 4.29917 12.2761 4.325 12.3811 4.325C12.4861 4.325 12.5686 4.29917 12.6286 4.2475C12.6903 4.19583 12.7211 4.13083 12.7211 4.0525C12.7211 3.9725 12.6903 3.90667 12.6286 3.855C12.5686 3.80167 12.4861 3.775 12.3811 3.775C12.2761 3.775 12.1928 3.80167 12.1311 3.855C12.0711 3.90667 12.0411 3.9725 12.0411 4.0525C12.0411 4.13083 12.0711 4.19583 12.1311 4.2475ZM12.8111 4.4075C12.7061 4.49417 12.5628 4.5375 12.3811 4.5375C12.1994 4.5375 12.0561 4.49417 11.9511 4.4075C11.8461 4.31917 11.7936 4.2075 11.7936 4.0725C11.7936 3.9775 11.8219 3.895 11.8786 3.825C11.9369 3.75333 12.0111 3.7025 12.1011 3.6725C12.0244 3.64417 11.9611 3.59583 11.9111 3.5275C11.8611 3.4575 11.8361 3.37917 11.8361 3.2925C11.8361 3.16083 11.8878 3.05333 11.9911 2.97C12.0944 2.885 12.2244 2.8425 12.3811 2.8425C12.5378 2.8425 12.6678 2.885 12.7711 2.97C12.8744 3.05333 12.9261 3.16083 12.9261 3.2925C12.9261 3.3775 12.9011 3.455 12.8511 3.525C12.8011 3.595 12.7378 3.64417 12.6611 3.6725C12.7511 3.70083 12.8244 3.75083 12.8811 3.8225C12.9394 3.89417 12.9686 3.9775 12.9686 4.0725C12.9686 4.2075 12.9161 4.31917 12.8111 4.4075Z" fill="black"/>
<path d="M13.5778 3.165C13.4828 3.265 13.4353 3.44 13.4353 3.69C13.4353 3.94 13.4828 4.115 13.5778 4.215C13.6445 4.285 13.7303 4.32 13.8353 4.32C13.9403 4.32 14.0262 4.285 14.0928 4.215C14.1878 4.115 14.2353 3.94 14.2353 3.69C14.2353 3.44 14.1878 3.265 14.0928 3.165C14.0262 3.095 13.9403 3.06 13.8353 3.06C13.7303 3.06 13.6445 3.095 13.5778 3.165ZM13.3378 4.2775C13.2412 4.13417 13.1928 3.93833 13.1928 3.69C13.1928 3.44167 13.2412 3.24583 13.3378 3.1025C13.4528 2.92917 13.6187 2.8425 13.8353 2.8425C14.052 2.8425 14.2178 2.92917 14.3328 3.1025C14.4295 3.24583 14.4778 3.44167 14.4778 3.69C14.4778 3.93833 14.4295 4.13417 14.3328 4.2775C14.2178 4.45083 14.052 4.5375 13.8353 4.5375C13.6187 4.5375 13.4528 4.45083 13.3378 4.2775Z" fill="black"/>
<path d="M14.9285 3.105C14.8918 3.14167 14.8735 3.18833 14.8735 3.245C14.8735 3.30167 14.8918 3.34917 14.9285 3.3875C14.9651 3.42417 15.011 3.4425 15.066 3.4425C15.121 3.4425 15.1668 3.42417 15.2035 3.3875C15.2401 3.34917 15.2585 3.30167 15.2585 3.245C15.2585 3.18833 15.2401 3.14167 15.2035 3.105C15.1668 3.06833 15.121 3.05 15.066 3.05C15.011 3.05 14.9651 3.06833 14.9285 3.105ZM14.666 3.245C14.666 3.13667 14.7051 3.04417 14.7835 2.9675C14.8635 2.89083 14.9576 2.8525 15.066 2.8525C15.1743 2.8525 15.2685 2.89083 15.3485 2.9675C15.4285 3.04417 15.4685 3.13667 15.4685 3.245C15.4685 3.355 15.4285 3.44833 15.3485 3.525C15.2685 3.60167 15.1743 3.64 15.066 3.64C14.9576 3.64 14.8635 3.60167 14.7835 3.525C14.7051 3.44833 14.666 3.355 14.666 3.245Z" fill="black"/>
<path d="M21.3456 3.885H20.6681V3.68H21.3456V3.885Z" fill="black"/>
<path d="M22.5782 2.88V3.115C22.5365 3.14833 22.4957 3.18417 22.4557 3.2225C22.4157 3.26083 22.3624 3.3225 22.2957 3.4075C22.2307 3.4925 22.1732 3.5825 22.1232 3.6775C22.0732 3.7725 22.0257 3.89333 21.9807 4.04C21.9374 4.185 21.9082 4.33833 21.8932 4.5H21.6407C21.6507 4.37167 21.6707 4.2475 21.7007 4.1275C21.7307 4.00583 21.7657 3.9 21.8057 3.81C21.8457 3.72 21.8882 3.63583 21.9332 3.5575C21.9799 3.4775 22.0249 3.41083 22.0682 3.3575C22.1132 3.3025 22.1532 3.25583 22.1882 3.2175C22.2249 3.17917 22.254 3.15083 22.2757 3.1325L22.3082 3.105H21.3957V2.88H22.5782Z" fill="black"/>
<path d="M23.0382 3.165C22.9432 3.265 22.8957 3.44 22.8957 3.69C22.8957 3.94 22.9432 4.115 23.0382 4.215C23.1049 4.285 23.1907 4.32 23.2957 4.32C23.4007 4.32 23.4865 4.285 23.5532 4.215C23.6482 4.115 23.6957 3.94 23.6957 3.69C23.6957 3.44 23.6482 3.265 23.5532 3.165C23.4865 3.095 23.4007 3.06 23.2957 3.06C23.1907 3.06 23.1049 3.095 23.0382 3.165ZM22.7982 4.2775C22.7015 4.13417 22.6532 3.93833 22.6532 3.69C22.6532 3.44167 22.7015 3.24583 22.7982 3.1025C22.9132 2.92917 23.079 2.8425 23.2957 2.8425C23.5124 2.8425 23.6782 2.92917 23.7932 3.1025C23.8899 3.24583 23.9382 3.44167 23.9382 3.69C23.9382 3.93833 23.8899 4.13417 23.7932 4.2775C23.6782 4.45083 23.5124 4.5375 23.2957 4.5375C23.079 4.5375 22.9132 4.45083 22.7982 4.2775Z" fill="black"/>
<path d="M24.3889 3.105C24.3522 3.14167 24.3339 3.18833 24.3339 3.245C24.3339 3.30167 24.3522 3.34917 24.3889 3.3875C24.4255 3.42417 24.4714 3.4425 24.5264 3.4425C24.5814 3.4425 24.6272 3.42417 24.6639 3.3875C24.7005 3.34917 24.7189 3.30167 24.7189 3.245C24.7189 3.18833 24.7005 3.14167 24.6639 3.105C24.6272 3.06833 24.5814 3.05 24.5264 3.05C24.4714 3.05 24.4255 3.06833 24.3889 3.105ZM24.1264 3.245C24.1264 3.13667 24.1655 3.04417 24.2439 2.9675C24.3239 2.89083 24.418 2.8525 24.5264 2.8525C24.6347 2.8525 24.7289 2.89083 24.8089 2.9675C24.8889 3.04417 24.9289 3.13667 24.9289 3.245C24.9289 3.355 24.8889 3.44833 24.8089 3.525C24.7289 3.60167 24.6347 3.64 24.5264 3.64C24.418 3.64 24.3239 3.60167 24.2439 3.525C24.1655 3.44833 24.1264 3.355 24.1264 3.245Z" fill="black"/>
<path d="M31.1233 3.885H30.4458V3.68H31.1233V3.885Z" fill="black"/>
<path d="M32.5492 2.9325L32.4742 3.1325C32.3942 3.08583 32.2975 3.0625 32.1842 3.0625C32.0192 3.0625 31.885 3.11667 31.7817 3.225C31.68 3.33333 31.6242 3.4725 31.6142 3.6425C31.6508 3.5825 31.7058 3.5325 31.7792 3.4925C31.8542 3.4525 31.9417 3.4325 32.0417 3.4325C32.2067 3.4325 32.34 3.48167 32.4417 3.58C32.545 3.67833 32.5967 3.81333 32.5967 3.985C32.5967 4.15333 32.5383 4.2875 32.4217 4.3875C32.305 4.4875 32.1633 4.5375 31.9967 4.5375C31.8233 4.5375 31.6742 4.475 31.5492 4.35C31.4258 4.22333 31.3642 4.03583 31.3642 3.7875C31.3642 3.49417 31.4425 3.26333 31.5992 3.095C31.7558 2.92667 31.9558 2.8425 32.1992 2.8425C32.3475 2.8425 32.4642 2.8725 32.5492 2.9325ZM31.6492 3.985C31.6492 4.08667 31.6842 4.16917 31.7542 4.2325C31.8242 4.29417 31.9058 4.325 31.9992 4.325C32.0975 4.325 32.18 4.29417 32.2467 4.2325C32.315 4.17083 32.3492 4.08833 32.3492 3.985C32.3492 3.88 32.315 3.79667 32.2467 3.735C32.18 3.67333 32.0975 3.6425 31.9992 3.6425C31.9008 3.6425 31.8175 3.67333 31.7492 3.735C31.6825 3.79667 31.6492 3.88 31.6492 3.985Z" fill="black"/>
<path d="M33.1969 3.165C33.1019 3.265 33.0544 3.44 33.0544 3.69C33.0544 3.94 33.1019 4.115 33.1969 4.215C33.2635 4.285 33.3494 4.32 33.4544 4.32C33.5594 4.32 33.6452 4.285 33.7119 4.215C33.8069 4.115 33.8544 3.94 33.8544 3.69C33.8544 3.44 33.8069 3.265 33.7119 3.165C33.6452 3.095 33.5594 3.06 33.4544 3.06C33.3494 3.06 33.2635 3.095 33.1969 3.165ZM32.9569 4.2775C32.8602 4.13417 32.8119 3.93833 32.8119 3.69C32.8119 3.44167 32.8602 3.24583 32.9569 3.1025C33.0719 2.92917 33.2377 2.8425 33.4544 2.8425C33.671 2.8425 33.8369 2.92917 33.9519 3.1025C34.0485 3.24583 34.0969 3.44167 34.0969 3.69C34.0969 3.93833 34.0485 4.13417 33.9519 4.2775C33.8369 4.45083 33.671 4.5375 33.4544 4.5375C33.2377 4.5375 33.0719 4.45083 32.9569 4.2775Z" fill="black"/>
<path d="M34.5475 3.105C34.5108 3.14167 34.4925 3.18833 34.4925 3.245C34.4925 3.30167 34.5108 3.34917 34.5475 3.3875C34.5842 3.42417 34.63 3.4425 34.685 3.4425C34.74 3.4425 34.7858 3.42417 34.8225 3.3875C34.8592 3.34917 34.8775 3.30167 34.8775 3.245C34.8775 3.18833 34.8592 3.14167 34.8225 3.105C34.7858 3.06833 34.74 3.05 34.685 3.05C34.63 3.05 34.5842 3.06833 34.5475 3.105ZM34.285 3.245C34.285 3.13667 34.3242 3.04417 34.4025 2.9675C34.4825 2.89083 34.5767 2.8525 34.685 2.8525C34.7933 2.8525 34.8875 2.89083 34.9675 2.9675C35.0475 3.04417 35.0875 3.13667 35.0875 3.245C35.0875 3.355 35.0475 3.44833 34.9675 3.525C34.8875 3.60167 34.7933 3.64 34.685 3.64C34.5767 3.64 34.4825 3.60167 34.4025 3.525C34.3242 3.44833 34.285 3.355 34.285 3.245Z" fill="black"/>
<path d="M40.9011 3.885H40.2236V3.68H40.9011V3.885Z" fill="black"/>
<path d="M41.0775 4.06L41.3125 3.99C41.3192 4.09 41.3559 4.17083 41.4225 4.2325C41.4909 4.29417 41.5759 4.325 41.6775 4.325C41.7759 4.325 41.8584 4.295 41.925 4.235C41.9917 4.175 42.025 4.09583 42.025 3.9975C42.025 3.89083 41.9917 3.80833 41.925 3.75C41.8584 3.69167 41.775 3.6625 41.675 3.6625C41.5534 3.6625 41.455 3.70167 41.38 3.78C41.3567 3.77167 41.3184 3.75667 41.265 3.735C41.2117 3.71333 41.17 3.69667 41.14 3.685L41.35 2.88H42.205V3.105H41.5125L41.3925 3.57C41.4642 3.49 41.5742 3.45 41.7225 3.45C41.8842 3.45 42.0159 3.49833 42.1175 3.595C42.2209 3.69167 42.2725 3.8225 42.2725 3.9875C42.2725 4.14417 42.2175 4.27583 42.1075 4.3825C41.9975 4.4875 41.8542 4.54 41.6775 4.54C41.5109 4.54 41.3717 4.49333 41.26 4.4C41.15 4.30667 41.0892 4.19333 41.0775 4.06Z" fill="black"/>
<path d="M42.8697 3.165C42.7747 3.265 42.7272 3.44 42.7272 3.69C42.7272 3.94 42.7747 4.115 42.8697 4.215C42.9363 4.285 43.0222 4.32 43.1272 4.32C43.2322 4.32 43.318 4.285 43.3847 4.215C43.4797 4.115 43.5272 3.94 43.5272 3.69C43.5272 3.44 43.4797 3.265 43.3847 3.165C43.318 3.095 43.2322 3.06 43.1272 3.06C43.0222 3.06 42.9363 3.095 42.8697 3.165ZM42.6297 4.2775C42.533 4.13417 42.4847 3.93833 42.4847 3.69C42.4847 3.44167 42.533 3.24583 42.6297 3.1025C42.7447 2.92917 42.9105 2.8425 43.1272 2.8425C43.3438 2.8425 43.5097 2.92917 43.6247 3.1025C43.7213 3.24583 43.7697 3.44167 43.7697 3.69C43.7697 3.93833 43.7213 4.13417 43.6247 4.2775C43.5097 4.45083 43.3438 4.5375 43.1272 4.5375C42.9105 4.5375 42.7447 4.45083 42.6297 4.2775Z" fill="black"/>
<path d="M44.2203 3.105C44.1836 3.14167 44.1653 3.18833 44.1653 3.245C44.1653 3.30167 44.1836 3.34917 44.2203 3.3875C44.257 3.42417 44.3028 3.4425 44.3578 3.4425C44.4128 3.4425 44.4586 3.42417 44.4953 3.3875C44.532 3.34917 44.5503 3.30167 44.5503 3.245C44.5503 3.18833 44.532 3.14167 44.4953 3.105C44.4586 3.06833 44.4128 3.05 44.3578 3.05C44.3028 3.05 44.257 3.06833 44.2203 3.105ZM43.9578 3.245C43.9578 3.13667 43.997 3.04417 44.0753 2.9675C44.1553 2.89083 44.2495 2.8525 44.3578 2.8525C44.4661 2.8525 44.5603 2.89083 44.6403 2.9675C44.7203 3.04417 44.7603 3.13667 44.7603 3.245C44.7603 3.355 44.7203 3.44833 44.6403 3.525C44.5603 3.60167 44.4661 3.64 44.3578 3.64C44.2495 3.64 44.1553 3.60167 44.0753 3.525C43.997 3.44833 43.9578 3.355 43.9578 3.245Z" fill="black"/>
<path d="M50.6789 3.885H50.0014V3.68H50.6789V3.885Z" fill="black"/>
<path d="M50.8675 4.135V3.8525L51.5625 2.88H51.9V3.9075H52.1775V4.135H51.9V4.5H51.6625V4.135H50.8675ZM51.6625 3.9075V3.115L51.0925 3.9075H51.6625Z" fill="black"/>
<path d="M52.7256 3.165C52.6306 3.265 52.5831 3.44 52.5831 3.69C52.5831 3.94 52.6306 4.115 52.7256 4.215C52.7922 4.285 52.8781 4.32 52.9831 4.32C53.0881 4.32 53.1739 4.285 53.2406 4.215C53.3356 4.115 53.3831 3.94 53.3831 3.69C53.3831 3.44 53.3356 3.265 53.2406 3.165C53.1739 3.095 53.0881 3.06 52.9831 3.06C52.8781 3.06 52.7922 3.095 52.7256 3.165ZM52.4856 4.2775C52.3889 4.13417 52.3406 3.93833 52.3406 3.69C52.3406 3.44167 52.3889 3.24583 52.4856 3.1025C52.6006 2.92917 52.7664 2.8425 52.9831 2.8425C53.1997 2.8425 53.3656 2.92917 53.4806 3.1025C53.5772 3.24583 53.6256 3.44167 53.6256 3.69C53.6256 3.93833 53.5772 4.13417 53.4806 4.2775C53.3656 4.45083 53.1997 4.5375 52.9831 4.5375C52.7664 4.5375 52.6006 4.45083 52.4856 4.2775Z" fill="black"/>
<path d="M54.0762 3.105C54.0395 3.14167 54.0212 3.18833 54.0212 3.245C54.0212 3.30167 54.0395 3.34917 54.0762 3.3875C54.1129 3.42417 54.1587 3.4425 54.2137 3.4425C54.2687 3.4425 54.3145 3.42417 54.3512 3.3875C54.3879 3.34917 54.4062 3.30167 54.4062 3.245C54.4062 3.18833 54.3879 3.14167 54.3512 3.105C54.3145 3.06833 54.2687 3.05 54.2137 3.05C54.1587 3.05 54.1129 3.06833 54.0762 3.105ZM53.8137 3.245C53.8137 3.13667 53.8529 3.04417 53.9312 2.9675C54.0112 2.89083 54.1054 2.8525 54.2137 2.8525C54.322 2.8525 54.4162 2.89083 54.4962 2.9675C54.5762 3.04417 54.6162 3.13667 54.6162 3.245C54.6162 3.355 54.5762 3.44833 54.4962 3.525C54.4162 3.60167 54.322 3.64 54.2137 3.64C54.1054 3.64 54.0112 3.60167 53.9312 3.525C53.8529 3.44833 53.8137 3.355 53.8137 3.245Z" fill="black"/>
<path d="M60.4567 3.885H59.7792V3.68H60.4567V3.885Z" fill="black"/>
<path d="M61.0837 3.7475L60.9637 3.545L61.4412 3.105H60.6662V2.88H61.7662V3.1L61.3037 3.5275C61.4353 3.5275 61.5512 3.57083 61.6512 3.6575C61.7528 3.74417 61.8037 3.865 61.8037 4.02C61.8037 4.16333 61.7512 4.28583 61.6462 4.3875C61.5412 4.48917 61.3978 4.54 61.2162 4.54C61.0378 4.54 60.8945 4.49083 60.7862 4.3925C60.6795 4.2925 60.622 4.17167 60.6137 4.03L60.8537 3.975C60.8587 4.08 60.8945 4.165 60.9612 4.23C61.0295 4.29333 61.1137 4.325 61.2137 4.325C61.3203 4.325 61.4037 4.29667 61.4637 4.24C61.5253 4.18167 61.5562 4.11 61.5562 4.025C61.5562 3.92667 61.5237 3.85167 61.4587 3.8C61.3937 3.74833 61.3162 3.7225 61.2262 3.7225C61.1778 3.7225 61.1303 3.73083 61.0837 3.7475Z" fill="black"/>
<path d="M62.413 3.165C62.318 3.265 62.2705 3.44 62.2705 3.69C62.2705 3.94 62.318 4.115 62.413 4.215C62.4797 4.285 62.5655 4.32 62.6705 4.32C62.7755 4.32 62.8613 4.285 62.928 4.215C63.023 4.115 63.0705 3.94 63.0705 3.69C63.0705 3.44 63.023 3.265 62.928 3.165C62.8613 3.095 62.7755 3.06 62.6705 3.06C62.5655 3.06 62.4797 3.095 62.413 3.165ZM62.173 4.2775C62.0763 4.13417 62.028 3.93833 62.028 3.69C62.028 3.44167 62.0763 3.24583 62.173 3.1025C62.288 2.92917 62.4538 2.8425 62.6705 2.8425C62.8872 2.8425 63.053 2.92917 63.168 3.1025C63.2647 3.24583 63.313 3.44167 63.313 3.69C63.313 3.93833 63.2647 4.13417 63.168 4.2775C63.053 4.45083 62.8872 4.5375 62.6705 4.5375C62.4538 4.5375 62.288 4.45083 62.173 4.2775Z" fill="black"/>
<path d="M63.7636 3.105C63.727 3.14167 63.7086 3.18833 63.7086 3.245C63.7086 3.30167 63.727 3.34917 63.7636 3.3875C63.8003 3.42417 63.8461 3.4425 63.9011 3.4425C63.9561 3.4425 64.002 3.42417 64.0386 3.3875C64.0753 3.34917 64.0936 3.30167 64.0936 3.245C64.0936 3.18833 64.0753 3.14167 64.0386 3.105C64.002 3.06833 63.9561 3.05 63.9011 3.05C63.8461 3.05 63.8003 3.06833 63.7636 3.105ZM63.5011 3.245C63.5011 3.13667 63.5403 3.04417 63.6186 2.9675C63.6986 2.89083 63.7928 2.8525 63.9011 2.8525C64.0095 2.8525 64.1036 2.89083 64.1836 2.9675C64.2636 3.04417 64.3036 3.13667 64.3036 3.245C64.3036 3.355 64.2636 3.44833 64.1836 3.525C64.1036 3.60167 64.0095 3.64 63.9011 3.64C63.7928 3.64 63.6986 3.60167 63.6186 3.525C63.5403 3.44833 63.5011 3.355 63.5011 3.245Z" fill="black"/>
<path d="M70.2344 3.885H69.5569V3.68H70.2344V3.885Z" fill="black"/>
<path d="M70.7003 3.4625L70.4553 3.4325C70.4536 3.4175 70.4528 3.39583 70.4528 3.3675C70.4528 3.2225 70.5036 3.09917 70.6053 2.9975C70.7069 2.89417 70.8428 2.8425 71.0128 2.8425C71.1811 2.8425 71.3144 2.89083 71.4128 2.9875C71.5111 3.0825 71.5603 3.2 71.5603 3.34C71.5603 3.545 71.4586 3.71167 71.2553 3.84L70.9353 4.045C70.8203 4.11833 70.7544 4.19417 70.7378 4.2725H71.5703V4.5H70.4353C70.4386 4.36333 70.4694 4.24333 70.5278 4.14C70.5878 4.03667 70.6853 3.94167 70.8203 3.855L71.0903 3.68C71.2386 3.585 71.3128 3.4725 71.3128 3.3425C71.3128 3.2625 71.2861 3.195 71.2328 3.14C71.1794 3.085 71.1044 3.0575 71.0078 3.0575C70.9061 3.0575 70.8286 3.08833 70.7753 3.15C70.7219 3.21167 70.6953 3.29167 70.6953 3.39C70.6953 3.405 70.6969 3.42917 70.7003 3.4625Z" fill="black"/>
<path d="M72.181 3.165C72.086 3.265 72.0385 3.44 72.0385 3.69C72.0385 3.94 72.086 4.115 72.181 4.215C72.2477 4.285 72.3335 4.32 72.4385 4.32C72.5435 4.32 72.6293 4.285 72.696 4.215C72.791 4.115 72.8385 3.94 72.8385 3.69C72.8385 3.44 72.791 3.265 72.696 3.165C72.6293 3.095 72.5435 3.06 72.4385 3.06C72.3335 3.06 72.2477 3.095 72.181 3.165ZM71.941 4.2775C71.8443 4.13417 71.796 3.93833 71.796 3.69C71.796 3.44167 71.8443 3.24583 71.941 3.1025C72.056 2.92917 72.2218 2.8425 72.4385 2.8425C72.6552 2.8425 72.821 2.92917 72.936 3.1025C73.0327 3.24583 73.081 3.44167 73.081 3.69C73.081 3.93833 73.0327 4.13417 72.936 4.2775C72.821 4.45083 72.6552 4.5375 72.4385 4.5375C72.2218 4.5375 72.056 4.45083 71.941 4.2775Z" fill="black"/>
<path d="M73.5317 3.105C73.495 3.14167 73.4767 3.18833 73.4767 3.245C73.4767 3.30167 73.495 3.34917 73.5317 3.3875C73.5683 3.42417 73.6142 3.4425 73.6692 3.4425C73.7242 3.4425 73.77 3.42417 73.8067 3.3875C73.8433 3.34917 73.8617 3.30167 73.8617 3.245C73.8617 3.18833 73.8433 3.14167 73.8067 3.105C73.77 3.06833 73.7242 3.05 73.6692 3.05C73.6142 3.05 73.5683 3.06833 73.5317 3.105ZM73.2692 3.245C73.2692 3.13667 73.3083 3.04417 73.3867 2.9675C73.4667 2.89083 73.5608 2.8525 73.6692 2.8525C73.7775 2.8525 73.8717 2.89083 73.9517 2.9675C74.0317 3.04417 74.0717 3.13667 74.0717 3.245C74.0717 3.355 74.0317 3.44833 73.9517 3.525C73.8717 3.60167 73.7775 3.64 73.6692 3.64C73.5608 3.64 73.4667 3.60167 73.3867 3.525C73.3083 3.44833 73.2692 3.355 73.2692 3.245Z" fill="black"/>
<path d="M80.0122 3.885H79.3347V3.68H80.0122V3.885Z" fill="black"/>
<path d="M80.7717 4.5H80.5317V3.3575H80.1392V3.185C80.2492 3.18333 80.3417 3.155 80.4167 3.1C80.4917 3.04333 80.5384 2.97 80.5567 2.88H80.7717V4.5Z" fill="black"/>
<path d="M81.4803 3.165C81.3853 3.265 81.3378 3.44 81.3378 3.69C81.3378 3.94 81.3853 4.115 81.4803 4.215C81.5469 4.285 81.6328 4.32 81.7378 4.32C81.8428 4.32 81.9286 4.285 81.9953 4.215C82.0903 4.115 82.1378 3.94 82.1378 3.69C82.1378 3.44 82.0903 3.265 81.9953 3.165C81.9286 3.095 81.8428 3.06 81.7378 3.06C81.6328 3.06 81.5469 3.095 81.4803 3.165ZM81.2403 4.2775C81.1436 4.13417 81.0953 3.93833 81.0953 3.69C81.0953 3.44167 81.1436 3.24583 81.2403 3.1025C81.3553 2.92917 81.5211 2.8425 81.7378 2.8425C81.9544 2.8425 82.1203 2.92917 82.2353 3.1025C82.3319 3.24583 82.3803 3.44167 82.3803 3.69C82.3803 3.93833 82.3319 4.13417 82.2353 4.2775C82.1203 4.45083 81.9544 4.5375 81.7378 4.5375C81.5211 4.5375 81.3553 4.45083 81.2403 4.2775Z" fill="black"/>
<path d="M82.8309 3.105C82.7943 3.14167 82.7759 3.18833 82.7759 3.245C82.7759 3.30167 82.7943 3.34917 82.8309 3.3875C82.8676 3.42417 82.9134 3.4425 82.9684 3.4425C83.0234 3.4425 83.0693 3.42417 83.1059 3.3875C83.1426 3.34917 83.1609 3.30167 83.1609 3.245C83.1609 3.18833 83.1426 3.14167 83.1059 3.105C83.0693 3.06833 83.0234 3.05 82.9684 3.05C82.9134 3.05 82.8676 3.06833 82.8309 3.105ZM82.5684 3.245C82.5684 3.13667 82.6076 3.04417 82.6859 2.9675C82.7659 2.89083 82.8601 2.8525 82.9684 2.8525C83.0768 2.8525 83.1709 2.89083 83.2509 2.9675C83.3309 3.04417 83.3709 3.13667 83.3709 3.245C83.3709 3.355 83.3309 3.44833 83.2509 3.525C83.1709 3.60167 83.0768 3.64 82.9684 3.64C82.8601 3.64 82.7659 3.60167 82.6859 3.525C82.6076 3.44833 82.5684 3.355 82.5684 3.245Z" fill="black"/>
<path d="M91.01 3.165C90.915 3.265 90.8675 3.44 90.8675 3.69C90.8675 3.94 90.915 4.115 91.01 4.215C91.0767 4.285 91.1625 4.32 91.2675 4.32C91.3725 4.32 91.4583 4.285 91.525 4.215C91.62 4.115 91.6675 3.94 91.6675 3.69C91.6675 3.44 91.62 3.265 91.525 3.165C91.4583 3.095 91.3725 3.06 91.2675 3.06C91.1625 3.06 91.0767 3.095 91.01 3.165ZM90.77 4.2775C90.6733 4.13417 90.625 3.93833 90.625 3.69C90.625 3.44167 90.6733 3.24583 90.77 3.1025C90.885 2.92917 91.0508 2.8425 91.2675 2.8425C91.4842 2.8425 91.65 2.92917 91.765 3.1025C91.8617 3.24583 91.91 3.44167 91.91 3.69C91.91 3.93833 91.8617 4.13417 91.765 4.2775C91.65 4.45083 91.4842 4.5375 91.2675 4.5375C91.0508 4.5375 90.885 4.45083 90.77 4.2775Z" fill="black"/>
<path d="M92.3606 3.105C92.324 3.14167 92.3056 3.18833 92.3056 3.245C92.3056 3.30167 92.324 3.34917 92.3606 3.3875C92.3973 3.42417 92.4431 3.4425 92.4981 3.4425C92.5531 3.4425 92.599 3.42417 92.6356 3.3875C92.6723 3.34917 92.6906 3.30167 92.6906 3.245C92.6906 3.18833 92.6723 3.14167 92.6356 3.105C92.599 3.06833 92.5531 3.05 92.4981 3.05C92.4431 3.05 92.3973 3.06833 92.3606 3.105ZM92.0981 3.245C92.0981 3.13667 92.1373 3.04417 92.2156 2.9675C92.2956 2.89083 92.3898 2.8525 92.4981 2.8525C92.6065 2.8525 92.7006 2.89083 92.7806 2.9675C92.8606 3.04417 92.9006 3.13667 92.9006 3.245C92.9006 3.355 92.8606 3.44833 92.7806 3.525C92.7006 3.60167 92.6065 3.64 92.4981 3.64C92.3898 3.64 92.2956 3.60167 92.2156 3.525C92.1373 3.44833 92.0981 3.355 92.0981 3.245Z" fill="black"/>
<path d="M100.223 4.5H99.9828V3.3575H99.5903V3.185C99.7003 3.18333 99.7928 3.155 99.8678 3.1C99.9428 3.04333 99.9895 2.97 100.008 2.88H100.223V4.5Z" fill="black"/>
<path d="M100.931 3.165C100.836 3.265 100.789 3.44 100.789 3.69C100.789 3.94 100.836 4.115 100.931 4.215C100.998 4.285 101.084 4.32 101.189 4.32C101.294 4.32 101.38 4.285 101.446 4.215C101.541 4.115 101.589 3.94 101.589 3.69C101.589 3.44 101.541 3.265 101.446 3.165C101.38 3.095 101.294 3.06 101.189 3.06C101.084 3.06 100.998 3.095 100.931 3.165ZM100.691 4.2775C100.595 4.13417 100.546 3.93833 100.546 3.69C100.546 3.44167 100.595 3.24583 100.691 3.1025C100.806 2.92917 100.972 2.8425 101.189 2.8425C101.406 2.8425 101.571 2.92917 101.686 3.1025C101.783 3.24583 101.831 3.44167 101.831 3.69C101.831 3.93833 101.783 4.13417 101.686 4.2775C101.571 4.45083 101.406 4.5375 101.189 4.5375C100.972 4.5375 100.806 4.45083 100.691 4.2775Z" fill="black"/>
<path d="M102.282 3.105C102.245 3.14167 102.227 3.18833 102.227 3.245C102.227 3.30167 102.245 3.34917 102.282 3.3875C102.319 3.42417 102.364 3.4425 102.419 3.4425C102.474 3.4425 102.52 3.42417 102.557 3.3875C102.594 3.34917 102.612 3.30167 102.612 3.245C102.612 3.18833 102.594 3.14167 102.557 3.105C102.52 3.06833 102.474 3.05 102.419 3.05C102.364 3.05 102.319 3.06833 102.282 3.105ZM102.019 3.245C102.019 3.13667 102.059 3.04417 102.137 2.9675C102.217 2.89083 102.311 2.8525 102.419 2.8525C102.528 2.8525 102.622 2.89083 102.702 2.9675C102.782 3.04417 102.822 3.13667 102.822 3.245C102.822 3.355 102.782 3.44833 102.702 3.525C102.622 3.60167 102.528 3.64 102.419 3.64C102.311 3.64 102.217 3.60167 102.137 3.525C102.059 3.44833 102.019 3.355 102.019 3.245Z" fill="black"/>
<path d="M109.658 3.4625L109.413 3.4325C109.411 3.4175 109.411 3.39583 109.411 3.3675C109.411 3.2225 109.461 3.09917 109.563 2.9975C109.665 2.89417 109.801 2.8425 109.971 2.8425C110.139 2.8425 110.272 2.89083 110.371 2.9875C110.469 3.0825 110.518 3.2 110.518 3.34C110.518 3.545 110.416 3.71167 110.213 3.84L109.893 4.045C109.778 4.11833 109.712 4.19417 109.696 4.2725H110.528V4.5H109.393C109.396 4.36333 109.427 4.24333 109.486 4.14C109.546 4.03667 109.643 3.94167 109.778 3.855L110.048 3.68C110.196 3.585 110.271 3.4725 110.271 3.3425C110.271 3.2625 110.244 3.195 110.191 3.14C110.137 3.085 110.062 3.0575 109.966 3.0575C109.864 3.0575 109.786 3.08833 109.733 3.15C109.68 3.21167 109.653 3.29167 109.653 3.39C109.653 3.405 109.655 3.42917 109.658 3.4625Z" fill="black"/>
<path d="M111.139 3.165C111.044 3.265 110.996 3.44 110.996 3.69C110.996 3.94 111.044 4.115 111.139 4.215C111.205 4.285 111.291 4.32 111.396 4.32C111.501 4.32 111.587 4.285 111.654 4.215C111.749 4.115 111.796 3.94 111.796 3.69C111.796 3.44 111.749 3.265 111.654 3.165C111.587 3.095 111.501 3.06 111.396 3.06C111.291 3.06 111.205 3.095 111.139 3.165ZM110.899 4.2775C110.802 4.13417 110.754 3.93833 110.754 3.69C110.754 3.44167 110.802 3.24583 110.899 3.1025C111.014 2.92917 111.18 2.8425 111.396 2.8425C111.613 2.8425 111.779 2.92917 111.894 3.1025C111.99 3.24583 112.039 3.44167 112.039 3.69C112.039 3.93833 111.99 4.13417 111.894 4.2775C111.779 4.45083 111.613 4.5375 111.396 4.5375C111.18 4.5375 111.014 4.45083 110.899 4.2775Z" fill="black"/>
<path d="M112.489 3.105C112.453 3.14167 112.434 3.18833 112.434 3.245C112.434 3.30167 112.453 3.34917 112.489 3.3875C112.526 3.42417 112.572 3.4425 112.627 3.4425C112.682 3.4425 112.728 3.42417 112.764 3.3875C112.801 3.34917 112.819 3.30167 112.819 3.245C112.819 3.18833 112.801 3.14167 112.764 3.105C112.728 3.06833 112.682 3.05 112.627 3.05C112.572 3.05 112.526 3.06833 112.489 3.105ZM112.227 3.245C112.227 3.13667 112.266 3.04417 112.344 2.9675C112.424 2.89083 112.519 2.8525 112.627 2.8525C112.735 2.8525 112.829 2.89083 112.909 2.9675C112.989 3.04417 113.029 3.13667 113.029 3.245C113.029 3.355 112.989 3.44833 112.909 3.525C112.829 3.60167 112.735 3.64 112.627 3.64C112.519 3.64 112.424 3.60167 112.344 3.525C112.266 3.44833 112.227 3.355 112.227 3.245Z" fill="black"/>
<path d="M119.646 3.7475L119.526 3.545L120.003 3.105H119.228V2.88H120.328V3.1L119.866 3.5275C119.998 3.5275 120.113 3.57083 120.213 3.6575C120.315 3.74417 120.366 3.865 120.366 4.02C120.366 4.16333 120.313 4.28583 120.208 4.3875C120.103 4.48917 119.96 4.54 119.778 4.54C119.6 4.54 119.457 4.49083 119.348 4.3925C119.242 4.2925 119.184 4.17167 119.176 4.03L119.416 3.975C119.421 4.08 119.457 4.165 119.523 4.23C119.592 4.29333 119.676 4.325 119.776 4.325C119.883 4.325 119.966 4.29667 120.026 4.24C120.088 4.18167 120.118 4.11 120.118 4.025C120.118 3.92667 120.086 3.85167 120.021 3.8C119.956 3.74833 119.878 3.7225 119.788 3.7225C119.74 3.7225 119.693 3.73083 119.646 3.7475Z" fill="black"/>
<path d="M120.975 3.165C120.88 3.265 120.833 3.44 120.833 3.69C120.833 3.94 120.88 4.115 120.975 4.215C121.042 4.285 121.128 4.32 121.233 4.32C121.338 4.32 121.424 4.285 121.49 4.215C121.585 4.115 121.633 3.94 121.633 3.69C121.633 3.44 121.585 3.265 121.49 3.165C121.424 3.095 121.338 3.06 121.233 3.06C121.128 3.06 121.042 3.095 120.975 3.165ZM120.735 4.2775C120.639 4.13417 120.59 3.93833 120.59 3.69C120.59 3.44167 120.639 3.24583 120.735 3.1025C120.85 2.92917 121.016 2.8425 121.233 2.8425C121.449 2.8425 121.615 2.92917 121.73 3.1025C121.827 3.24583 121.875 3.44167 121.875 3.69C121.875 3.93833 121.827 4.13417 121.73 4.2775C121.615 4.45083 121.449 4.5375 121.233 4.5375C121.016 4.5375 120.85 4.45083 120.735 4.2775Z" fill="black"/>
<path d="M122.326 3.105C122.289 3.14167 122.271 3.18833 122.271 3.245C122.271 3.30167 122.289 3.34917 122.326 3.3875C122.362 3.42417 122.408 3.4425 122.463 3.4425C122.518 3.4425 122.564 3.42417 122.601 3.3875C122.637 3.34917 122.656 3.30167 122.656 3.245C122.656 3.18833 122.637 3.14167 122.601 3.105C122.564 3.06833 122.518 3.05 122.463 3.05C122.408 3.05 122.362 3.06833 122.326 3.105ZM122.063 3.245C122.063 3.13667 122.102 3.04417 122.181 2.9675C122.261 2.89083 122.355 2.8525 122.463 2.8525C122.572 2.8525 122.666 2.89083 122.746 2.9675C122.826 3.04417 122.866 3.13667 122.866 3.245C122.866 3.355 122.826 3.44833 122.746 3.525C122.666 3.60167 122.572 3.64 122.463 3.64C122.355 3.64 122.261 3.60167 122.181 3.525C122.102 3.44833 122.063 3.355 122.063 3.245Z" fill="black"/>
<path d="M128.949 4.135V3.8525L129.644 2.88H129.981V3.9075H130.259V4.135H129.981V4.5H129.744V4.135H128.949ZM129.744 3.9075V3.115L129.174 3.9075H129.744Z" fill="black"/>
<path d="M130.807 3.165C130.712 3.265 130.664 3.44 130.664 3.69C130.664 3.94 130.712 4.115 130.807 4.215C130.873 4.285 130.959 4.32 131.064 4.32C131.169 4.32 131.255 4.285 131.322 4.215C131.417 4.115 131.464 3.94 131.464 3.69C131.464 3.44 131.417 3.265 131.322 3.165C131.255 3.095 131.169 3.06 131.064 3.06C130.959 3.06 130.873 3.095 130.807 3.165ZM130.567 4.2775C130.47 4.13417 130.422 3.93833 130.422 3.69C130.422 3.44167 130.47 3.24583 130.567 3.1025C130.682 2.92917 130.847 2.8425 131.064 2.8425C131.281 2.8425 131.447 2.92917 131.562 3.1025C131.658 3.24583 131.707 3.44167 131.707 3.69C131.707 3.93833 131.658 4.13417 131.562 4.2775C131.447 4.45083 131.281 4.5375 131.064 4.5375C130.847 4.5375 130.682 4.45083 130.567 4.2775Z" fill="black"/>
<path d="M132.157 3.105C132.121 3.14167 132.102 3.18833 132.102 3.245C132.102 3.30167 132.121 3.34917 132.157 3.3875C132.194 3.42417 132.24 3.4425 132.295 3.4425C132.35 3.4425 132.396 3.42417 132.432 3.3875C132.469 3.34917 132.487 3.30167 132.487 3.245C132.487 3.18833 132.469 3.14167 132.432 3.105C132.396 3.06833 132.35 3.05 132.295 3.05C132.24 3.05 132.194 3.06833 132.157 3.105ZM131.895 3.245C131.895 3.13667 131.934 3.04417 132.012 2.9675C132.092 2.89083 132.186 2.8525 132.295 2.8525C132.403 2.8525 132.497 2.89083 132.577 2.9675C132.657 3.04417 132.697 3.13667 132.697 3.245C132.697 3.355 132.657 3.44833 132.577 3.525C132.497 3.60167 132.403 3.64 132.295 3.64C132.186 3.64 132.092 3.60167 132.012 3.525C131.934 3.44833 131.895 3.355 131.895 3.245Z" fill="black"/>
<path d="M138.726 4.06L138.961 3.99C138.968 4.09 139.005 4.17083 139.071 4.2325C139.14 4.29417 139.225 4.325 139.326 4.325C139.425 4.325 139.507 4.295 139.574 4.235C139.641 4.175 139.674 4.09583 139.674 3.9975C139.674 3.89083 139.641 3.80833 139.574 3.75C139.507 3.69167 139.424 3.6625 139.324 3.6625C139.202 3.6625 139.104 3.70167 139.029 3.78C139.006 3.77167 138.967 3.75667 138.914 3.735C138.861 3.71333 138.819 3.69667 138.789 3.685L138.999 2.88H139.854V3.105H139.161L139.041 3.57C139.113 3.49 139.223 3.45 139.371 3.45C139.533 3.45 139.665 3.49833 139.766 3.595C139.87 3.69167 139.921 3.8225 139.921 3.9875C139.921 4.14417 139.866 4.27583 139.756 4.3825C139.646 4.4875 139.503 4.54 139.326 4.54C139.16 4.54 139.021 4.49333 138.909 4.4C138.799 4.30667 138.738 4.19333 138.726 4.06Z" fill="black"/>
<path d="M140.519 3.165C140.424 3.265 140.376 3.44 140.376 3.69C140.376 3.94 140.424 4.115 140.519 4.215C140.585 4.285 140.671 4.32 140.776 4.32C140.881 4.32 140.967 4.285 141.034 4.215C141.129 4.115 141.176 3.94 141.176 3.69C141.176 3.44 141.129 3.265 141.034 3.165C140.967 3.095 140.881 3.06 140.776 3.06C140.671 3.06 140.585 3.095 140.519 3.165ZM140.279 4.2775C140.182 4.13417 140.134 3.93833 140.134 3.69C140.134 3.44167 140.182 3.24583 140.279 3.1025C140.394 2.92917 140.559 2.8425 140.776 2.8425C140.993 2.8425 141.159 2.92917 141.274 3.1025C141.37 3.24583 141.419 3.44167 141.419 3.69C141.419 3.93833 141.37 4.13417 141.274 4.2775C141.159 4.45083 140.993 4.5375 140.776 4.5375C140.559 4.5375 140.394 4.45083 140.279 4.2775Z" fill="black"/>
<path d="M141.869 3.105C141.832 3.14167 141.814 3.18833 141.814 3.245C141.814 3.30167 141.832 3.34917 141.869 3.3875C141.906 3.42417 141.952 3.4425 142.007 3.4425C142.062 3.4425 142.107 3.42417 142.144 3.3875C142.181 3.34917 142.199 3.30167 142.199 3.245C142.199 3.18833 142.181 3.14167 142.144 3.105C142.107 3.06833 142.062 3.05 142.007 3.05C141.952 3.05 141.906 3.06833 141.869 3.105ZM141.607 3.245C141.607 3.13667 141.646 3.04417 141.724 2.9675C141.804 2.89083 141.898 2.8525 142.007 2.8525C142.115 2.8525 142.209 2.89083 142.289 2.9675C142.369 3.04417 142.409 3.13667 142.409 3.245C142.409 3.355 142.369 3.44833 142.289 3.525C142.209 3.60167 142.115 3.64 142.007 3.64C141.898 3.64 141.804 3.60167 141.724 3.525C141.646 3.44833 141.607 3.355 141.607 3.245Z" fill="black"/>
<path d="M149.729 2.9325L149.654 3.1325C149.574 3.08583 149.478 3.0625 149.364 3.0625C149.199 3.0625 149.065 3.11667 148.962 3.225C148.86 3.33333 148.804 3.4725 148.794 3.6425C148.831 3.5825 148.886 3.5325 148.959 3.4925C149.034 3.4525 149.122 3.4325 149.222 3.4325C149.387 3.4325 149.52 3.48167 149.622 3.58C149.725 3.67833 149.777 3.81333 149.777 3.985C149.777 4.15333 149.718 4.2875 149.602 4.3875C149.485 4.4875 149.343 4.5375 149.177 4.5375C149.003 4.5375 148.854 4.475 148.729 4.35C148.606 4.22333 148.544 4.03583 148.544 3.7875C148.544 3.49417 148.623 3.26333 148.779 3.095C148.936 2.92667 149.136 2.8425 149.379 2.8425C149.528 2.8425 149.644 2.8725 149.729 2.9325ZM148.829 3.985C148.829 4.08667 148.864 4.16917 148.934 4.2325C149.004 4.29417 149.086 4.325 149.179 4.325C149.278 4.325 149.36 4.29417 149.427 4.2325C149.495 4.17083 149.529 4.08833 149.529 3.985C149.529 3.88 149.495 3.79667 149.427 3.735C149.36 3.67333 149.278 3.6425 149.179 3.6425C149.081 3.6425 148.998 3.67333 148.929 3.735C148.863 3.79667 148.829 3.88 148.829 3.985Z" fill="black"/>
<path d="M150.377 3.165C150.282 3.265 150.234 3.44 150.234 3.69C150.234 3.94 150.282 4.115 150.377 4.215C150.444 4.285 150.529 4.32 150.634 4.32C150.739 4.32 150.825 4.285 150.892 4.215C150.987 4.115 151.034 3.94 151.034 3.69C151.034 3.44 150.987 3.265 150.892 3.165C150.825 3.095 150.739 3.06 150.634 3.06C150.529 3.06 150.444 3.095 150.377 3.165ZM150.137 4.2775C150.04 4.13417 149.992 3.93833 149.992 3.69C149.992 3.44167 150.04 3.24583 150.137 3.1025C150.252 2.92917 150.418 2.8425 150.634 2.8425C150.851 2.8425 151.017 2.92917 151.132 3.1025C151.229 3.24583 151.277 3.44167 151.277 3.69C151.277 3.93833 151.229 4.13417 151.132 4.2775C151.017 4.45083 150.851 4.5375 150.634 4.5375C150.418 4.5375 150.252 4.45083 150.137 4.2775Z" fill="black"/>
<path d="M151.728 3.105C151.691 3.14167 151.673 3.18833 151.673 3.245C151.673 3.30167 151.691 3.34917 151.728 3.3875C151.764 3.42417 151.81 3.4425 151.865 3.4425C151.92 3.4425 151.966 3.42417 152.003 3.3875C152.039 3.34917 152.058 3.30167 152.058 3.245C152.058 3.18833 152.039 3.14167 152.003 3.105C151.966 3.06833 151.92 3.05 151.865 3.05C151.81 3.05 151.764 3.06833 151.728 3.105ZM151.465 3.245C151.465 3.13667 151.504 3.04417 151.583 2.9675C151.663 2.89083 151.757 2.8525 151.865 2.8525C151.973 2.8525 152.068 2.89083 152.148 2.9675C152.228 3.04417 152.268 3.13667 152.268 3.245C152.268 3.355 152.228 3.44833 152.148 3.525C152.068 3.60167 151.973 3.64 151.865 3.64C151.757 3.64 151.663 3.60167 151.583 3.525C151.504 3.44833 151.465 3.355 151.465 3.245Z" fill="black"/>
<path d="M159.389 2.88V3.115C159.348 3.14833 159.307 3.18417 159.267 3.2225C159.227 3.26083 159.174 3.3225 159.107 3.4075C159.042 3.4925 158.984 3.5825 158.934 3.6775C158.884 3.7725 158.837 3.89333 158.792 4.04C158.749 4.185 158.719 4.33833 158.704 4.5H158.452C158.462 4.37167 158.482 4.2475 158.512 4.1275C158.542 4.00583 158.577 3.9 158.617 3.81C158.657 3.72 158.699 3.63583 158.744 3.5575C158.791 3.4775 158.836 3.41083 158.879 3.3575C158.924 3.3025 158.964 3.25583 158.999 3.2175C159.036 3.17917 159.065 3.15083 159.087 3.1325L159.119 3.105H158.207V2.88H159.389Z" fill="black"/>
<path d="M159.849 3.165C159.754 3.265 159.707 3.44 159.707 3.69C159.707 3.94 159.754 4.115 159.849 4.215C159.916 4.285 160.002 4.32 160.107 4.32C160.212 4.32 160.298 4.285 160.364 4.215C160.459 4.115 160.507 3.94 160.507 3.69C160.507 3.44 160.459 3.265 160.364 3.165C160.298 3.095 160.212 3.06 160.107 3.06C160.002 3.06 159.916 3.095 159.849 3.165ZM159.609 4.2775C159.513 4.13417 159.464 3.93833 159.464 3.69C159.464 3.44167 159.513 3.24583 159.609 3.1025C159.724 2.92917 159.89 2.8425 160.107 2.8425C160.324 2.8425 160.489 2.92917 160.604 3.1025C160.701 3.24583 160.749 3.44167 160.749 3.69C160.749 3.93833 160.701 4.13417 160.604 4.2775C160.489 4.45083 160.324 4.5375 160.107 4.5375C159.89 4.5375 159.724 4.45083 159.609 4.2775Z" fill="black"/>
<path d="M161.2 3.105C161.163 3.14167 161.145 3.18833 161.145 3.245C161.145 3.30167 161.163 3.34917 161.2 3.3875C161.237 3.42417 161.283 3.4425 161.338 3.4425C161.393 3.4425 161.438 3.42417 161.475 3.3875C161.512 3.34917 161.53 3.30167 161.53 3.245C161.53 3.18833 161.512 3.14167 161.475 3.105C161.438 3.06833 161.393 3.05 161.338 3.05C161.283 3.05 161.237 3.06833 161.2 3.105ZM160.938 3.245C160.938 3.13667 160.977 3.04417 161.055 2.9675C161.135 2.89083 161.229 2.8525 161.338 2.8525C161.446 2.8525 161.54 2.89083 161.62 2.9675C161.7 3.04417 161.74 3.13667 161.74 3.245C161.74 3.355 161.7 3.44833 161.62 3.525C161.54 3.60167 161.446 3.64 161.338 3.64C161.229 3.64 161.135 3.60167 161.055 3.525C160.977 3.44833 160.938 3.355 160.938 3.245Z" fill="black"/>
<path d="M168.672 3.57C168.759 3.56833 168.831 3.54333 168.887 3.495C168.944 3.44667 168.972 3.38333 168.972 3.305C168.972 3.23167 168.945 3.17 168.89 3.12C168.835 3.07 168.762 3.045 168.672 3.045C168.582 3.045 168.51 3.07 168.455 3.12C168.4 3.17 168.372 3.23167 168.372 3.305C168.372 3.38333 168.401 3.44667 168.457 3.495C168.514 3.54333 168.586 3.56833 168.672 3.57ZM168.422 4.2475C168.484 4.29917 168.567 4.325 168.672 4.325C168.777 4.325 168.86 4.29917 168.92 4.2475C168.981 4.19583 169.012 4.13083 169.012 4.0525C169.012 3.9725 168.981 3.90667 168.92 3.855C168.86 3.80167 168.777 3.775 168.672 3.775C168.567 3.775 168.484 3.80167 168.422 3.855C168.362 3.90667 168.332 3.9725 168.332 4.0525C168.332 4.13083 168.362 4.19583 168.422 4.2475ZM169.102 4.4075C168.997 4.49417 168.854 4.5375 168.672 4.5375C168.491 4.5375 168.347 4.49417 168.242 4.4075C168.137 4.31917 168.085 4.2075 168.085 4.0725C168.085 3.9775 168.113 3.895 168.17 3.825C168.228 3.75333 168.302 3.7025 168.392 3.6725C168.316 3.64417 168.252 3.59583 168.202 3.5275C168.152 3.4575 168.127 3.37917 168.127 3.2925C168.127 3.16083 168.179 3.05333 168.282 2.97C168.386 2.885 168.516 2.8425 168.672 2.8425C168.829 2.8425 168.959 2.885 169.062 2.97C169.166 3.05333 169.217 3.16083 169.217 3.2925C169.217 3.3775 169.192 3.455 169.142 3.525C169.092 3.595 169.029 3.64417 168.952 3.6725C169.042 3.70083 169.116 3.75083 169.172 3.8225C169.231 3.89417 169.26 3.9775 169.26 4.0725C169.26 4.2075 169.207 4.31917 169.102 4.4075Z" fill="black"/>
<path d="M169.869 3.165C169.774 3.265 169.726 3.44 169.726 3.69C169.726 3.94 169.774 4.115 169.869 4.215C169.936 4.285 170.021 4.32 170.126 4.32C170.231 4.32 170.317 4.285 170.384 4.215C170.479 4.115 170.526 3.94 170.526 3.69C170.526 3.44 170.479 3.265 170.384 3.165C170.317 3.095 170.231 3.06 170.126 3.06C170.021 3.06 169.936 3.095 169.869 3.165ZM169.629 4.2775C169.532 4.13417 169.484 3.93833 169.484 3.69C169.484 3.44167 169.532 3.24583 169.629 3.1025C169.744 2.92917 169.91 2.8425 170.126 2.8425C170.343 2.8425 170.509 2.92917 170.624 3.1025C170.721 3.24583 170.769 3.44167 170.769 3.69C170.769 3.93833 170.721 4.13417 170.624 4.2775C170.509 4.45083 170.343 4.5375 170.126 4.5375C169.91 4.5375 169.744 4.45083 169.629 4.2775Z" fill="black"/>
<path d="M171.22 3.105C171.183 3.14167 171.165 3.18833 171.165 3.245C171.165 3.30167 171.183 3.34917 171.22 3.3875C171.256 3.42417 171.302 3.4425 171.357 3.4425C171.412 3.4425 171.458 3.42417 171.495 3.3875C171.531 3.34917 171.55 3.30167 171.55 3.245C171.55 3.18833 171.531 3.14167 171.495 3.105C171.458 3.06833 171.412 3.05 171.357 3.05C171.302 3.05 171.256 3.06833 171.22 3.105ZM170.957 3.245C170.957 3.13667 170.996 3.04417 171.075 2.9675C171.155 2.89083 171.249 2.8525 171.357 2.8525C171.465 2.8525 171.56 2.89083 171.64 2.9675C171.72 3.04417 171.76 3.13667 171.76 3.245C171.76 3.355 171.72 3.44833 171.64 3.525C171.56 3.60167 171.465 3.64 171.357 3.64C171.249 3.64 171.155 3.60167 171.075 3.525C170.996 3.44833 170.957 3.355 170.957 3.245Z" fill="black"/>
<path d="M177.893 4.4425L177.973 4.24C178.058 4.29167 178.156 4.3175 178.268 4.3175C178.453 4.3175 178.591 4.265 178.683 4.16C178.776 4.05333 178.825 3.91417 178.83 3.7425C178.798 3.80083 178.746 3.85 178.673 3.89C178.601 3.93 178.513 3.95 178.41 3.95C178.26 3.95 178.129 3.90167 178.018 3.805C177.906 3.70667 177.85 3.5725 177.85 3.4025C177.85 3.23917 177.908 3.105 178.025 3C178.143 2.895 178.284 2.8425 178.448 2.8425C178.621 2.8425 178.769 2.90583 178.893 3.0325C179.016 3.15917 179.078 3.34417 179.078 3.5875C179.078 3.89083 179.009 4.125 178.873 4.29C178.738 4.455 178.536 4.5375 178.268 4.5375C178.204 4.5375 178.136 4.52833 178.063 4.51C177.989 4.49167 177.933 4.46917 177.893 4.4425ZM178.798 3.3975C178.798 3.2975 178.763 3.21583 178.693 3.1525C178.623 3.08917 178.541 3.0575 178.448 3.0575C178.353 3.0575 178.27 3.08917 178.2 3.1525C178.132 3.21417 178.098 3.29583 178.098 3.3975C178.098 3.5025 178.132 3.58583 178.2 3.6475C178.268 3.70917 178.351 3.74 178.448 3.74C178.543 3.74 178.624 3.70917 178.693 3.6475C178.763 3.58417 178.798 3.50083 178.798 3.3975Z" fill="black"/>
<path d="M179.7 3.165C179.605 3.265 179.558 3.44 179.558 3.69C179.558 3.94 179.605 4.115 179.7 4.215C179.767 4.285 179.853 4.32 179.958 4.32C180.063 4.32 180.149 4.285 180.215 4.215C180.31 4.115 180.358 3.94 180.358 3.69C180.358 3.44 180.31 3.265 180.215 3.165C180.149 3.095 180.063 3.06 179.958 3.06C179.853 3.06 179.767 3.095 179.7 3.165ZM179.46 4.2775C179.364 4.13417 179.315 3.93833 179.315 3.69C179.315 3.44167 179.364 3.24583 179.46 3.1025C179.575 2.92917 179.741 2.8425 179.958 2.8425C180.175 2.8425 180.34 2.92917 180.455 3.1025C180.552 3.24583 180.6 3.44167 180.6 3.69C180.6 3.93833 180.552 4.13417 180.455 4.2775C180.34 4.45083 180.175 4.5375 179.958 4.5375C179.741 4.5375 179.575 4.45083 179.46 4.2775Z" fill="black"/>
<path d="M181.051 3.105C181.014 3.14167 180.996 3.18833 180.996 3.245C180.996 3.30167 181.014 3.34917 181.051 3.3875C181.088 3.42417 181.134 3.4425 181.189 3.4425C181.244 3.4425 181.289 3.42417 181.326 3.3875C181.363 3.34917 181.381 3.30167 181.381 3.245C181.381 3.18833 181.363 3.14167 181.326 3.105C181.289 3.06833 181.244 3.05 181.189 3.05C181.134 3.05 181.088 3.06833 181.051 3.105ZM180.789 3.245C180.789 3.13667 180.828 3.04417 180.906 2.9675C180.986 2.89083 181.08 2.8525 181.189 2.8525C181.297 2.8525 181.391 2.89083 181.471 2.9675C181.551 3.04417 181.591 3.13667 181.591 3.245C181.591 3.355 181.551 3.44833 181.471 3.525C181.391 3.60167 181.297 3.64 181.189 3.64C181.08 3.64 180.986 3.60167 180.906 3.525C180.828 3.44833 180.789 3.355 180.789 3.245Z" fill="black"/>
</svg>
