<?xml version="1.0" encoding="UTF-8"?>
<svg width="24px" height="24px" viewBox="0 0 24 24" version="1.1" xmlns="http://www.w3.org/2000/svg" xmlns:xlink="http://www.w3.org/1999/xlink">
    <title>Artboard Copy</title>
    <g id="Artboard-Copy" stroke="none" stroke-width="1" fill="none" fill-rule="evenodd">
        <g id="photo_size_select_large-24px">
            <polygon id="Path" points="24 24 0 24 0 0 24 0"></polygon>
            <path d="M21,15 L23,15 L23,17 L21,17 L21,15 Z M21,11 L23,11 L23,13 L21,13 L21,11 Z M23,19 L21,19 L21,21 C22,21 23,20 23,19 Z M13,3 L15,3 L15,5 L13,5 L13,3 Z M21,7 L23,7 L23,9 L21,9 L21,7 Z M21,3 L21,5 L23,5 C23,4 22,3 21,3 Z M1,7 L3,7 L3,9 L1,9 L1,7 Z M17,3 L19,3 L19,5 L17,5 L17,3 Z M17,19 L19,19 L19,21 L17,21 L17,19 Z M3,3 C2,3 1,4 1,5 L3,5 L3,3 Z M9,3 L11,3 L11,5 L9,5 L9,3 Z M5,3 L7,3 L7,5 L5,5 L5,3 Z M1,11 L1,19 C1,20.1 1.9,21 3,21 L15,21 L15,11 L1,11 Z" id="Shape" fill="#1B31F7" fill-rule="nonzero"></path>
            <polygon id="Path" fill="#BAC1FC" fill-rule="nonzero" points="3 19 5.5 15.79 7.29 17.94 9.79 14.72 13 19"></polygon>
        </g>
    </g>
</svg>