<svg width="34" height="34" viewBox="0 0 34 34" fill="none" xmlns="http://www.w3.org/2000/svg">
<path opacity="0.3" d="M16.9996 8.5C11.6305 8.5 6.84214 11.5175 4.50464 16.2917C6.84214 21.0658 11.6305 24.0833 16.9996 24.0833C22.3688 24.0833 27.1571 21.0658 29.4946 16.2917C27.1571 11.5175 22.3688 8.5 16.9996 8.5ZM16.9996 22.6667C13.4863 22.6667 10.6246 19.805 10.6246 16.2917C10.6246 12.7783 13.4863 9.91667 16.9996 9.91667C20.513 9.91667 23.3746 12.7783 23.3746 16.2917C23.3746 19.805 20.513 22.6667 16.9996 22.6667Z" fill="#D9E4FF"/>
<path d="M17.0001 5.66663C9.91675 5.66663 3.86758 10.0725 1.41675 16.2916C3.86758 22.5108 9.91675 26.9166 17.0001 26.9166C24.0834 26.9166 30.1326 22.5108 32.5834 16.2916C30.1326 10.0725 24.0834 5.66663 17.0001 5.66663ZM17.0001 24.0833C11.6309 24.0833 6.84258 21.0658 4.50508 16.2916C6.84258 11.5175 11.6309 8.49996 17.0001 8.49996C22.3692 8.49996 27.1576 11.5175 29.4951 16.2916C27.1576 21.0658 22.3692 24.0833 17.0001 24.0833ZM17.0001 9.91663C13.4867 9.91663 10.6251 12.7783 10.6251 16.2916C10.6251 19.805 13.4867 22.6666 17.0001 22.6666C20.5134 22.6666 23.3751 19.805 23.3751 16.2916C23.3751 12.7783 20.5134 9.91663 17.0001 9.91663ZM17.0001 19.8333C15.0451 19.8333 13.4584 18.2466 13.4584 16.2916C13.4584 14.3366 15.0451 12.75 17.0001 12.75C18.9551 12.75 20.5417 14.3366 20.5417 16.2916C20.5417 18.2466 18.9551 19.8333 17.0001 19.8333Z" fill="#A4B4CB"/>
</svg>
