<svg width="34" height="34" viewBox="0 0 34 34" fill="none" xmlns="http://www.w3.org/2000/svg">
<path opacity="0.3" d="M16.9995 19.8333C17.0562 19.8333 17.1129 19.8192 17.1695 19.8192L13.472 16.1217C13.472 16.1783 13.4579 16.235 13.4579 16.2917C13.4579 18.2467 15.0445 19.8333 16.9995 19.8333ZM18.4304 13.0475L20.2437 14.8608C19.8754 14.0533 19.2379 13.4017 18.4304 13.0475ZM29.4945 16.2917C27.157 11.5175 22.3687 8.5 16.9995 8.5C16.0362 8.5 15.1012 8.6275 14.1804 8.81167L15.4837 10.115C15.9795 9.9875 16.4754 9.91667 16.9995 9.91667C20.5129 9.91667 23.3745 12.7783 23.3745 16.2917C23.3745 16.8158 23.2895 17.3117 23.1762 17.8075L26.0804 20.7117C27.4687 19.4933 28.6445 18.0058 29.4945 16.2917ZM16.9995 24.0833C18.3454 24.0833 19.6487 23.8992 20.8954 23.5308L19.507 22.1425C18.742 22.4825 17.892 22.6667 16.9995 22.6667C13.4862 22.6667 10.6245 19.805 10.6245 16.2917C10.6245 15.3992 10.8087 14.5492 11.1345 13.7842L8.65535 11.2908C6.92702 12.58 5.49618 14.2658 4.50452 16.2775C6.84202 21.0517 11.6303 24.0833 16.9995 24.0833Z" fill="#D9E4FF"/>
<path d="M17 8.49999C22.3691 8.49999 27.1575 11.5175 29.495 16.2917C28.6591 18.02 27.4833 19.5075 26.0808 20.7117L28.0783 22.7092C30.0475 20.9667 31.6058 18.785 32.5833 16.2917C30.1325 10.0725 24.0833 5.66666 17 5.66666C15.2008 5.66666 13.4725 5.94999 11.8433 6.47416L14.1808 8.81166C15.1016 8.62749 16.0366 8.49999 17 8.49999ZM20.23 14.8608L23.1625 17.7933C23.2758 17.3117 23.3608 16.8017 23.3608 16.2775C23.375 12.7642 20.5133 9.91666 17 9.91666C16.4758 9.91666 15.98 10.0017 15.4841 10.115L18.4166 13.0475C19.2383 13.4017 19.8758 14.0533 20.23 14.8608ZM2.84746 5.48249L6.64413 9.27916C4.33496 11.0925 2.50746 13.5008 1.41663 16.2917C3.86746 22.5108 9.91663 26.9167 17 26.9167C19.1533 26.9167 21.2216 26.5058 23.12 25.755L27.965 30.6L29.9625 28.6025L4.84496 3.47083L2.84746 5.48249ZM13.4725 16.1075L17.17 19.805C17.1133 19.8192 17.0566 19.8333 17 19.8333C15.045 19.8333 13.4583 18.2467 13.4583 16.2917C13.4583 16.2208 13.4725 16.1783 13.4725 16.1075V16.1075ZM8.65579 11.2908L11.135 13.77C10.8091 14.5492 10.625 15.3992 10.625 16.2917C10.625 19.805 13.4866 22.6667 17 22.6667C17.8925 22.6667 18.7425 22.4825 19.5075 22.1567L20.8958 23.545C19.6491 23.885 18.3458 24.0833 17 24.0833C11.6308 24.0833 6.84246 21.0658 4.50496 16.2917C5.49663 14.2658 6.94163 12.5942 8.65579 11.2908Z" fill="#A4B4CB"/>
</svg>
