<svg width="40" height="51" viewBox="0 0 40 51" fill="none" xmlns="http://www.w3.org/2000/svg">
<path d="M38.525 13.6917L26.45 1.61669C25.525 0.691687 24.25 0.166687 22.925 0.166687H5C2.25 0.166687 0.0250006 2.41669 0.0250006 5.16669L0 45.1667C0 47.9167 2.225 50.1667 4.975 50.1667H35C37.75 50.1667 40 47.9167 40 45.1667V17.2417C40 15.9167 39.475 14.6417 38.525 13.6917ZM25 17.6667C23.625 17.6667 22.5 16.5417 22.5 15.1667V3.91669L36.25 17.6667H25Z" fill="#D9E4FF"/>
<path d="M25.9451 36.518L14.5938 25.1667" stroke="#A4B4CB" stroke-width="4" stroke-linecap="round" stroke-linejoin="round"/>
<path d="M14.594 36.518L25.9453 25.1667" stroke="#A4B4CB" stroke-width="4" stroke-linecap="round" stroke-linejoin="round"/>
</svg>
