<svg width="24" height="24" viewBox="0 0 105 105" fill="none" xmlns="http://www.w3.org/2000/svg">
<path d="M30.625 61.25C23.3625 61.25 17.5 67.1125 17.5 74.375C17.5 80.1063 12.425 83.125 8.75 83.125C12.775 88.4625 19.6438 91.875 26.25 91.875C35.9188 91.875 43.75 84.0438 43.75 74.375C43.75 67.1125 37.8875 61.25 30.625 61.25ZM90.6062 20.2563L84.7438 14.3938C83.0375 12.6875 80.2812 12.6875 78.575 14.3938L39.375 53.5938L51.4062 65.625L90.6062 26.425C92.3125 24.7188 92.3125 21.9625 90.6062 20.2563V20.2563Z" fill="currentColor"/>
<path d="M14.5833 35.5833C14.5833 37.8292 16.4208 39.6667 18.6667 39.6667C20.9125 39.6667 22.75 37.8292 22.75 35.5833V27.4167H30.9167C33.1625 27.4167 35 25.5792 35 23.3333C35 21.0875 33.1625 19.25 30.9167 19.25H22.75V11.0833C22.75 8.8375 20.9125 7 18.6667 7C16.4208 7 14.5833 8.8375 14.5833 11.0833V19.25H6.41668C4.17084 19.25 2.33334 21.0875 2.33334 23.3333C2.33334 25.5792 4.17084 27.4167 6.41668 27.4167H14.5833V35.5833Z" fill="currentColor"/>
</svg>
