<svg xmlns="http://www.w3.org/2000/svg" width="25" height="24" fill="currentColor" viewBox="0 0 25 24">
  <path fill="#004CFE" d="M22.831 10.44H2V7.42C2 4.98 4.063 3 6.604 3h2.427c1.698 0 2.23.53 2.906 1.4l1.459 1.86c.323.41.364.47.969.47h4.22c2.415 0 4.246.442 4.246 3.71z" opacity=".5"/>
  <path fill="#004CFE" d="M22.833 10.63v5.58c0 2.95-2.5 5.35-5.573 5.35H7.573C4.5 21.56 2 19.16 2 16.21V9h20.778c.045.875.024.91.045 1.4.01.07.01.16.01.23z"/>
  <path fill="#fff" d="M13.033 18.48l3-3c.29-.29.29-.77 0-1.06a.754.754 0 00-1.06 0l-1.72 1.72v-4.39c0-.41-.34-.75-.75-.75s-.75.34-.75.75v4.39l-1.72-1.72a.754.754 0 00-1.06 0c-.15.15-.22.34-.22.53s.07.38.22.53l3 3c.29.29.77.29 1.06 0z"/>
</svg>
