<svg width="25" height="24" viewBox="0 0 25 24" fill="none" xmlns="http://www.w3.org/2000/svg">
<path d="M8.00195 10.5V13.5C8.00195 16 9.80195 17.5 12.002 17.5H17.0919C18.1419 17.5 19.002 16.64 19.002 15.59V8.42006C19.002 7.37006 18.1419 6.51006 17.0919 6.51006H12.002C9.80195 6.50006 8.00195 8.00005 8.00195 10.5Z" fill="#D2E7FA"/>
<path d="M22.002 10.25H19.002V8.75H22.002C22.412 8.75 22.752 9.09 22.752 9.5C22.752 9.91 22.412 10.25 22.002 10.25Z" fill="#004CFE"/>
<path d="M22.002 15.25H19.002V13.75H22.002C22.412 13.75 22.752 14.09 22.752 14.5C22.752 14.91 22.412 15.25 22.002 15.25Z" fill="#004CFE"/>
<path d="M8.00195 12.75H2.00195C1.59195 12.75 1.25195 12.41 1.25195 12C1.25195 11.59 1.59195 11.25 2.00195 11.25H8.00195V12.75Z" fill="#004CFE"/>
</svg>
