<svg xmlns="http://www.w3.org/2000/svg" width="25" height="24" fill="currentColor" viewBox="0 0 25 24">
  <path fill="#004CFE" d="M22.831 10.44H2V7.42C2 4.98 4.063 3 6.604 3h2.427c1.698 0 2.23.53 2.906 1.4l1.459 1.86c.323.41.364.47.969.47h4.22c2.415 0 4.246.442 4.246 3.71z" opacity=".5"/>
  <path fill="#004CFE" d="M22.833 10.63v5.58c0 2.95-2.5 5.35-5.573 5.35H7.573C4.5 21.56 2 19.16 2 16.21V9h20.778c.045.875.024.91.045 1.4.01.07.01.16.01.23z"/>
  <path fill="#fff" d="M12.451 18.7a3.753 3.753 0 01-3.75-3.75 3.753 3.753 0 013.75-3.75 3.753 3.753 0 013.75 3.75 3.753 3.753 0 01-3.75 3.75zm0-6.316a2.57 2.57 0 00-2.566 2.566 2.57 2.57 0 002.566 2.566 2.57 2.57 0 002.566-2.566 2.57 2.57 0 00-2.566-2.566z"/>
  <path fill="#fff" d="M11.661 16.331a.591.591 0 01-.3-1.097l.6-.363a.195.195 0 00.095-.166v-.734c0-.324.268-.592.592-.592a.59.59 0 01.592.584v.734c0 .482-.26.94-.67 1.185l-.609.363a.512.512 0 01-.3.086z"/>
</svg>
