<svg width="39" height="32" viewBox="0 0 39 32" fill="none" xmlns="http://www.w3.org/2000/svg">
<path d="M24 2.66663H12C10.5333 2.66663 9.33333 3.86663 9.33333 5.33329V21.3333C9.33333 22.8 10.5333 24 12 24H24C25.4667 24 26.6667 22.8 26.6667 21.3333V5.33329C26.6667 3.86663 25.4667 2.66663 24 2.66663ZM24 21.3333H12V5.33329H24V21.3333ZM4 20V17.3333H6.66667V20H4ZM4 12.6666H6.66667V15.3333H4V12.6666ZM13.3333 26.6666H16V29.3333H13.3333V26.6666ZM4 24.6666V22H6.66667V24.6666H4ZM6.66667 29.3333C5.2 29.3333 4 28.1333 4 26.6666H6.66667V29.3333ZM11.3333 29.3333H8.66667V26.6666H11.3333V29.3333ZM18 29.3333V26.6666H20.6667C20.6667 28.1333 19.4667 29.3333 18 29.3333ZM6.66667 7.99996V10.6666H4C4 9.19996 5.2 7.99996 6.66667 7.99996Z" fill="#004CFE"/>
<path d="M30.1111 14.3636V12.9553C25.5776 13.0517 22.3445 14.477 19.9528 17.4084C19.7196 17.6943 19.3601 17.7208 19.105 17.6036C18.8449 17.484 18.6248 17.1799 18.718 16.8038C19.3478 14.2637 20.4917 11.7517 22.3938 9.74208C24.2251 7.80724 26.7386 6.36064 30.1111 5.79394V4.41421C30.1111 3.07786 31.7268 2.40861 32.6718 3.35355L37.6464 8.32823C38.2322 8.91401 38.2322 9.86376 37.6464 10.4495L32.6718 15.4242C31.7268 16.3692 30.1111 15.6999 30.1111 14.3636Z" fill="#004CFE" stroke="white"/>
</svg>
